<svg xmlns="http://www.w3.org/2000/svg" width="763.859" height="630.138" viewBox="0 0 763.859 630.138">
  <g id="Group_1012" data-name="Group 1012" transform="translate(-21.989 -68.477)">
    <g id="Group_1012-2" data-name="Group 1012" transform="translate(21.989 162.168)">
      <path id="Path_795" data-name="Path 795" d="M700.073,630.22C662.012,601.3,596.918,529.548,682.639,416.908c106-139.294-20.947-196.442-142.631-190.477-97.9,4.8-208.072-118.275-317.977-96.279-145.877,29.2-51.158,154.818-150.066,222.5-84.354,57.721-48.138,233.591,61.645,277.57Z" transform="translate(-19.652 -122.313)" fill="#dcedf9"/>
      <path id="Path_796" data-name="Path 796" d="M488.78,283.764c-.586-20.655-19.829-28.667-32.672-13.714A64.454,64.454,0,0,0,440.4,307.39c-2.941,36.826,29.277,26.156,41.317,6.437C486.856,305.417,489.077,294.2,488.78,283.764Z" transform="translate(260.334 -31.296)" fill="#dcedf9"/>
      <path id="Path_797" data-name="Path 797" d="M267.661,124.958c-20.3-3.843-32.245,13.241-20.382,28.985A64.471,64.471,0,0,0,280.4,177.268c35.347,10.745,31.809-23.01,15.122-38.987C288.4,131.467,277.924,126.9,267.661,124.958Z" transform="translate(126.915 -124.41)" fill="#dcedf9"/>
      <path id="Path_798" data-name="Path 798" d="M80.991,249.167c8.124-19-5.988-34.34-23.916-26.146A64.461,64.461,0,0,0,27.163,250.34c-18.1,32.2,15.622,36.019,34.816,23.163C70.167,268.02,76.884,258.77,80.991,249.167Z" transform="translate(-21.989 -59.367)" fill="#dcedf9"/>
    </g>
    <ellipse id="Ellipse_75" data-name="Ellipse 75" cx="348.01" cy="22.91" rx="348.01" ry="22.91" transform="translate(56.524 652.795)" fill="#dcedf9"/>
    <g id="Group_1023" data-name="Group 1023" transform="translate(40.735 178.374)">
      <g id="Group_1017" data-name="Group 1017" transform="translate(559.061 264.527)">
        <g id="Group_1014" data-name="Group 1014" transform="translate(41.01)">
          <path id="Path_799" data-name="Path 799" d="M493.779,336.857c-21.307,21.3,2.461,23.106-13.174,39.193-14.25,14.662-35.278.39-33.88,36.2.307,7.834-5.394,13.647-13.392,16.623a30.479,30.479,0,0,1-33.965-8.635q-.967-1.088-1.833-2.275a31.042,31.042,0,0,1-3.754-30.375c3.618-8.95,10.027-17.757,21.38-21.266,26.642-8.233,11.854-43.518,34.372-45.066,27.156-1.869,28.129-11.829,47.4-25.256C517.365,281.764,522.657,307.994,493.779,336.857Z" transform="translate(-391.421 -292.007)" fill="#0077eb"/>
          <g id="Group_1013" data-name="Group 1013" transform="translate(6.115 30.794)">
            <path id="Path_800" data-name="Path 800" d="M481.762,312.81c-.595.613-50,51.551-84.858,95.017q-.968-1.088-1.833-2.275c34.953-43.491,84.049-94.118,84.649-94.731a1.425,1.425,0,1,1,2.042,1.988Z" transform="translate(-395.071 -310.391)" fill="#0059d3"/>
          </g>
        </g>
        <g id="Group_1016" data-name="Group 1016" transform="translate(0 63.957)">
          <path id="Path_801" data-name="Path 801" d="M515.777,382.188c-33.382,19.652-4.379,29.553-29.019,44.543-22.461,13.66-44.04-10.874-53.831,34.151-2.141,9.849-11.109,15.248-22.024,16.379-17.958,1.858-32.526-7.926-39.5-21.687-.568-1.111-1.085-2.255-1.548-3.421a39.915,39.915,0,0,1,5.111-39.02c7.385-9.977,18.2-18.875,33.463-19.585,35.813-1.672,28.767-50.354,57.3-45.03,34.4,6.419,38.823-5.665,67.136-16.173C562.876,321.206,561.018,355.558,515.777,382.188Z" transform="translate(-366.938 -330.189)" fill="#008eff"/>
          <g id="Group_1015" data-name="Group 1015" transform="translate(2.918 31.038)">
            <path id="Path_802" data-name="Path 802" d="M506.456,352.118c-.938.571-78.84,48.067-136.229,90.947-.568-1.111-1.085-2.255-1.548-3.421,57.515-42.881,134.932-90.089,135.874-90.659a1.833,1.833,0,0,1,1.9,3.132Z" transform="translate(-368.68 -348.719)" fill="#0077eb"/>
          </g>
        </g>
      </g>
      <g id="Group_1022" data-name="Group 1022" transform="translate(3.623 19.01)">
        <g id="Group_1019" data-name="Group 1019" transform="translate(46.635)">
          <path id="Path_803" data-name="Path 803" d="M69.785,192.473c11.454,27.864-11.174,20.374-2.946,41.241,7.5,19.02,32.4,13.955,17.313,46.461-3.3,7.111-.281,14.67,5.951,20.5a30.479,30.479,0,0,0,34.67,5.121c.874-.42,1.734-.886,2.568-1.394a31.044,31.044,0,0,0,15.169-26.581c.111-9.655-2.41-20.25-11.534-27.865-21.411-17.863,5.831-44.724-14.35-54.831-24.339-12.189-21.4-21.754-34.009-41.571C69.253,132.546,54.261,154.709,69.785,192.473Z" transform="translate(-63.184 -145.434)" fill="#0077eb"/>
          <g id="Group_1018" data-name="Group 1018" transform="translate(19.801 38.032)">
            <path id="Path_804" data-name="Path 804" d="M75.105,170.087c.312.8,26.273,66.84,41.689,120.381.874-.42,1.734-.886,2.568-1.394-15.494-53.6-41.29-119.237-41.6-120.034a1.425,1.425,0,0,0-2.652,1.047Z" transform="translate(-75.005 -168.139)" fill="#0059d3"/>
          </g>
        </g>
        <g id="Group_1021" data-name="Group 1021" transform="translate(0 60.558)">
          <path id="Path_805" data-name="Path 805" d="M55.963,240.855c24.156,30.282-6.471,29.166,11.188,51.97,16.1,20.786,45.019,5.58,38.072,51.133-1.519,9.963,4.928,18.211,14.717,23.166,16.109,8.151,33.213,4.219,44.64-6.141.93-.834,1.821-1.719,2.668-2.643a39.907,39.907,0,0,0,9.171-38.268c-3.333-11.957-10.253-24.131-24.255-30.25-32.851-14.357-8.876-57.309-37.424-62.53-34.426-6.3-34.235-19.164-56.925-39.1C33.763,167.068,23.224,199.817,55.963,240.855Z" transform="translate(-35.343 -181.587)" fill="#008eff"/>
          <g id="Group_1020" data-name="Group 1020" transform="translate(34.116 42.82)">
            <path id="Path_806" data-name="Path 806" d="M56.095,210.1c.672.871,56.459,73.067,94.736,133.622.93-.834,1.821-1.719,2.668-2.643-38.394-60.6-93.831-132.354-94.508-133.224a1.832,1.832,0,1,0-2.9,2.245Z" transform="translate(-55.711 -207.15)" fill="#0077eb"/>
          </g>
        </g>
      </g>
      <path id="Path_807" data-name="Path 807" d="M150.894,246.56c9.732-6.663,34.1,9.774,46.848,29.732L186.436,244.62c-4.09-3.549-11.255-8.529-22.449-12.5-17.41-6.171-34.859-15.838-25.111-22.513,9.137-6.256,31.178,7.849,44.386,26.114l-14.519-40.674a45.766,45.766,0,0,0-12.685-6.683c-10.973-3.888-21.97-9.98-15.826-14.188,5.333-3.652,17.64,3.7,26.04,13.952l-4.705-13.183a66.456,66.456,0,0,0-10.037-14.295c-11.178-11.565-19.63-24.573-11.008-26.459s22.751,20.776,24.972,41.25l2.422,6.784c-1.879-14.893,3.474-32.921,10.94-33.561,7.421-.633,2.767,11.045-3.263,21-4.59,7.58-5.856,13.595-6.2,16.707l11.437,32.04c-2.911-23.593,5.57-52.042,17.384-53.052,11.772-1.007,4.389,17.523-5.178,33.323-7.229,11.94-9.266,21.436-9.823,26.406l13.715,38.422c-2.432-23.313,5.906-51.607,17.538-51.7,8.967-.07,6.221,12.59-4.489,30.462a76,76,0,0,0-10.35,28.8l6.461,18.1a5.961,5.961,0,0,1-3.327,1.188l-2.57-7.2C196.563,279.649,189,273.679,176,269.072,158.595,262.9,141.146,253.236,150.894,246.56Z" transform="translate(36.277 -134.085)" fill="#008eff"/>
      <path id="Path_808" data-name="Path 808" d="M134.726,384.135c-9.983,6.28-4.59,35.178,8.658,54.808l-24.568-22.965c-1.63-5.166-3.352-13.719-2.543-25.568,1.26-18.429-.673-38.282-10.675-31.99-9.372,5.9-5.189,31.727,6.318,51.109l-31.55-29.493a45.722,45.722,0,0,1-1.089-14.3c.792-11.613-.425-24.126-6.729-20.161-5.469,3.442-3.615,17.657,2.451,29.441l-10.226-9.56a66.418,66.418,0,0,1-9.126-14.891c-6.169-14.854-14.747-27.781-19.9-20.62s10.02,29.134,27.923,39.313l5.261,4.918c-12.918-7.645-31.59-9.9-35.144-3.3-3.531,6.556,9.035,6.928,20.568,5.355,8.781-1.2,14.8.029,17.794.955L97,400.419c-20.491-12.049-49.967-15.578-55.592-5.139-5.6,10.4,14.335,10.993,32.637,8.5,13.829-1.888,23.354.018,28.134,1.484l29.8,27.858c-20.426-11.5-49.7-15.1-54.411-4.459-3.63,8.2,9.079,10.715,29.737,7.992a75.971,75.971,0,0,1,30.538,1.95l14.039,13.122a5.943,5.943,0,0,0,2.41-2.58l-5.586-5.223c-1.779-4.727-4.25-14.04-3.31-27.8C146.66,397.7,144.728,377.844,134.726,384.135Z" transform="translate(-33.18 -3.239)" fill="#008eff"/>
    </g>
    <g id="Group_1027" data-name="Group 1027" transform="translate(113.269 300.328)">
      <rect id="Rectangle_308" data-name="Rectangle 308" width="532.824" height="368.056" transform="translate(0.015 0.002)" fill="#ffaa01"/>
      <path id="Path_809" data-name="Path 809" d="M609.3,206.9v23.6L342.9,466.611,76.493,230.5V206.9L342.887,443.825Z" transform="translate(-76.476 -206.885)" fill="#f88800"/>
      <g id="Group_1024" data-name="Group 1024" transform="translate(0.015 177.582)">
        <path id="Path_810" data-name="Path 810" d="M291.573,325.8,91.925,503.383H76.492V494L280.1,312.908Z" transform="translate(-76.492 -312.908)" fill="#f88800"/>
      </g>
      <g id="Group_1026" data-name="Group 1026" transform="translate(316.361 177.582)">
        <g id="Group_1025" data-name="Group 1025">
          <path id="Path_811" data-name="Path 811" d="M481.827,495.247v8.137H465L265.35,325.8l11.477-12.9Z" transform="translate(-265.35 -312.908)" fill="#f88800"/>
        </g>
      </g>
      <path id="Path_812" data-name="Path 812" d="M76.483,206.891,342.895,443.832,609.307,206.891Z" transform="translate(-76.483 -206.891)" fill="#fdcc50"/>
    </g>
    <g id="Group_1090" data-name="Group 1090" transform="translate(296.862 68.477)">
      <g id="Group_1041" data-name="Group 1041" transform="translate(89.386 135.449)">
        <g id="Group_1034" data-name="Group 1034" transform="translate(99.74 63.256)">
          <path id="Path_813" data-name="Path 813" d="M312.114,187.1l6.8,14.548-14.373.223L299,188.635Z" transform="translate(-298.995 -187.103)" fill="#f9af8b"/>
          <g id="Group_1033" data-name="Group 1033" transform="translate(1.198 9.838)">
            <g id="Group_1032" data-name="Group 1032">
              <path id="Path_814" data-name="Path 814" d="M313.9,196.777s2.953-3.967,5.3-3.8,20.431,14.548,26.627,15.735,5.621,7.5,3.028,7.5c-7.469,0-48.677.069-48.677.069s-1.246-14.74.33-19.137S309.06,197.817,313.9,196.777Z" transform="translate(-299.711 -192.976)" fill="#008eff"/>
              <g id="Group_1031" data-name="Group 1031" transform="translate(20.487 4.711)">
                <g id="Group_1028" data-name="Group 1028" transform="translate(2.587 2.445)">
                  <path id="Path_815" data-name="Path 815" d="M314.6,203.927a.869.869,0,0,1-1-1.261c.08-.139,1.973-3.425,4.519-4.709a5.985,5.985,0,0,1,6.142.286.868.868,0,1,1-1.035,1.394,4.27,4.27,0,0,0-4.325-.131c-2.077,1.047-3.776,3.99-3.792,4.02A.872.872,0,0,1,314.6,203.927Z" transform="translate(-313.486 -197.248)" fill="#fff"/>
                </g>
                <g id="Group_1029" data-name="Group 1029">
                  <path id="Path_816" data-name="Path 816" d="M313.058,202.468a.868.868,0,0,1-1-1.261c.079-.139,1.971-3.425,4.519-4.709a5.977,5.977,0,0,1,6.141.285.868.868,0,1,1-1.035,1.394,4.268,4.268,0,0,0-4.325-.129c-2.084,1.05-3.774,3.988-3.791,4.018A.867.867,0,0,1,313.058,202.468Z" transform="translate(-311.941 -195.788)" fill="#fff"/>
                </g>
                <g id="Group_1030" data-name="Group 1030" transform="translate(6.093 4.427)">
                  <path id="Path_817" data-name="Path 817" d="M316.7,205.111a.868.868,0,0,1-1-1.261c.079-.139,1.972-3.425,4.519-4.709a5.971,5.971,0,0,1,6.141.286.867.867,0,1,1-1.035,1.392,4.272,4.272,0,0,0-4.325-.129c-2.084,1.05-3.774,3.988-3.791,4.018A.867.867,0,0,1,316.7,205.111Z" transform="translate(-315.579 -198.431)" fill="#fff"/>
                </g>
              </g>
            </g>
          </g>
        </g>
        <g id="Group_1040" data-name="Group 1040">
          <g id="Group_1038" data-name="Group 1038">
            <g id="Group_1037" data-name="Group 1037">
              <g id="Group_1036" data-name="Group 1036">
                <g id="Group_1035" data-name="Group 1035">
                  <path id="Path_818" data-name="Path 818" d="M356.4,217.338l-6.369,2.077-3.539.209-6.084.357c-8.037-6.357-29.722-25.489-33.947-36.771,0,0-27.9,64.88-66.473,64.88-2.5,0,4.111-32.283,10.4-39,0,0,35.555-66.263,58.605-59.231C319.319,153.014,329.76,168.041,356.4,217.338Z" transform="translate(-239.451 -149.339)" fill="#2e3052"/>
                </g>
              </g>
            </g>
          </g>
          <g id="Group_1039" data-name="Group 1039" transform="translate(13.089 24.75)">
            <path id="Path_819" data-name="Path 819" d="M344.761,209.44l-3.539.209c-23.662-17.916-34.623-33.089-39.669-42.808a.741.741,0,0,0-.648-.442.391.391,0,0,0-.362.288c-11.33,26.672-24.926,42.679-34.34,51.416-10.256,9.518-17.761,12.655-18.07,12.787l-.434-1.059-.434-1.055c.072-.032,7.516-3.161,17.5-12.451,9.216-8.576,22.543-24.305,33.682-50.535a2.65,2.65,0,0,1,2.375-1.675,3.01,3.01,0,0,1,2.762,1.672C308.669,175.589,319.94,191.075,344.761,209.44Z" transform="translate(-247.265 -164.115)" fill="#001030"/>
          </g>
          <path id="Path_820" data-name="Path 820" d="M295.917,190.947a20.557,20.557,0,0,0,4.414,5.861s13.625-.63,20.251-3.958l-2.972-6.926A102.119,102.119,0,0,1,295.917,190.947Z" transform="translate(-201.334 -124.643)" fill="#524e84"/>
        </g>
      </g>
      <g id="Group_1055" data-name="Group 1055" transform="translate(98.551 71.026)">
        <g id="Group_1042" data-name="Group 1042">
          <path id="Path_821" data-name="Path 821" d="M348.174,148.6c-19.375,7.893-34.861,11.859-48.039,13.493a.064.064,0,0,0-.027-.005c-.169.005-3.271.258-4.464.209a34.682,34.682,0,0,1-13.226-3.2c-3.466-1.62-8.422-5.8-13.6-10.8-6.419-6.193-13.188-13.623-17.868-18.931-3.642-4.124-6.024-6.968-6.024-6.968,3.231-4.807,10.387-9.179,16.615-11.518,0,0,13,21.638,32.684,32.265q1.606.877,3.275,1.625c4.486-.727,16.623-1.28,21.885-1.655a211.675,211.675,0,0,0,25.906-3.487Z" transform="translate(-244.922 -110.879)" fill="#0077eb"/>
        </g>
        <g id="Group_1054" data-name="Group 1054" transform="translate(94.958 10.834)">
          <g id="Group_1053" data-name="Group 1053">
            <g id="Group_1043" data-name="Group 1043" transform="translate(4.916 1.317)">
              <path id="Path_822" data-name="Path 822" d="M304.546,134.016s2.7-6.816,6.369-8.761,14.117-8.792,16.347-6.744,1.769,11.89-7.6,20.114c-5.965,5.24-11.975,5.017-11.975,5.017Z" transform="translate(-304.546 -118.133)" fill="#f9af8b"/>
            </g>
            <g id="Group_1050" data-name="Group 1050">
              <g id="Group_1044" data-name="Group 1044" transform="translate(0.036 5.25)">
                <path id="Path_823" data-name="Path 823" d="M329.9,123.186l-15.419,14.405a2.244,2.244,0,0,1-2.342.355l-9.449-4.57a1.062,1.062,0,0,1-.568-.581l-.022-.075-.464-1.578,2.506-.951,24.26-9.214,1.315-.5.492,1.67.038.114a.053.053,0,0,1,.005.042A.961.961,0,0,1,329.9,123.186Z" transform="translate(-301.633 -120.481)" fill="#001030"/>
              </g>
              <g id="Group_1045" data-name="Group 1045" transform="translate(2.542 1.602)">
                <path id="Path_824" data-name="Path 824" d="M327.389,122.447l-24.26,9.214,13.72-12.821a2.25,2.25,0,0,1,2.337-.355Z" transform="translate(-303.129 -118.303)" fill="#1f2232"/>
              </g>
              <g id="Group_1047" data-name="Group 1047">
                <g id="Group_1046" data-name="Group 1046">
                  <path id="Path_825" data-name="Path 825" d="M311.681,138.461l-9.456-4.571a.916.916,0,0,1-.243-1.6l15.419-14.4a2.246,2.246,0,0,1,2.337-.353l9.456,4.571a.915.915,0,0,1,.243,1.6l-15.419,14.405A2.253,2.253,0,0,1,311.681,138.461Z" transform="translate(-301.611 -117.347)" fill="#2e3052"/>
                </g>
              </g>
              <g id="Group_1048" data-name="Group 1048" transform="translate(3.277 1.65)" style="mix-blend-mode: screen;isolation: isolate">
                <path id="Path_826" data-name="Path 826" d="M311.507,135.215l-7.323-3.543a.915.915,0,0,1-.245-1.6l11.992-11.2a2.248,2.248,0,0,1,2.338-.353l7.323,3.541a.915.915,0,0,1,.245,1.6l-11.993,11.2A2.252,2.252,0,0,1,311.507,135.215Z" transform="translate(-303.568 -118.332)" fill="#2e3052"/>
              </g>
              <g id="Group_1049" data-name="Group 1049" transform="translate(28.648 7.034)">
                <path id="Path_827" data-name="Path 827" d="M318.726,121.585l-.007,0a.054.054,0,0,0-.005-.042Z" transform="translate(-318.714 -121.546)" fill="#1f2232"/>
              </g>
            </g>
            <g id="Group_1051" data-name="Group 1051" transform="translate(7.374 4.943)">
              <path id="Path_828" data-name="Path 828" d="M309.661,120.347s2.2.342,2.42,2.231-1.819,1.137-3.134.722a3.2,3.2,0,0,0-2.677.214C305.7,124.191,305.8,119.787,309.661,120.347Z" transform="translate(-306.013 -120.298)" fill="#f9af8b"/>
            </g>
            <g id="Group_1052" data-name="Group 1052" transform="translate(20.84 5.795)">
              <path id="Path_829" data-name="Path 829" d="M314.053,130.258a86.783,86.783,0,0,1,6.089-8.759c1.759-2.06,2.657.93,1.452,3.013S318.015,130.844,314.053,130.258Z" transform="translate(-314.053 -120.806)" fill="#f9af8b"/>
            </g>
          </g>
        </g>
      </g>
      <g id="Group_1062" data-name="Group 1062" transform="translate(45.681 65.582)">
        <g id="Group_1058" data-name="Group 1058">
          <g id="Group_1057" data-name="Group 1057">
            <g id="Group_1056" data-name="Group 1056">
              <path id="Path_830" data-name="Path 830" d="M221.451,241.275l-7.64-49.241-.452-2.918.052-2.2,1.7-69.759,19.354-6.541,1.035-.352,4.347-1.472,3.446-1.162,20.432,2.812,3.328.457,1.171.161,14.62,2.013c.136,46.245-4.3,56.235,4.241,93.853C291.391,221.115,275.609,271.367,221.451,241.275Z" transform="translate(-213.359 -107.629)" fill="#008eff"/>
            </g>
          </g>
        </g>
        <g id="Group_1059" data-name="Group 1059" transform="translate(18.005 80.288)">
          <path id="Path_831" data-name="Path 831" d="M225.075,196.32l0,0c15.3-4.273,26.466-14.834,33.136-22.942a87.118,87.118,0,0,0,10.918-16.732.765.765,0,0,0-1.39-.64,85.473,85.473,0,0,1-10.735,16.432c-6.526,7.926-17.436,18.248-32.34,22.409a.765.765,0,0,0,.409,1.474Z" transform="translate(-224.108 -155.561)" fill="#0077eb"/>
        </g>
        <g id="Group_1060" data-name="Group 1060" transform="translate(32.11 105.19)">
          <path id="Path_832" data-name="Path 832" d="M236.786,187.107c13.295-3.65,24.474-14.864,24.98-15.379a.765.765,0,1,0-1.089-1.074c-.131.132-13.285,13.323-27.509,15.689a.765.765,0,0,0,.25,1.509A33.452,33.452,0,0,0,236.786,187.107Z" transform="translate(-232.528 -170.427)" fill="#0077eb"/>
        </g>
        <g id="Group_1061" data-name="Group 1061" transform="translate(22.699 6.765)">
          <path id="Path_833" data-name="Path 833" d="M231.169,128.409c13.286-3.683,24.436-14.926,24.941-15.442a.765.765,0,1,0-1.092-1.07c-.131.132-13.251,13.357-27.471,15.759a.764.764,0,0,0,.255,1.508A34.049,34.049,0,0,0,231.169,128.409Z" transform="translate(-226.91 -111.667)" fill="#0077eb"/>
        </g>
      </g>
      <g id="Group_1076" data-name="Group 1076" transform="translate(50.519 197.806)">
        <g id="Group_1069" data-name="Group 1069" transform="translate(126.704 128.865)">
          <path id="Path_834" data-name="Path 834" d="M303.892,263.5l5.351,11.91-10.972,4.719-6.382-12.3Z" transform="translate(-291.889 -263.498)" fill="#f9af8b"/>
          <g id="Group_1068" data-name="Group 1068" transform="translate(2.817 5.992)">
            <g id="Group_1067" data-name="Group 1067">
              <path id="Path_835" data-name="Path 835" d="M305.712,272.741s1.122-4.814,3.34-5.595,24.539,5.178,30.694,3.792,6.874,3.276,6.764,5.868-45.665,18.935-45.665,18.935-6.956-12.65-7.265-17.31S301.685,275.631,305.712,272.741Z" transform="translate(-293.571 -267.076)" fill="#008eff"/>
              <g id="Group_1066" data-name="Group 1066" transform="translate(20.536 0.501)">
                <g id="Group_1063" data-name="Group 1063" transform="translate(3.348 1.208)">
                  <path id="Path_836" data-name="Path 836" d="M309.257,277.259a.868.868,0,0,1-1.422-.755c.017-.159.439-3.928,2.261-6.121a5.982,5.982,0,0,1,5.745-2.191.868.868,0,1,1-.394,1.69,4.267,4.267,0,0,0-4.017,1.61c-1.484,1.787-1.868,5.164-1.871,5.2A.867.867,0,0,1,309.257,277.259Z" transform="translate(-307.83 -268.096)" fill="#fff"/>
                </g>
                <g id="Group_1064" data-name="Group 1064">
                  <path id="Path_837" data-name="Path 837" d="M307.26,276.538a.868.868,0,0,1-1.424-.755c.017-.159.439-3.928,2.261-6.122a5.98,5.98,0,0,1,5.745-2.189.868.868,0,0,1-.394,1.69,4.267,4.267,0,0,0-4.017,1.608c-1.491,1.8-1.866,5.166-1.869,5.2A.867.867,0,0,1,307.26,276.538Z" transform="translate(-305.831 -267.375)" fill="#fff"/>
                </g>
                <g id="Group_1065" data-name="Group 1065" transform="translate(7.355 1.625)">
                  <path id="Path_838" data-name="Path 838" d="M311.651,277.509a.869.869,0,0,1-1.424-.755c.017-.159.439-3.928,2.261-6.122a5.978,5.978,0,0,1,5.745-2.191.868.868,0,0,1-.394,1.69,4.27,4.27,0,0,0-4.017,1.61c-1.491,1.8-1.868,5.164-1.869,5.2A.871.871,0,0,1,311.651,277.509Z" transform="translate(-310.222 -268.345)" fill="#fff"/>
                </g>
              </g>
            </g>
          </g>
        </g>
        <g id="Group_1075" data-name="Group 1075">
          <g id="Group_1074" data-name="Group 1074">
            <g id="Group_1072" data-name="Group 1072">
              <g id="Group_1071" data-name="Group 1071">
                <g id="Group_1070" data-name="Group 1070">
                  <path id="Path_839" data-name="Path 839" d="M357.717,317.741c-1.137,1.291-4.648,3.251-8.476,4.965-.693.315-1.407.616-2.111.908-1.241.513-2.474.978-3.635,1.375,0,0-26.027-47.972-36.015-82.759,0,0-88.1-10.879-91.15-41.734a16.56,16.56,0,0,1-.013-3.171,22.618,22.618,0,0,1,3.183-9.333c2.01-3.462,32.161-.087,48.453,4.484,0,0,44.163,17.2,60.489,34.928C336.708,236.373,357.717,317.741,357.717,317.741Z" transform="translate(-216.248 -186.566)" fill="#2e3052"/>
                </g>
              </g>
            </g>
            <g id="Group_1073" data-name="Group 1073" transform="translate(0 10.758)">
              <path id="Path_840" data-name="Path 840" d="M349.241,318.37c-.693.315-1.407.616-2.111.908-13.161-21.784-31.439-72.681-35.513-84.9a2.417,2.417,0,0,0-1.849-1.608c-42.8-8.047-67.466-19.273-80.619-27.275a85.5,85.5,0,0,1-12.819-9.338,16.56,16.56,0,0,1-.013-3.171A78.1,78.1,0,0,0,230.6,203.7c12.985,7.851,37.332,18.879,79.6,26.826a4.708,4.708,0,0,1,3.595,3.129C317.86,245.885,336.21,297.01,349.241,318.37Z" transform="translate(-216.248 -192.989)" fill="#001030"/>
            </g>
          </g>
          <path id="Path_841" data-name="Path 841" d="M289.408,269.491l4.156,6.647s10.35-1.789,17.353-8.868l-2.588-5.936S295.74,267.537,289.408,269.491Z" transform="translate(-166.86 -136.095)" fill="#524e84"/>
        </g>
      </g>
      <g id="Group_1077" data-name="Group 1077" transform="translate(0 75.111)">
        <path id="Path_842" data-name="Path 842" d="M218.939,198.881s6,8.129,5.5,12.335-5.923,12.134-10.263,12.516,4.987-10.186,2.786-9.844c-2.663.412-20.645,15.164-24.439,15.164s4.464-6.856,7.682-8.59c0,0-8.508,3.806-10.487,5.786s-3.417-2.266,6.482-8.288c0,0-9.08,5.154-9.7,5.236-2.02.27,3.742-6.487,8.7-8.93,0,0-7.278,3.544-8.018,3.559-1.024.022,1.173-2.36,6.575-5.353,4.859-2.693,12.821-15.062,12.821-15.062Z" transform="translate(-186.088 -56.552)" fill="#f9af8b"/>
        <path id="Path_843" data-name="Path 843" d="M225.263,113.318s-20.179,38.759-24.774,79.3l-2.166,61.558s2.074,4.387,12.357,1.471l9.946-61.551,7.622-28.164S231.712,131.275,225.263,113.318Z" transform="translate(-177.828 -113.318)" fill="#0077eb"/>
      </g>
      <g id="Group_1089" data-name="Group 1089" transform="translate(59.748)">
        <circle id="Ellipse_76" data-name="Ellipse 76" cx="22.297" cy="22.297" r="22.297" transform="matrix(0.284, -0.959, 0.959, 0.284, 0, 44.377)" fill="#2e3052"/>
        <path id="Path_844" data-name="Path 844" d="M269.424,97.68s6.521-.616,6.767-6.8c.211-5.26-6.412-2.995-5.171-6.916s3.064-7.362-1.951-9.283c-4.387-1.682-5.015,1.419-10.181-4.152-6.1-6.58-13.7,4.817-20.055,4.077-9.372-1.094-11.471,3.946-13.126,7.982s1.4,7.61,1.4,7.61Z" transform="translate(-219.423 -68.477)" fill="#2e3052"/>
        <g id="Group_1081" data-name="Group 1081" transform="translate(41.502 36.986)">
          <path id="Path_845" data-name="Path 845" d="M249.921,92.267s4.3-4.022,6.206.27-3.75,14.972-9.593,11.087Z" transform="translate(-246.534 -90.557)" fill="#fc8664"/>
          <g id="Group_1078" data-name="Group 1078" transform="translate(1.552 4.326)">
            <path id="Path_846" data-name="Path 846" d="M247.91,98.624a.542.542,0,0,0,.583-.3c1.6-3.322,5.472-4.1,5.513-4.107a.544.544,0,0,0-.2-1.069,9.359,9.359,0,0,0-6.288,4.705.543.543,0,0,0,.253.725A.563.563,0,0,0,247.91,98.624Z" transform="translate(-247.461 -93.14)" fill="#fd664d"/>
          </g>
          <g id="Group_1080" data-name="Group 1080" transform="translate(3.994 5.883)">
            <g id="Group_1079" data-name="Group 1079">
              <path id="Path_847" data-name="Path 847" d="M250.893,96.883a.545.545,0,0,0,.6-.745,4.964,4.964,0,0,0-1.722-1.975.543.543,0,1,0-.61.9,3.926,3.926,0,0,1,1.328,1.5A.551.551,0,0,0,250.893,96.883Z" transform="translate(-248.918 -94.069)" fill="#fd664d"/>
            </g>
          </g>
        </g>
        <path id="Path_848" data-name="Path 848" d="M232.061,101.572l-1.99,11.263s3.752,5.782,8.226,6.977,8.181-3.705,8.181-3.705l1.915-10.831Z" transform="translate(-216.145 -46.136)" fill="#f9af8b"/>
        <path id="Path_849" data-name="Path 849" d="M231.615,101.572l-.883,5c2.449,3.921,7.714,5.724,15.933,5.956l1.281-7.25Z" transform="translate(-215.699 -46.136)" fill="#fc8664"/>
        <path id="Path_850" data-name="Path 850" d="M227.65,87.467a111.232,111.232,0,0,0-1.055,14.486c.017,1.129.07,2.2.169,3.164.9,8.719,4.317,24,21.962,21.005,7.794-1.322,12.635-8.886,15.617-16.923a81.45,81.45,0,0,0,3.833-15.214,11.947,11.947,0,0,0-4.2-11.06c-8.816-7.285-19.519-7.042-26.787-5.628A11.9,11.9,0,0,0,227.65,87.467Z" transform="translate(-218.495 -63.056)" fill="#f9af8b"/>
        <path id="Path_851" data-name="Path 851" d="M243.441,92.359c-.213,1.2.235,2.286,1,2.422s1.556-.73,1.769-1.933-.234-2.286-1-2.42S243.654,91.156,243.441,92.359Z" transform="translate(-207.155 -53.668)" fill="#2e3052"/>
        <path id="Path_852" data-name="Path 852" d="M233.765,90.65c-.213,1.2.235,2.286,1,2.42s1.556-.729,1.769-1.931-.236-2.286-1-2.422S233.978,89.447,233.765,90.65Z" transform="translate(-213.687 -54.823)" fill="#2e3052"/>
        <path id="Path_853" data-name="Path 853" d="M251.723,89.172s-5.359-3.295-10.134-2.162l.007,2.124a19,19,0,0,1,9.389,2.364C251.445,90.6,251.926,90.216,251.723,89.172Z" transform="translate(-208.37 -56.126)" fill="#2e3052"/>
        <path id="Path_854" data-name="Path 854" d="M232.025,85.541s6.164-1.258,10.261,1.442l-.734,1.993a19,19,0,0,0-9.63-1C231.8,86.976,231.478,86.451,232.025,85.541Z" transform="translate(-215.035 -57.155)" fill="#2e3052"/>
        <g id="Group_1083" data-name="Group 1083" transform="translate(24.986 35.618)">
          <g id="Group_1082" data-name="Group 1082">
            <path id="Path_855" data-name="Path 855" d="M238.791,100.024a5.837,5.837,0,0,1-1.864-.75.544.544,0,0,1,.58-.92c.449.281,1.554.794,2.111.583a.6.6,0,0,0,.352-.452,82.156,82.156,0,0,0,1.124-8.251.543.543,0,1,1,1.082.1,80.6,80.6,0,0,1-1.162,8.449A1.662,1.662,0,0,1,240,99.952,2.3,2.3,0,0,1,238.791,100.024Z" transform="translate(-236.674 -89.741)" fill="#fc8664"/>
          </g>
        </g>
        <path id="Path_856" data-name="Path 856" d="M247.069,99.51c-.826,2.122-2.995,5.913-7.891,5.047s-5.632-4.809-5.653-7.442Z" transform="translate(-213.813 -49.144)" fill="#fff"/>
        <g id="Group_1084" data-name="Group 1084" transform="translate(22.273 56.074)">
          <path id="Path_857" data-name="Path 857" d="M237.719,104.1a5.691,5.691,0,0,1-2.481-1.193.544.544,0,0,1,.717-.817,4.607,4.607,0,0,0,1.953.94,4.386,4.386,0,0,0,2.049-.229.543.543,0,0,1,.4,1.01A5.424,5.424,0,0,1,237.719,104.1Z" transform="translate(-235.054 -101.953)" fill="#fc8664"/>
        </g>
        <path id="Path_858" data-name="Path 858" d="M263.284,105.419c.794-2.136,1.7-4.913,1.665-6.424-.065-2.675-1.936-4.573-.782-6.936s-1.005-5.518-2.868-6.3-6.558-.628-10.643-3.534c-3.9-2.776-11.555-2.637-13.245-.117-2.044,3.049-.112,3.714-4.727,6.586-1.838,1.144-.61,5.179-.767,7.635a16.494,16.494,0,0,1-.407,2.856l-.124.6-4.766-.843c.136-3.827.563-8,1.007-11.472A11.906,11.906,0,0,1,237.17,77.3c7.27-1.414,17.97-1.66,26.789,5.63a11.932,11.932,0,0,1,4.194,11.059,86.85,86.85,0,0,1-2.685,11.821Z" transform="translate(-218.475 -63.056)" fill="#2e3052"/>
        <g id="Group_1088" data-name="Group 1088" transform="translate(2.502 29.528)">
          <path id="Path_859" data-name="Path 859" d="M230.643,94.891a20.362,20.362,0,0,0,.367-3.772c0-1.73-.219-3.34-1.814-4.343a2.977,2.977,0,0,0-4.082.293c-3.263,3.377-2.492,15.819,4.328,14.174Z" transform="translate(-223.251 -86.105)" fill="#f9af8b"/>
          <g id="Group_1086" data-name="Group 1086" transform="translate(2.489 3.565)">
            <g id="Group_1085" data-name="Group 1085">
              <path id="Path_860" data-name="Path 860" d="M227.829,96.114a.546.546,0,0,1-.343-.559c.362-3.67-2.541-6.348-2.571-6.375a.544.544,0,0,1,.729-.807,9.359,9.359,0,0,1,2.925,7.288.543.543,0,0,1-.595.487A.584.584,0,0,1,227.829,96.114Z" transform="translate(-224.737 -88.233)" fill="#fc8664"/>
            </g>
          </g>
          <g id="Group_1087" data-name="Group 1087" transform="translate(2.427 6.693)">
            <path id="Path_861" data-name="Path 861" d="M225.045,91.837a.543.543,0,0,1-.121-.946,4.96,4.96,0,0,1,2.5-.789.543.543,0,0,1,.052,1.084,3.941,3.941,0,0,0-1.913.586A.541.541,0,0,1,225.045,91.837Z" transform="translate(-224.7 -90.1)" fill="#fc8664"/>
          </g>
        </g>
      </g>
    </g>
    <g id="Group_1132" data-name="Group 1132" transform="translate(519.343 239.751)">
      <g id="Group_1091" data-name="Group 1091" transform="translate(0 77.075)">
        <path id="Path_862" data-name="Path 862" d="M408.543,260.1a192.855,192.855,0,0,1-15.978,24.95,65.619,65.619,0,0,1-7.833,8.57c-4.25,3.759-8.392,5.725-11.767,4.057-12.516-6.183-40.416-55.375-40.416-55.375l6.871-7.985s12.417,14.049,21.5,22.457c8.375,7.754,14.814,13.549,14.814,13.549,1.159-1.73,2.4-3.623,3.678-5.628,1.367-2.129,2.784-4.382,4.224-6.7,10.459-16.821,23.05-35.22,23.05-35.22Z" transform="translate(-309.7 -212.667)" fill="#f9af8b"/>
        <path id="Path_863" data-name="Path 863" d="M350.449,243.219s2.833-4.65,1.737-8.816-2.157-13.578-6.709-13.322c-1.662.092.765,4.025-.35,7.668A61.381,61.381,0,0,1,337,223.993c-2.868-2.119-8.807-5.561-11.57-7.134A.856.856,0,0,0,324.231,218c.709,1.2,2.442,2.993,6.447,5.5,0,0-9.951-5.573-11.618-4.348s10.9,7.968,10.9,7.968-10.152-4.1-10.983-2.6c-.5.913,9.451,6.762,9.451,6.762s-9.889-3.054-8.054-.737c.536.675,19.32,9.176,23.235,19.047C343.613,249.588,349.087,246.589,350.449,243.219Z" transform="translate(-318.908 -216.74)" fill="#f9af8b"/>
        <path id="Path_864" data-name="Path 864" d="M373.679,270.855a65.607,65.607,0,0,1-7.833,8.57l-5.32-28.925c1.367-2.129,2.784-4.382,4.225-6.7Z" transform="translate(-290.814 -198.473)" fill="#fc8664"/>
        <path id="Path_865" data-name="Path 865" d="M387.7,222,361.246,260.15l8.417,33.99,20.754-33.109S394.3,238.878,387.7,222Z" transform="translate(-290.328 -213.188)" fill="#008eff"/>
      </g>
      <g id="Group_1101" data-name="Group 1101" transform="translate(83.707 235.772)">
        <path id="Path_866" data-name="Path 866" d="M385.14,417.234v12.042l11.243-.177.734-12.761Z" transform="translate(-357.905 -240.699)" fill="#f9af8b"/>
        <g id="Group_1092" data-name="Group 1092" transform="translate(16.176 0.1)">
          <path id="Path_867" data-name="Path 867" d="M418.14,312.014c-.077,1.429-.466,8.3-1.055,17.886-1.583,26.327-4.548,73.108-6.286,83.619-1.786,10.782-.978,46.143-.4,64.652a11.082,11.082,0,0,1-3.183,8.106,11.817,11.817,0,0,1-2.608,1.993,11.632,11.632,0,0,1-5.65,1.461h-8.57a11.322,11.322,0,0,1-11.441-11.56c.481-15.65,1.07-44.2-.047-66.25-1.07-20.988.481-58.128,1.677-81.275h.015c.481-9.248.9-16.245,1.072-19.1Z" transform="translate(-378.538 -311.542)" fill="#2e3052"/>
        </g>
        <path id="Path_868" data-name="Path 868" d="M380.834,311.542l36.479.472c-.077,1.429-.466,8.3-1.055,17.886-12.387,1.489-25.288,2.114-36.5.745C380.243,321.4,380.663,314.4,380.834,311.542Z" transform="translate(-361.535 -311.442)" fill="#001030"/>
        <g id="Group_1093" data-name="Group 1093" transform="translate(41.82)">
          <path id="Path_869" data-name="Path 869" d="M396.736,445.2c.32,11.838.652,24.076.434,33.942-.062,2.769-.159,5.137-.29,7.169a11.126,11.126,0,0,1-2.618,1.995c.208-2.357.372-5.37.457-9.216.213-9.811-.117-22.017-.437-33.826-.392-14.431-.76-28.064.042-33.866,1.75-12.7,5.665-81.54,6.69-99.917l2.456.107c-1.027,18.367-4.955,87.347-6.717,100.131C395.981,417.33,396.348,430.871,396.736,445.2Z" transform="translate(-393.847 -311.482)" fill="#001030"/>
        </g>
        <g id="Group_1100" data-name="Group 1100" transform="translate(0 185.012)">
          <g id="Group_1099" data-name="Group 1099">
            <g id="Group_1098" data-name="Group 1098">
              <path id="Path_870" data-name="Path 870" d="M399,425.05s-2.327-3.208-4.236-3.114S377.9,433.16,372.844,434s-4.161,4.491-3.28,6.367,40.179.164,40.179.164,1.335-11.421.132-14.948S402.917,425.963,399,425.05Z" transform="translate(-368.881 -421.934)" fill="#008eff"/>
              <g id="Group_1097" data-name="Group 1097" transform="translate(10.886 3.598)">
                <g id="Group_1094" data-name="Group 1094" transform="translate(2.885 1.902)">
                  <path id="Path_871" data-name="Path 871" d="M385.146,430.646a.712.712,0,0,0,.553-.049.686.686,0,0,0,.285-.936,10.705,10.705,0,0,0-3.588-3.828,4.947,4.947,0,0,0-4.995.119.681.681,0,0,0-.168.963.714.714,0,0,0,.983.164,3.527,3.527,0,0,1,3.518-.027,9.465,9.465,0,0,1,3.008,3.266A.694.694,0,0,0,385.146,430.646Z" transform="translate(-377.102 -425.217)" fill="#fff"/>
                </g>
                <g id="Group_1095" data-name="Group 1095" transform="translate(5.031)">
                  <path id="Path_872" data-name="Path 872" d="M386.427,429.513a.72.72,0,0,0,.553-.05.684.684,0,0,0,.285-.936,10.707,10.707,0,0,0-3.588-3.827,4.942,4.942,0,0,0-4.995.119.681.681,0,0,0-.168.963.712.712,0,0,0,.983.164,3.537,3.537,0,0,1,3.518-.027,9.4,9.4,0,0,1,3.008,3.266A.7.7,0,0,0,386.427,429.513Z" transform="translate(-378.383 -424.082)" fill="#fff"/>
                </g>
                <g id="Group_1096" data-name="Group 1096" transform="translate(0 3.418)">
                  <path id="Path_873" data-name="Path 873" d="M383.422,431.552a.711.711,0,0,0,.553-.049.684.684,0,0,0,.286-.936,10.72,10.72,0,0,0-3.588-3.829,4.942,4.942,0,0,0-5,.121.684.684,0,0,0-.167.963.716.716,0,0,0,.985.164,3.525,3.525,0,0,1,3.516-.027,9.429,9.429,0,0,1,3.01,3.265A.693.693,0,0,0,383.422,431.552Z" transform="translate(-375.38 -426.122)" fill="#fff"/>
                </g>
              </g>
            </g>
          </g>
        </g>
      </g>
      <g id="Group_1109" data-name="Group 1109" transform="translate(147.108 235.755)">
        <path id="Path_874" data-name="Path 874" d="M417.829,417.234l1.211,12.023,10.032-.158.734-12.761Z" transform="translate(-399.239 -240.682)" fill="#f9af8b"/>
        <g id="Group_1102" data-name="Group 1102" transform="translate(0 0.682)">
          <path id="Path_875" data-name="Path 875" d="M445.974,411.694c-1.117,22.054-.528,50.6-.047,66.25a11.332,11.332,0,0,1-11.441,11.56h-8.57a11.7,11.7,0,0,1-5.261-1.248,11.362,11.362,0,0,1-6.179-10.312c.575-18.509,1.382-53.87-.4-64.652-1.769-10.692-4.812-58.9-6.38-84.957-.513-8.7-.869-14.92-.961-16.456l36.541.471c.109,1.856.28,4.715.482,8.335C444.934,341.521,447.215,387.405,445.974,411.694Z" transform="translate(-406.731 -311.879)" fill="#2e3052"/>
        </g>
        <path id="Path_876" data-name="Path 876" d="M443.755,320.685a361.437,361.437,0,0,1-36.062,7.65c-.513-8.7-.869-14.92-.961-16.456l36.541.471C443.381,314.206,443.552,317.065,443.755,320.685Z" transform="translate(-406.731 -311.197)" fill="#001030"/>
        <g id="Group_1103" data-name="Group 1103" transform="translate(4.709)">
          <path id="Path_877" data-name="Path 877" d="M418.291,479.1c.085,3.963.258,7.04.471,9.425a11.258,11.258,0,0,1-2.6-1.812c-.147-2.116-.258-4.611-.323-7.561-.213-9.866.119-22.1.437-33.942.389-14.33.754-27.871-.02-33.481-1.762-12.787-5.69-81.8-6.712-100.146l2.451-.109c1.027,18.354,4.941,87.232,6.7,99.934.8,5.8.429,19.436.04,33.866C418.41,457.081,418.078,469.287,418.291,479.1Z" transform="translate(-409.542 -311.472)" fill="#001030"/>
        </g>
        <g id="Group_1108" data-name="Group 1108" transform="translate(17.905 185.416)">
          <path id="Path_878" data-name="Path 878" d="M423.227,423.477a47.391,47.391,0,0,1,6.531-1.312c1.414.029,10.889,10.409,14.08,11.02,5.787,1.111,5.794,9.962,2.273,10.4-10.184,1.273-27.607-2.943-27.607-2.943s-1.606-11.358-.909-14.923S420.381,424.524,423.227,423.477Z" transform="translate(-417.421 -422.165)" fill="#008eff"/>
          <g id="Group_1107" data-name="Group 1107" transform="translate(11.431 3.971)">
            <g id="Group_1104" data-name="Group 1104" transform="translate(1.951 2.094)">
              <path id="Path_879" data-name="Path 879" d="M426.266,430.728a.713.713,0,0,1-.544-.1.681.681,0,0,1-.193-.958,10.761,10.761,0,0,1,3.945-3.474,4.943,4.943,0,0,1,4.962.586.682.682,0,0,1,.072.975.715.715,0,0,1-1,.07,3.524,3.524,0,0,0-3.5-.355,9.529,9.529,0,0,0-3.313,2.968A.7.7,0,0,1,426.266,430.728Z" transform="translate(-425.409 -425.785)" fill="#fff"/>
            </g>
            <g id="Group_1105" data-name="Group 1105">
              <path id="Path_880" data-name="Path 880" d="M425.1,429.478a.708.708,0,0,1-.546-.1.683.683,0,0,1-.193-.958,10.777,10.777,0,0,1,3.945-3.476,4.934,4.934,0,0,1,4.961.588.68.68,0,0,1,.072.973.715.715,0,0,1-.995.072,3.526,3.526,0,0,0-3.5-.357,9.455,9.455,0,0,0-3.313,2.97A.694.694,0,0,1,425.1,429.478Z" transform="translate(-424.245 -424.535)" fill="#fff"/>
            </g>
            <g id="Group_1106" data-name="Group 1106" transform="translate(4.674 3.873)">
              <path id="Path_881" data-name="Path 881" d="M427.892,431.792a.72.72,0,0,1-.544-.1.684.684,0,0,1-.193-.96,10.777,10.777,0,0,1,3.945-3.476,4.938,4.938,0,0,1,4.962.588.681.681,0,0,1,.072.975.716.716,0,0,1-1,.07,3.528,3.528,0,0,0-3.5-.357,9.489,9.489,0,0,0-3.313,2.97A.7.7,0,0,1,427.892,431.792Z" transform="translate(-427.035 -426.847)" fill="#fff"/>
            </g>
          </g>
        </g>
      </g>
      <g id="Group_1115" data-name="Group 1115" transform="translate(92.905 63.082)">
        <g id="Group_1110" data-name="Group 1110">
          <path id="Path_882" data-name="Path 882" d="M473.411,385.343a203.135,203.135,0,0,1-98.9,0c-.172-12.055-.347-60.257.6-99.82.015-.777.035-1.551.055-2.323.007-.382.02-.764.03-1.139V282c.013-.494.024-.98.04-1.467.7-26.091,1.935-47.4,4.039-50.243l0,0c4.915-6.615,29.612-17.181,36.444-21.9.57.9,3.931,5.888,8.335,6.256,4.836.419,9.134-5.156,9.134-5.156v-1.055c6.863,4.715,29.238,14.493,34.146,21.089C472.708,236.751,473.637,364.8,473.411,385.343Z" transform="translate(-374.372 -208.387)" fill="#008eff"/>
        </g>
        <g id="Group_1111" data-name="Group 1111" transform="translate(0.74 57.372)">
          <path id="Path_883" data-name="Path 883" d="M384.874,243.829c-2.836,3.754-6.973,12.258-8.831,16.188-.253.539-.464.993-.623,1.337-.211.451-.327.712-.337.732a.735.735,0,0,1-.27.317c.015-.777.035-1.551.055-2.323.007-.382.02-.764.03-1.139v-.062c.38-.8.831-1.742,1.335-2.774,2.111-4.317,5.124-10.134,7.409-13.163a.777.777,0,0,1,1.07-.157A.74.74,0,0,1,384.874,243.829Z" transform="translate(-374.814 -242.638)" fill="#0077eb"/>
        </g>
        <g id="Group_1112" data-name="Group 1112" transform="translate(34.019 8.486)">
          <path id="Path_884" data-name="Path 884" d="M434.661,234.413h-.025a53.7,53.7,0,0,1-29.412-10.168,51.436,51.436,0,0,1-10.392-9.6.739.739,0,0,1,.157-1.047.773.773,0,0,1,1.069.152c.141.184,14.292,18.4,38.627,19.161a.749.749,0,1,1-.023,1.5Z" transform="translate(-394.681 -213.453)" fill="#0077eb"/>
        </g>
        <g id="Group_1113" data-name="Group 1113" transform="translate(29.052 110.108)">
          <path id="Path_885" data-name="Path 885" d="M392.48,315.816a.748.748,0,0,1-.049-1.5c21.516-1.382,34.352-12.065,41.33-20.784a57.522,57.522,0,0,0,10.129-18.854.764.764,0,0,1,.931-.536.748.748,0,0,1,.549.913A57.887,57.887,0,0,1,435,294.412c-7.172,8.98-20.364,19.983-42.474,21.4Z" transform="translate(-391.716 -274.121)" fill="#0077eb"/>
        </g>
        <g id="Group_1114" data-name="Group 1114" transform="translate(40.605 115.95)">
          <path id="Path_886" data-name="Path 886" d="M399.377,300.077a.763.763,0,0,1-.737-.554.747.747,0,0,1,.538-.918c18.7-4.953,22.307-20.253,22.342-20.406a.763.763,0,0,1,.908-.573.749.749,0,0,1,.586.89,26.479,26.479,0,0,1-4.29,8.829c-3.08,4.3-8.9,9.992-19.148,12.705A.815.815,0,0,1,399.377,300.077Z" transform="translate(-398.613 -277.609)" fill="#0077eb"/>
        </g>
      </g>
      <g id="Group_1116" data-name="Group 1116" transform="translate(186.51 85.697)">
        <path id="Path_887" data-name="Path 887" d="M458.468,360.268c-.471,6.556-4.487,11.424-4.508,15.741s-5.109,1.494-2.752-7.034-1.137-16.774-3-16.7.593,9.61-1.367,12.776-3.441-3.482-5.157-7.593c-1.784-4.268-.786-13.121.831-19.355s-6.317-45.772-5.276-56.912l-2.864-14.454-1.672-8.432-.315-8.8,15.288-5.935c.576,2.826,1.166,5.755,1.75,8.7.258,1.3.511,2.6.76,3.9,2.045,10.539,3.883,20.913,4.632,27.57,2.065,18.41-1.327,55.958-1.327,55.958S458.911,354.12,458.468,360.268Z" transform="translate(-428.815 -207.252)" fill="#f9af8b"/>
        <path id="Path_888" data-name="Path 888" d="M450.185,256.17c-3.447,3.859-8.956,8.772-15.813,10.568l-1.672-8.432-.315-8.8,15.288-5.935c.576,2.826,1.166,5.755,1.75,8.7C449.683,253.568,449.936,254.872,450.185,256.17Z" transform="translate(-428.815 -207.252)" fill="#fc8664"/>
        <path id="Path_889" data-name="Path 889" d="M455.871,262.461a32.309,32.309,0,0,1-5.008,4.444c-3.853,2.831-9.7,5.977-16.705,6.037-.846-24.392-2.092-45-3.9-51.054C433.48,225.789,448.971,245,455.871,262.461Z" transform="translate(-430.254 -221.888)" fill="#008eff"/>
      </g>
      <g id="Group_1117" data-name="Group 1117" transform="translate(179.772 118.004)">
        <path id="Path_890" data-name="Path 890" d="M426.38,242.368c2.833,3.752,6.972,12.256,8.829,16.188.253.539.462.992.623,1.337.211.449.328.712.337.73a.761.761,0,0,0,.7.445h.015c-.008-.382-.02-.764-.032-1.142.226,0,.452,0,.67-.007-.1-.221-.352-.76-.707-1.521-.447-.955-1.067-2.265-1.8-3.756-2.109-4.318-5.126-10.137-7.407-13.163a.774.774,0,0,0-1.07-.157A.739.739,0,0,0,426.38,242.368Z" transform="translate(-426.231 -241.175)" fill="#0077eb"/>
      </g>
      <g id="Group_1131" data-name="Group 1131" transform="translate(117.022)">
        <path id="Path_891" data-name="Path 891" d="M436.074,194.633c0,13.213-8.3,22.318-21.789,22.318s-22.885-9.789-22.885-23,7.985-23.223,21.471-23.223C429.045,170.727,436.074,181.422,436.074,194.633Z" transform="translate(-386.994 -170.727)" fill="#2e3052"/>
        <g id="Group_1124" data-name="Group 1124" transform="translate(44.609 27.146)">
          <path id="Path_892" data-name="Path 892" d="M416.841,189.383s3.747-4.895,6.533-.848-1.152,16-7.973,13.084Z" transform="translate(-415.401 -186.933)" fill="#fc8664"/>
          <g id="Group_1120" data-name="Group 1120" transform="translate(0.912 4.285)">
            <g id="Group_1119" data-name="Group 1119">
              <g id="Group_1118" data-name="Group 1118">
                <path id="Path_893" data-name="Path 893" d="M416.523,196.2a.575.575,0,0,0,.555-.412c1.057-3.69,4.96-5.186,5-5.2a.562.562,0,0,0,.335-.729.581.581,0,0,0-.742-.328c-.183.069-4.484,1.7-5.7,5.953a.566.566,0,0,0,.4.7A.621.621,0,0,0,416.523,196.2Z" transform="translate(-415.945 -189.491)" fill="#fd664d"/>
              </g>
            </g>
          </g>
          <g id="Group_1123" data-name="Group 1123" transform="translate(2.937 6.504)">
            <g id="Group_1122" data-name="Group 1122">
              <g id="Group_1121" data-name="Group 1121">
                <path id="Path_894" data-name="Path 894" d="M419.645,193.444a.593.593,0,0,0,.313-.089.561.561,0,0,0,.173-.781,5.253,5.253,0,0,0-2.164-1.709.581.581,0,0,0-.762.285.56.56,0,0,0,.291.745,4.132,4.132,0,0,1,1.665,1.29A.577.577,0,0,0,419.645,193.444Z" transform="translate(-417.154 -190.816)" fill="#fd664d"/>
              </g>
            </g>
          </g>
        </g>
        <g id="Group_1129" data-name="Group 1129" transform="translate(0 27.146)">
          <path id="Path_895" data-name="Path 895" d="M396.206,189.383s-3.747-4.895-6.533-.848,1.152,16,7.973,13.084Z" transform="translate(-388.769 -186.933)" fill="#fc8664"/>
          <g id="Group_1125" data-name="Group 1125" transform="translate(1.463 4.285)">
            <path id="Path_896" data-name="Path 896" d="M395.568,196.2a.574.574,0,0,1-.554-.412c-1.057-3.69-4.96-5.186-5-5.2a.563.563,0,0,1-.333-.729.581.581,0,0,1,.742-.328c.183.069,4.484,1.7,5.7,5.953a.563.563,0,0,1-.4.7A.622.622,0,0,1,395.568,196.2Z" transform="translate(-389.643 -189.491)" fill="#fd664d"/>
          </g>
          <g id="Group_1128" data-name="Group 1128" transform="translate(2.872 6.504)">
            <g id="Group_1127" data-name="Group 1127">
              <g id="Group_1126" data-name="Group 1126">
                <path id="Path_897" data-name="Path 897" d="M391.06,193.444a.587.587,0,0,1-.312-.089.558.558,0,0,1-.172-.781,5.237,5.237,0,0,1,2.164-1.709.579.579,0,0,1,.76.285.559.559,0,0,1-.29.745,4.133,4.133,0,0,0-1.665,1.29A.58.58,0,0,1,391.06,193.444Z" transform="translate(-390.484 -190.816)" fill="#fd664d"/>
              </g>
            </g>
          </g>
        </g>
        <path id="Path_898" data-name="Path 898" d="M399.229,201.754v11.888s3.618,6.054,8.511,6.466,9.233-5.213,9.233-5.213v-12.3Z" transform="translate(-381.709 -149.782)" fill="#f9af8b"/>
        <path id="Path_899" data-name="Path 899" d="M399.229,201.754v5.275c3.283,3.57,9.114,4.461,17.744,3.213V202.59Z" transform="translate(-381.709 -149.782)" fill="#fc8664"/>
        <path id="Path_900" data-name="Path 900" d="M434.923,197.321a69.648,69.648,0,0,1-.985,7.828c-1.625,8.762-5.29,17.38-13.188,20.146-17.876,6.255-24.268-8.769-26.821-17.526-.281-.972-.533-2.054-.757-3.209-.405-2.087-.72-4.415-.967-6.761-.293-2.844-.487-5.722-.608-8.253a12.365,12.365,0,0,1,8.086-12.141c7.33-2.761,18.467-4.941,29.022.921a12.363,12.363,0,0,1,6.431,10.558C435.181,191.267,435.148,194.18,434.923,197.321Z" transform="translate(-386.87 -168.103)" fill="#f9af8b"/>
        <path id="Path_901" data-name="Path 901" d="M432.456,188.647c-.6,1.077-3.95,11.2-4.885,12.623-2.112-4.556-12.312-1.246-12.312-1.246a6.469,6.469,0,0,1-3.893.017l-.052-.017s-10.318-3.169-12.352,1.6c-.945-1.414-3.854-11.349-4.4-12.982h-2.611c.246,2.345.561,4.673.967,6.761.224,1.156.476,2.238.757,3.209,2.553,8.757,8.945,23.781,26.821,17.526,7.9-2.765,11.563-11.384,13.188-20.146a69.655,69.655,0,0,0,.985-7.827Zm-9.613,18.519v.005h-.007a11.365,11.365,0,0,1-2.4,1.784c-4.529,2.4-5.022,2.037-6.809,2.116a13.7,13.7,0,0,1-6.878-1.834,19.586,19.586,0,0,1-3.27-2.441s-1.837-6.154,9.832-4.611C425.012,200.215,423.037,205.966,422.843,207.167Z" transform="translate(-386.619 -158.952)" fill="#2e3052"/>
        <path id="Path_902" data-name="Path 902" d="M409.312,190.248c0,1.27.668,2.3,1.491,2.3s1.491-1.028,1.491-2.3-.667-2.3-1.491-2.3S409.312,188.978,409.312,190.248Z" transform="translate(-374.902 -159.101)" fill="#2e3052"/>
        <path id="Path_903" data-name="Path 903" d="M398.82,190.22c0,1.268.668,2.3,1.491,2.3s1.492-1.03,1.492-2.3-.668-2.3-1.492-2.3S398.82,188.95,398.82,190.22Z" transform="translate(-381.985 -159.119)" fill="#2e3052"/>
        <path id="Path_904" data-name="Path 904" d="M417.808,185.889s-5.714-2.211-10.111-.35l.439,2.4s6.456-.534,9.708.755A4.083,4.083,0,0,0,417.808,185.889Z" transform="translate(-375.992 -161.231)" fill="#2e3052"/>
        <path id="Path_905" data-name="Path 905" d="M396.879,185.889s5.712-2.211,10.111-.35l-.439,2.4s-6.456-.534-9.709.755A4.083,4.083,0,0,1,396.879,185.889Z" transform="translate(-383.475 -161.231)" fill="#2e3052"/>
        <g id="Group_1130" data-name="Group 1130" transform="translate(24.098 28.993)">
          <path id="Path_906" data-name="Path 906" d="M405.6,199.083a6.232,6.232,0,0,1-2.085-.43.561.561,0,0,1-.317-.735.581.581,0,0,1,.752-.31,3.538,3.538,0,0,0,2.312.214.611.611,0,0,0,.283-.526,83.125,83.125,0,0,0-.348-8.65.577.577,0,0,1,1.149-.092,81.821,81.821,0,0,1,.347,8.858,1.719,1.719,0,0,1-.838,1.379A2.465,2.465,0,0,1,405.6,199.083Z" transform="translate(-403.156 -188.036)" fill="#fc8664"/>
        </g>
        <path id="Path_907" data-name="Path 907" d="M415.192,197.1c-.471,2.322-2.037,6.595-7.312,6.595s-6.771-3.9-7.28-6.595Z" transform="translate(-380.783 -152.923)" fill="#fff"/>
        <path id="Path_908" data-name="Path 908" d="M392.206,197.8h2.613c-.288-2.57-.7-7.1,1.451-7.744,6.807-2.049-2.013-6.762,1.059-9.111s10.72-1.347,16.039-1.516c5.352-.169,13.951-.1,16.039.379s.945,3.873.179,6.511,2.565,5.546,3.124,8.273a11.755,11.755,0,0,1,0,3.208h2.178c.258-3.32.3-6.412.25-8.916a12.37,12.37,0,0,0-6.427-10.561c-10.554-5.863-21.69-3.677-29.022-.915a12.368,12.368,0,0,0-8.089,12.136C391.721,192.075,391.912,194.954,392.206,197.8Z" transform="translate(-386.87 -168.103)" fill="#2e3052"/>
      </g>
    </g>
    <g id="Group_1165" data-name="Group 1165" transform="translate(114.316 318.186)">
      <g id="Group_1164" data-name="Group 1164">
        <g id="Group_1135" data-name="Group 1135" transform="translate(11.737 217.627)">
          <g id="Group_1133" data-name="Group 1133">
            <path id="Path_909" data-name="Path 909" d="M216.72,370.4H84.115c2.191-13.3,12.744-22.968,25.042-22.928l41.26.121,41.26-.121C203.977,347.435,214.528,357.1,216.72,370.4Z" transform="translate(-84.115 -347.475)" fill="#fff"/>
          </g>
          <g id="Group_1134" data-name="Group 1134" transform="translate(10.43 21.024)">
            <rect id="Rectangle_309" data-name="Rectangle 309" width="7.226" height="123.635" fill="#fff"/>
            <rect id="Rectangle_310" data-name="Rectangle 310" width="7.226" height="123.635" transform="translate(104.52)" fill="#fff"/>
            <rect id="Rectangle_311" data-name="Rectangle 311" width="97.294" height="6.968" transform="translate(7.226 34.643)" fill="#dcedf9"/>
          </g>
        </g>
        <g id="Group_1163" data-name="Group 1163">
          <path id="Path_910" data-name="Path 910" d="M114.475,261.8S92.329,291.339,89.381,317.1c-2.08,18.193,25.094,45.377,25.094,45.377l9.36-4.658-9.332-21.04c-3.32-10.246-7.407-14.3-4.387-24.635l6.757-14.571Z" transform="translate(-68.9 -187.681)" fill="#0077eb"/>
          <path id="Path_911" data-name="Path 911" d="M149.71,261.538s21.858,31.493,23.668,57.355c1.561,22.3-25.2,43.759-25.2,43.759l-7.729-3.846,10.7-21.258c3.32-10.246,4.9-16.426.372-27.575l-5.745-12.226Z" transform="translate(-34.347 -187.86)" fill="#0077eb"/>
          <g id="Group_1137" data-name="Group 1137" transform="translate(35.406 66.118)">
            <path id="Path_912" data-name="Path 912" d="M112.925,332.294l-14.68,46.7s63.556,8.106,82.994,2.861l-9.873-50.861,6.836-66.407a94.657,94.657,0,0,0-29.893-7.313c-15.03-1.085-24.524,1.394-39.895,7.759Z" transform="translate(-98.245 -257.025)" fill="#008eff"/>
            <g id="Group_1136" data-name="Group 1136" transform="translate(26.251 8.96)">
              <path id="Path_913" data-name="Path 913" d="M118.234,275.5c14.022-1.645,27.067-11.275,27.66-11.717a.783.783,0,1,0-.936-1.255c-.154.114-15.5,11.439-30.268,11.64a.783.783,0,0,0,.02,1.566A34.94,34.94,0,0,0,118.234,275.5Z" transform="translate(-113.917 -262.374)" fill="#0077eb"/>
            </g>
          </g>
          <g id="Group_1139" data-name="Group 1139" transform="translate(31.231 174.792)">
            <path id="Path_914" data-name="Path 914" d="M123.239,419.576l1.146,10.311,10.967.25.919-8.556Z" transform="translate(-77.198 -255.969)" fill="#f9af8b"/>
            <g id="Group_1138" data-name="Group 1138">
              <path id="Path_915" data-name="Path 915" d="M140.073,322.029s-28.4-1.559-38.017,6.312-7.685,30.452,2.114,36.618,26.5,18.281,26.5,18.281L141.3,488.87l14.04.477s12.936-106.108,6.377-126.657S140.073,322.029,140.073,322.029Z" transform="translate(-95.753 -321.903)" fill="#001030"/>
              <path id="Path_916" data-name="Path 916" d="M138.962,418.822a11.728,11.728,0,0,1-.362,7.235l-16.154-.359a18.575,18.575,0,0,1-.313-7.085Z" transform="translate(-78.081 -256.619)" fill="#2e3052"/>
            </g>
          </g>
          <g id="Group_1140" data-name="Group 1140" transform="translate(34.245 127.174)">
            <path id="Path_917" data-name="Path 917" d="M179.045,340.422H104.523l-6.888-40.275a5.71,5.71,0,0,1,5.63-6.672H180.3a5.71,5.71,0,0,1,5.63,6.672Z" transform="translate(-97.552 -293.475)" fill="#fff"/>
            <path id="Rectangle_312" data-name="Rectangle 312" d="M0,0H74.6a0,0,0,0,1,0,0V5.137a3.621,3.621,0,0,1-3.621,3.621H3.621A3.621,3.621,0,0,1,0,5.137V0A0,0,0,0,1,0,0Z" transform="translate(6.97 46.946)" fill="#dcedf9"/>
            <path id="Path_918" data-name="Path 918" d="M133.139,311.088a6.472,6.472,0,1,1-6.472-6.472A6.472,6.472,0,0,1,133.139,311.088Z" transform="translate(-82.268 -285.954)" fill="#dcedf9"/>
          </g>
          <g id="Group_1142" data-name="Group 1142" transform="translate(27.272 171.609)">
            <path id="Path_919" data-name="Path 919" d="M96.41,402.262l-2.43,10.2,9.84,1.944,4.009-9.112Z" transform="translate(-92.99 -264.473)" fill="#f9af8b"/>
            <g id="Group_1141" data-name="Group 1141">
              <path id="Path_920" data-name="Path 920" d="M155,321.563s-19.019-6.558-30.168,7.214S95.013,458.81,95.013,458.81l12.8,5.283,41.143-103.252s33.5,19.119,37.563-8.06C189.729,331.272,155,321.563,155,321.563Z" transform="translate(-92.293 -320.003)" fill="#2e3052"/>
              <path id="Path_921" data-name="Path 921" d="M111.808,405.113a12.112,12.112,0,0,1-2.688,6.98l-15.73-5.563a19.173,19.173,0,0,1,1.977-7.052Z" transform="translate(-93.389 -266.352)" fill="#524e84"/>
            </g>
          </g>
          <g id="Group_1147" data-name="Group 1147" transform="translate(0 314.543)">
            <path id="Path_922" data-name="Path 922" d="M112.879,408.714s-5.963-3.027-7.72-3.372-16.256,9.941-20.364,9.841c-7.451-.182-9.836,10.757-5.6,12.245,12.248,4.306,34.915,3.772,34.915,3.772s5.034-13.606,5.127-18.2S116.115,410.773,112.879,408.714Z" transform="translate(-77.108 -405.334)" fill="#008eff"/>
            <g id="Group_1146" data-name="Group 1146" transform="translate(9.402 3.387)">
              <g id="Group_1143" data-name="Group 1143" transform="translate(3.844 2.064)">
                <path id="Path_923" data-name="Path 923" d="M94.514,416.238a.909.909,0,0,0,.7.022.864.864,0,0,0,.5-1.134c-.062-.151-1.529-3.7-3.943-5.353a6.252,6.252,0,0,0-6.29-.606.862.862,0,0,0-.352,1.186.9.9,0,0,0,1.211.353,4.463,4.463,0,0,1,4.419.5c1.967,1.345,3.286,4.528,3.3,4.559A.892.892,0,0,0,94.514,416.238Z" transform="translate(-85.016 -408.589)" fill="#fff"/>
              </g>
              <g id="Group_1144" data-name="Group 1144" transform="translate(6.818)">
                <path id="Path_924" data-name="Path 924" d="M96.289,415.008a.916.916,0,0,0,.7.02.863.863,0,0,0,.5-1.132c-.062-.151-1.529-3.705-3.943-5.355a6.246,6.246,0,0,0-6.29-.606.862.862,0,0,0-.352,1.186.9.9,0,0,0,1.211.353,4.463,4.463,0,0,1,4.419.5c1.975,1.352,3.286,4.528,3.3,4.56A.89.89,0,0,0,96.289,415.008Z" transform="translate(-86.791 -407.356)" fill="#fff"/>
              </g>
              <g id="Group_1145" data-name="Group 1145" transform="translate(0 3.533)">
                <path id="Path_925" data-name="Path 925" d="M92.219,417.117a.908.908,0,0,0,.7.022A.865.865,0,0,0,93.415,416c-.06-.149-1.529-3.7-3.941-5.354a6.25,6.25,0,0,0-6.291-.606.862.862,0,0,0-.35,1.186.9.9,0,0,0,1.211.353,4.462,4.462,0,0,1,4.419.5c1.975,1.352,3.286,4.528,3.3,4.559A.892.892,0,0,0,92.219,417.117Z" transform="translate(-82.721 -409.465)" fill="#fff"/>
              </g>
            </g>
          </g>
          <g id="Group_1152" data-name="Group 1152" transform="translate(75.849 346.391)">
            <path id="Path_926" data-name="Path 926" d="M129.188,426.233s6.106-1.853,7.812-1.886,13.618,12.035,17.493,12.623c7.028,1.065,7.452,11.735,3.228,12.432-12.218,2.01-33.419-2.253-33.419-2.253s-2.469-13.617-1.8-17.947S125.807,427.63,129.188,426.233Z" transform="translate(-122.39 -424.347)" fill="#008eff"/>
            <g id="Group_1151" data-name="Group 1151" transform="translate(13.904 4.538)">
              <g id="Group_1148" data-name="Group 1148" transform="translate(2.451 2.432)">
                <path id="Path_927" data-name="Path 927" d="M133.22,434.716a.87.87,0,0,1-.663-.1.825.825,0,0,1-.276-1.147c.082-.131,2.052-3.224,4.591-4.374a5.959,5.959,0,0,1,6.008.474.822.822,0,0,1,.134,1.173.864.864,0,0,1-1.2.132,4.254,4.254,0,0,0-4.235-.266c-2.07.938-3.838,3.708-3.856,3.735A.841.841,0,0,1,133.22,434.716Z" transform="translate(-132.153 -428.508)" fill="#fff"/>
              </g>
              <g id="Group_1149" data-name="Group 1149">
                <path id="Path_928" data-name="Path 928" d="M131.757,433.266a.865.865,0,0,1-.662-.1.825.825,0,0,1-.278-1.147c.082-.132,2.052-3.226,4.591-4.375a5.955,5.955,0,0,1,6.01.476.821.821,0,0,1,.132,1.171.862.862,0,0,1-1.2.132,4.251,4.251,0,0,0-4.235-.265c-2.079.94-3.838,3.707-3.854,3.734A.847.847,0,0,1,131.757,433.266Z" transform="translate(-130.69 -427.056)" fill="#fff"/>
              </g>
              <g id="Group_1150" data-name="Group 1150" transform="translate(5.817 4.45)">
                <path id="Path_929" data-name="Path 929" d="M135.23,435.923a.871.871,0,0,1-.663-.1.825.825,0,0,1-.276-1.147c.084-.131,2.052-3.224,4.593-4.374a5.95,5.95,0,0,1,6.008.474.822.822,0,0,1,.132,1.171.862.862,0,0,1-1.2.132,4.256,4.256,0,0,0-4.235-.265c-2.079.941-3.838,3.707-3.854,3.735A.854.854,0,0,1,135.23,435.923Z" transform="translate(-134.163 -429.712)" fill="#fff"/>
              </g>
            </g>
          </g>
          <g id="Group_1162" data-name="Group 1162" transform="translate(49.938)">
            <path id="Path_930" data-name="Path 930" d="M155.719,222.039s9.039,14,8.047,28.581,1.333,31.412-11.715,30.674-36.32,5.231-43.717-6.126S155.719,222.039,155.719,222.039Z" transform="translate(-106.43 -214.524)" fill="#2e3052"/>
            <path id="Path_931" data-name="Path 931" d="M148.41,237.5s2.345,21.136-7.683,26.955-17.288-.677-17.288-.677S144.579,234.32,148.41,237.5Z" transform="translate(-95.771 -204.247)" fill="#000b29"/>
            <g id="Group_1161" data-name="Group 1161" transform="translate(3.832 10.51)">
              <g id="Group_1155" data-name="Group 1155" transform="translate(0 20.244)">
                <path id="Path_932" data-name="Path 932" d="M116.355,238.315s-3.6-4.8-6.278-.831,1.107,15.7,7.663,12.836Z" transform="translate(-109.208 -235.913)" fill="#fc8664"/>
                <g id="Group_1153" data-name="Group 1153" transform="translate(1.405 4.204)">
                  <path id="Path_933" data-name="Path 933" d="M115.742,245a.554.554,0,0,1-.533-.4c-1.015-3.621-4.767-5.089-4.8-5.1a.553.553,0,1,1,.392-1.035,9.538,9.538,0,0,1,5.479,5.839.555.555,0,0,1-.384.683A.583.583,0,0,1,115.742,245Z" transform="translate(-110.047 -238.422)" fill="#fd664d"/>
                </g>
                <g id="Group_1154" data-name="Group 1154" transform="translate(2.761 6.381)">
                  <path id="Path_934" data-name="Path 934" d="M111.41,242.3a.565.565,0,0,1-.3-.087.556.556,0,0,1-.166-.766,5.061,5.061,0,0,1,2.08-1.677.554.554,0,1,1,.452,1.012,4,4,0,0,0-1.6,1.265A.551.551,0,0,1,111.41,242.3Z" transform="translate(-110.857 -239.722)" fill="#fd664d"/>
                </g>
              </g>
              <g id="Group_1158" data-name="Group 1158" transform="translate(42.874 20.244)">
                <path id="Path_935" data-name="Path 935" d="M136.189,238.315s3.6-4.8,6.28-.831-1.109,15.7-7.665,12.836Z" transform="translate(-134.804 -235.913)" fill="#fc8664"/>
                <g id="Group_1156" data-name="Group 1156" transform="translate(0.877 4.204)">
                  <path id="Path_936" data-name="Path 936" d="M135.883,245a.554.554,0,0,0,.533-.4c1.017-3.621,4.767-5.089,4.806-5.1a.554.554,0,0,0-.394-1.035,9.542,9.542,0,0,0-5.479,5.839.556.556,0,0,0,.384.683A.583.583,0,0,0,135.883,245Z" transform="translate(-135.328 -238.422)" fill="#fd664d"/>
                </g>
                <g id="Group_1157" data-name="Group 1157" transform="translate(2.824 6.381)">
                  <path id="Path_937" data-name="Path 937" d="M138.884,242.3a.552.552,0,0,0,.466-.853,5.049,5.049,0,0,0-2.079-1.677.554.554,0,1,0-.452,1.012,4,4,0,0,1,1.6,1.265A.553.553,0,0,0,138.884,242.3Z" transform="translate(-136.49 -239.722)" fill="#fd664d"/>
                </g>
              </g>
              <path id="Path_938" data-name="Path 938" d="M136.718,250.452v11.662s-3.477,5.94-8.181,6.343-8.874-5.114-8.874-5.114V251.271Z" transform="translate(-102.151 -205.854)" fill="#f9af8b"/>
              <path id="Path_939" data-name="Path 939" d="M136.718,250.452v5.174c-3.156,3.5-8.759,4.744-17.054,3.519l0-7.874Z" transform="translate(-102.151 -205.854)" fill="#fc8664"/>
              <path id="Path_940" data-name="Path 940" d="M154.057,238.474a113.491,113.491,0,0,1-1.513,14.732c-.216,1.131-.461,2.194-.732,3.147-2.454,8.593-8.593,23.33-25.779,17.191-7.59-2.71-11.107-11.164-12.675-19.762a83.19,83.19,0,0,1-1.147-15.957,12.177,12.177,0,0,1,6.178-10.36c10.144-5.75,20.848-3.606,27.895-.9A12.137,12.137,0,0,1,154.057,238.474Z" transform="translate(-107.193 -223.827)" fill="#f9af8b"/>
              <path id="Path_941" data-name="Path 941" d="M121.19,239.33c0,1.245-.642,2.255-1.434,2.255s-1.432-1.01-1.432-2.255.642-2.253,1.432-2.253S121.19,238.085,121.19,239.33Z" transform="translate(-103.055 -214.883)" fill="#2e3052"/>
              <path id="Path_942" data-name="Path 942" d="M131.755,239.33c0,1.245-.642,2.255-1.434,2.255s-1.432-1.01-1.432-2.255.642-2.253,1.432-2.253S131.755,238.085,131.755,239.33Z" transform="translate(-95.923 -214.883)" fill="#2e3052"/>
              <path id="Path_943" data-name="Path 943" d="M118.415,234.316a23.953,23.953,0,0,1,6.129-.92,1.065,1.065,0,0,1,1.062,1.248l0,.017a1.061,1.061,0,0,1-1.1.871c-1.725-.08-6.256.162-8.4,1.028a1.611,1.611,0,0,1,.487-1.139A3.689,3.689,0,0,1,118.415,234.316Z" transform="translate(-104.552 -217.368)" fill="#2e3052"/>
              <path id="Path_944" data-name="Path 944" d="M134.213,234.342a23.894,23.894,0,0,0-6.131-.918,1.065,1.065,0,0,0-1.06,1.248l0,.017a1.06,1.06,0,0,0,1.1.871c1.725-.08,6.255.162,8.394,1.028a1.606,1.606,0,0,0-.487-1.141A3.684,3.684,0,0,0,134.213,234.342Z" transform="translate(-97.195 -217.349)" fill="#2e3052"/>
              <g id="Group_1159" data-name="Group 1159" transform="translate(23.835 22.777)">
                <path id="Path_945" data-name="Path 945" d="M125.5,248.264a2.336,2.336,0,0,1-1.2-.288,1.693,1.693,0,0,1-.806-1.352,81.6,81.6,0,0,1,.333-8.69.554.554,0,1,1,1.1.09,84.211,84.211,0,0,0-.335,8.486.6.6,0,0,0,.273.514,3.325,3.325,0,0,0,2.221-.209.554.554,0,0,1,.419,1.027A5.9,5.9,0,0,1,125.5,248.264Z" transform="translate(-123.438 -237.425)" fill="#fc8664"/>
              </g>
              <path id="Path_946" data-name="Path 946" d="M120.468,245.984c.419,2.107,1.811,5.985,6.5,5.985s6.018-3.543,6.472-5.985Z" transform="translate(-101.608 -208.87)" fill="#fff"/>
              <g id="Group_1160" data-name="Group 1160" transform="translate(22.432 44.546)">
                <path id="Path_947" data-name="Path 947" d="M125.462,252.206a5.533,5.533,0,0,1-2.6-.76.554.554,0,0,1,.581-.943h0a4.454,4.454,0,0,0,2.018.595,4.74,4.74,0,0,0,2.127-.6.554.554,0,0,1,.573.948A5.8,5.8,0,0,1,125.462,252.206Z" transform="translate(-122.601 -250.421)" fill="#fc8664"/>
              </g>
            </g>
            <path id="Path_948" data-name="Path 948" d="M156.843,241.806a1.822,1.822,0,0,1-1.333,1.022,35.478,35.478,0,0,1-.2,4.1c-.685,8.007-2.7,9.414-3.161,7.434a92.423,92.423,0,0,1-.139-11.315,26,26,0,0,1-2.933-.368l-1.858-7.774-.65,7.678c-2.786.968-9.286-.585-9.286-.585l-2.181-7.662-1.348,7.372c-4.178,2.037-9.4.68-9.4.68l-1.2-7.952-2.771,7.952s-8.915,3.2-9.012,0c-.06-1.861,1.3-7.1,2.456-11.161a16.789,16.789,0,0,1,8.1-10.278c11.057-5.936,22.751-2.779,26.762-.384C157.193,225.646,156.843,241.806,156.843,241.806Z" transform="translate(-103.917 -217.553)" fill="#2e3052"/>
            <path id="Path_949" data-name="Path 949" d="M119.285,222.393s-7.338,8.727-9.754,24.317-5.757,27.109,3.637,32.256c10.168,5.571,9.288-5.856,9.141-8.961s-8.794-11.593-3.023-35.5C121.149,226.785,119.285,222.393,119.285,222.393Z" transform="translate(-106.921 -214.285)" fill="#2e3052"/>
            <path id="Path_950" data-name="Path 950" d="M113.278,241.625v.018c0,.116.012.735.055,1.705.023.6.06,1.333.116,2.166.345,5.251,1.367,14.322,4.369,17.467,1.184,1.245,3.469,1.869,6.157,2.122v-4.127a16.335,16.335,0,0,1-6.755-6.273,38.61,38.61,0,0,1-3.737-11.523Z" transform="translate(-102.629 -201.302)" fill="#000b29"/>
            <path id="Path_951" data-name="Path 951" d="M138.311,245.194a1.3,1.3,0,1,1-1.3-1.3A1.3,1.3,0,0,1,138.311,245.194Z" transform="translate(-87.483 -199.769)" fill="#fff"/>
          </g>
        </g>
      </g>
    </g>
    <g id="Group_1227" data-name="Group 1227" transform="translate(41.229 111.849)">
      <g id="Group_1169" data-name="Group 1169" transform="translate(528.687 99.29)">
        <g id="Group_1167" data-name="Group 1167">
          <g id="Group_1166" data-name="Group 1166">
            <rect id="Rectangle_313" data-name="Rectangle 313" width="40.69" height="40.69" rx="2.642" fill="#ffaa01"/>
          </g>
        </g>
        <g id="Group_1168" data-name="Group 1168" transform="translate(6.489 6.489)">
          <path id="Path_952" data-name="Path 952" d="M380.684,171.376A13.855,13.855,0,1,1,366.83,157.52,13.795,13.795,0,0,1,380.684,171.376Z" transform="translate(-352.974 -157.52)" fill="#fdcc50"/>
          <path id="Path_953" data-name="Path 953" d="M376.233,178.5a13.854,13.854,0,0,1-21.365,0l.186-.368a4.892,4.892,0,0,1,2.93-2.464c2.256-.688,4.35-1.385,5.524-3.4a5.976,5.976,0,0,1-2.781-2.965c-1.568.335-2.7-2.566-1.856-3.335a1.236,1.236,0,0,1,.925-.357,5.757,5.757,0,0,1,11.509,0,1.236,1.236,0,0,1,.925.357c.837.769-.288,3.668-1.856,3.335a5.254,5.254,0,0,1-2.578,2.781c1.174,2.015,3.064,2.9,5.32,3.585a4.889,4.889,0,0,1,2.931,2.464Z" transform="translate(-351.695 -155.826)" fill="#fff"/>
        </g>
      </g>
      <g id="Group_1172" data-name="Group 1172" transform="translate(0 315.657)">
        <g id="Group_1171" data-name="Group 1171">
          <g id="Group_1170" data-name="Group 1170">
            <rect id="Rectangle_314" data-name="Rectangle 314" width="40.69" height="40.69" rx="2.642" fill="#ffaa01"/>
          </g>
        </g>
        <path id="Path_954" data-name="Path 954" d="M49.821,286.916a8.9,8.9,0,0,0-8.271,13.427c1.178,1.987,2.394,3.95,3.514,5.97l4.219,7.6,6.436-11.61c.379-.678.786-1.338,1.179-2.008a8.8,8.8,0,0,0,1.218-4.717A8.946,8.946,0,0,0,49.821,286.916Zm-.611,11.58a3.76,3.76,0,1,1,3.761-3.76A3.76,3.76,0,0,1,49.209,298.5Z" transform="translate(-28.866 -280.062)" fill="#fff"/>
      </g>
      <g id="Group_1194" data-name="Group 1194" transform="translate(650.679 81.004)">
        <g id="Group_1173" data-name="Group 1173" transform="translate(45.082 72.377)">
          <path id="Path_955" data-name="Path 955" d="M457.926,185.938a9.083,9.083,0,1,1-9.084,9.082A9.093,9.093,0,0,1,457.926,185.938Zm0,15.317a6.234,6.234,0,1,0-6.235-6.235A6.24,6.24,0,0,0,457.926,201.255Z" transform="translate(-448.842 -185.938)" fill="#008eff"/>
        </g>
        <g id="Group_1174" data-name="Group 1174" transform="translate(12.384 40.511)">
          <path id="Path_956" data-name="Path 956" d="M438.4,166.914A9.083,9.083,0,1,1,429.321,176,9.093,9.093,0,0,1,438.4,166.914Zm0,15.317A6.234,6.234,0,1,0,432.17,176,6.239,6.239,0,0,0,438.4,182.231Z" transform="translate(-429.321 -166.914)" fill="#ffaa01"/>
        </g>
        <g id="Group_1181" data-name="Group 1181">
          <g id="Group_1177" data-name="Group 1177" transform="translate(8.819)">
            <g id="Group_1175" data-name="Group 1175" transform="translate(0 10.995)">
              <path id="Path_957" data-name="Path 957" d="M428.619,149.293a1.425,1.425,0,0,1,1.425,1.425V157a1.425,1.425,0,0,1-2.851,0v-6.283A1.425,1.425,0,0,1,428.619,149.293Z" transform="translate(-427.193 -149.293)" fill="#008eff"/>
            </g>
            <g id="Group_1176" data-name="Group 1176">
              <path id="Path_958" data-name="Path 958" d="M428.619,142.729a1.425,1.425,0,0,1,1.425,1.424v6.285a1.425,1.425,0,0,1-2.851,0v-6.285A1.425,1.425,0,0,1,428.619,142.729Z" transform="translate(-427.193 -142.729)" fill="#008eff"/>
            </g>
          </g>
          <g id="Group_1180" data-name="Group 1180" transform="translate(0 8.638)">
            <g id="Group_1178" data-name="Group 1178">
              <path id="Path_959" data-name="Path 959" d="M423.354,147.886H429a1.425,1.425,0,0,1,0,2.851h-5.645a1.425,1.425,0,0,1,0-2.851Z" transform="translate(-421.928 -147.886)" fill="#008eff"/>
            </g>
            <g id="Group_1179" data-name="Group 1179" transform="translate(11.995)">
              <path id="Path_960" data-name="Path 960" d="M430.515,147.886h5.643a1.425,1.425,0,1,1,0,2.851h-5.643a1.425,1.425,0,1,1,0-2.851Z" transform="translate(-429.089 -147.886)" fill="#008eff"/>
            </g>
          </g>
        </g>
        <g id="Group_1193" data-name="Group 1193" transform="translate(50.154 35.208)">
          <g id="Group_1192" data-name="Group 1192">
            <g id="Group_1186" data-name="Group 1186" transform="translate(8.819)">
              <g id="Group_1183" data-name="Group 1183" transform="translate(0 10.995)">
                <g id="Group_1182" data-name="Group 1182">
                  <path id="Path_961" data-name="Path 961" d="M458.561,170.312a1.425,1.425,0,0,1,1.425,1.425v6.283a1.425,1.425,0,0,1-2.851,0v-6.283A1.425,1.425,0,0,1,458.561,170.312Z" transform="translate(-457.135 -170.312)" fill="#ffaa01"/>
                </g>
              </g>
              <g id="Group_1185" data-name="Group 1185">
                <g id="Group_1184" data-name="Group 1184">
                  <path id="Path_962" data-name="Path 962" d="M458.561,163.748a1.424,1.424,0,0,1,1.425,1.424v6.283a1.425,1.425,0,1,1-2.851,0v-6.283A1.424,1.424,0,0,1,458.561,163.748Z" transform="translate(-457.135 -163.748)" fill="#ffaa01"/>
                </g>
              </g>
            </g>
            <g id="Group_1191" data-name="Group 1191" transform="translate(0 8.638)">
              <g id="Group_1188" data-name="Group 1188">
                <g id="Group_1187" data-name="Group 1187">
                  <path id="Path_963" data-name="Path 963" d="M453.3,168.905h5.643a1.425,1.425,0,1,1,0,2.849H453.3a1.425,1.425,0,1,1,0-2.849Z" transform="translate(-451.87 -168.905)" fill="#ffaa01"/>
                </g>
              </g>
              <g id="Group_1190" data-name="Group 1190" transform="translate(11.995)">
                <g id="Group_1189" data-name="Group 1189">
                  <path id="Path_964" data-name="Path 964" d="M460.456,168.905H466.1a1.425,1.425,0,1,1,0,2.849h-5.643a1.425,1.425,0,1,1,0-2.849Z" transform="translate(-459.031 -168.905)" fill="#ffaa01"/>
                </g>
              </g>
            </g>
          </g>
        </g>
      </g>
      <g id="Group_1220" data-name="Group 1220" transform="translate(86.287)">
        <g id="Group_1195" data-name="Group 1195" transform="translate(46.975 37.399)">
          <path id="Path_965" data-name="Path 965" d="M122.114,116.7a9.083,9.083,0,1,1-9.082,9.082A9.093,9.093,0,0,1,122.114,116.7Zm0,2.849a6.233,6.233,0,1,0,6.235,6.233A6.239,6.239,0,0,0,122.114,119.546Z" transform="translate(-113.032 -116.697)" fill="#008eff"/>
        </g>
        <g id="Group_1199" data-name="Group 1199" transform="translate(13.895 7.395)">
          <g id="Group_1198" data-name="Group 1198">
            <g id="Group_1197" data-name="Group 1197">
              <g id="Group_1196" data-name="Group 1196">
                <path id="Path_966" data-name="Path 966" d="M102.365,98.785a9.083,9.083,0,1,1-9.082,9.082A9.093,9.093,0,0,1,102.365,98.785Zm0,2.849a6.234,6.234,0,1,0,6.235,6.233A6.239,6.239,0,0,0,102.365,101.634Z" transform="translate(-93.283 -98.785)" fill="#ffaa01"/>
              </g>
            </g>
          </g>
        </g>
        <g id="Group_1206" data-name="Group 1206" transform="translate(0 49.071)">
          <g id="Group_1202" data-name="Group 1202" transform="translate(0 8.819)">
            <g id="Group_1200" data-name="Group 1200" transform="translate(10.995)">
              <path id="Path_967" data-name="Path 967" d="M91.552,130.354a1.425,1.425,0,0,0,1.425,1.425h6.283a1.425,1.425,0,0,0,0-2.849H92.977A1.425,1.425,0,0,0,91.552,130.354Z" transform="translate(-91.552 -128.93)" fill="#008eff"/>
            </g>
            <g id="Group_1201" data-name="Group 1201">
              <path id="Path_968" data-name="Path 968" d="M84.988,130.354a1.424,1.424,0,0,0,1.424,1.425h6.283a1.425,1.425,0,1,0,0-2.849H86.412A1.424,1.424,0,0,0,84.988,130.354Z" transform="translate(-84.988 -128.93)" fill="#008eff"/>
            </g>
          </g>
          <g id="Group_1205" data-name="Group 1205" transform="translate(8.638)">
            <g id="Group_1203" data-name="Group 1203">
              <path id="Path_969" data-name="Path 969" d="M90.145,125.089v5.645a1.425,1.425,0,1,0,2.849,0v-5.645a1.425,1.425,0,0,0-2.849,0Z" transform="translate(-90.145 -123.665)" fill="#008eff"/>
            </g>
            <g id="Group_1204" data-name="Group 1204" transform="translate(0 11.993)">
              <path id="Path_970" data-name="Path 970" d="M90.145,132.25V137.9a1.425,1.425,0,0,0,2.849,0V132.25a1.425,1.425,0,1,0-2.849,0Z" transform="translate(-90.145 -130.825)" fill="#008eff"/>
            </g>
          </g>
        </g>
        <g id="Group_1219" data-name="Group 1219" transform="translate(66.535)">
          <g id="Group_1218" data-name="Group 1218">
            <g id="Group_1212" data-name="Group 1212" transform="translate(0 8.819)">
              <g id="Group_1208" data-name="Group 1208" transform="translate(10.995)">
                <g id="Group_1207" data-name="Group 1207">
                  <path id="Path_971" data-name="Path 971" d="M131.273,101.06a1.425,1.425,0,0,0,1.425,1.425h6.283a1.425,1.425,0,1,0,0-2.851H132.7A1.425,1.425,0,0,0,131.273,101.06Z" transform="translate(-131.273 -99.635)" fill="#ffaa01"/>
                </g>
              </g>
              <g id="Group_1211" data-name="Group 1211">
                <g id="Group_1210" data-name="Group 1210">
                  <g id="Group_1209" data-name="Group 1209">
                    <path id="Path_972" data-name="Path 972" d="M124.709,101.06a1.425,1.425,0,0,0,1.425,1.425h6.283a1.425,1.425,0,0,0,0-2.851h-6.283A1.425,1.425,0,0,0,124.709,101.06Z" transform="translate(-124.709 -99.635)" fill="#ffaa01"/>
                  </g>
                </g>
              </g>
            </g>
            <g id="Group_1217" data-name="Group 1217" transform="translate(8.64)">
              <g id="Group_1214" data-name="Group 1214">
                <g id="Group_1213" data-name="Group 1213">
                  <path id="Path_973" data-name="Path 973" d="M129.867,95.8v5.643a1.425,1.425,0,1,0,2.849,0V95.8a1.425,1.425,0,1,0-2.849,0Z" transform="translate(-129.867 -94.37)" fill="#ffaa01"/>
                </g>
              </g>
              <g id="Group_1216" data-name="Group 1216" transform="translate(0 11.995)">
                <g id="Group_1215" data-name="Group 1215">
                  <path id="Path_974" data-name="Path 974" d="M129.867,102.956V108.6a1.425,1.425,0,1,0,2.849,0v-5.643a1.425,1.425,0,1,0-2.849,0Z" transform="translate(-129.867 -101.531)" fill="#ffaa01"/>
                </g>
              </g>
            </g>
          </g>
        </g>
      </g>
      <g id="Group_1226" data-name="Group 1226" transform="translate(455.625 27.653)">
        <g id="Group_1223" data-name="Group 1223" transform="translate(0 23.453)">
          <g id="Group_1221" data-name="Group 1221" transform="translate(86.028)">
            <path id="Path_975" data-name="Path 975" d="M357.749,127.868a1.273,1.273,0,0,0,.6,0c2.156-.531,3.405-.745,3.419-.747a1.138,1.138,0,0,0,.968-1.312,1.2,1.2,0,0,0-1.4-.91c-.054.008-1.342.229-3.6.786a1.125,1.125,0,0,0-.859,1.377A1.168,1.168,0,0,0,357.749,127.868Z" transform="translate(-356.841 -124.88)" fill="#dcedf9"/>
          </g>
          <g id="Group_1222" data-name="Group 1222" transform="translate(0 2.711)">
            <path id="Path_976" data-name="Path 976" d="M317.919,158.206c-1.119,1.916-2.2,3.9-3.2,5.9a1.227,1.227,0,0,1-1.382.613,1.207,1.207,0,0,1-.219-.074,1.1,1.1,0,0,1-.573-1.5c1.027-2.045,2.129-4.072,3.271-6.029a1.242,1.242,0,0,1,1.632-.447A1.1,1.1,0,0,1,317.919,158.206Z" transform="translate(-300.795 -106.224)" fill="#dcedf9"/>
            <path id="Path_977" data-name="Path 977" d="M314.037,165.309c-.868,2.025-1.692,4.119-2.449,6.223a1.218,1.218,0,0,1-1.434.732.921.921,0,0,1-.09-.025,1.114,1.114,0,0,1-.754-1.431c.772-2.144,1.613-4.276,2.5-6.34a1.233,1.233,0,0,1,1.564-.626A1.108,1.108,0,0,1,314.037,165.309Z" transform="translate(-302.941 -101.345)" fill="#dcedf9"/>
            <path id="Path_978" data-name="Path 978" d="M306.387,187.979a1.133,1.133,0,0,1-.894-1.238c.306-2.245.668-4.491,1.075-6.675a1.2,1.2,0,0,1,1.392-.916,1.133,1.133,0,0,1,.977,1.3c-.4,2.151-.757,4.363-1.06,6.575a1.189,1.189,0,0,1-1.345.975A1.038,1.038,0,0,1,306.387,187.979Z" transform="translate(-305.482 -90.968)" fill="#dcedf9"/>
            <path id="Path_979" data-name="Path 979" d="M310.219,171.372a1.121,1.121,0,0,1,.834,1.39c-.295.992-.578,1.993-.844,2.982-.308,1.139-.6,2.3-.881,3.461a1.2,1.2,0,0,1-1.437.853l-.032-.007a1.126,1.126,0,0,1-.876-1.342c.281-1.176.583-2.362.9-3.519.27-1.005.559-2.025.859-3.033a1.213,1.213,0,0,1,1.452-.791Z" transform="translate(-304.489 -96.235)" fill="#dcedf9"/>
            <path id="Path_980" data-name="Path 980" d="M318.739,157.055a1.238,1.238,0,0,1-1.312.491,1.252,1.252,0,0,1-.347-.139,1.087,1.087,0,0,1-.374-1.556c1.281-1.9,2.642-3.789,4.044-5.6a1.252,1.252,0,0,1,1.678-.251,1.084,1.084,0,0,1,.268,1.575C321.324,153.347,319.994,155.192,318.739,157.055Z" transform="translate(-298.03 -110.783)" fill="#dcedf9"/>
            <path id="Path_981" data-name="Path 981" d="M357.049,128.7c-2.193.7-4.417,1.491-6.613,2.342a1.27,1.27,0,0,1-.754.052,1.182,1.182,0,0,1-.816-.663,1.1,1.1,0,0,1,.652-1.474c2.241-.869,4.514-1.673,6.754-2.392a1.224,1.224,0,0,1,1.526.7A1.115,1.115,0,0,1,357.049,128.7Z" transform="translate(-276.258 -126.499)" fill="#dcedf9"/>
            <path id="Path_982" data-name="Path 982" d="M342.888,134.756a1.269,1.269,0,0,1-.881.107,1.184,1.184,0,0,1-.754-.543,1.094,1.094,0,0,1,.462-1.536c2.092-1.094,4.245-2.146,6.4-3.124a1.237,1.237,0,0,1,1.6.524,1.1,1.1,0,0,1-.56,1.508C347.048,132.65,344.939,133.682,342.888,134.756Z" transform="translate(-281.438 -124.441)" fill="#dcedf9"/>
            <path id="Path_983" data-name="Path 983" d="M329.377,144.529a1.263,1.263,0,0,1-1.119.271,1.214,1.214,0,0,1-.58-.323,1.079,1.079,0,0,1,.055-1.595c1.744-1.533,3.566-3.037,5.415-4.471a1.256,1.256,0,0,1,1.692.151,1.084,1.084,0,0,1-.161,1.59C332.867,141.555,331.084,143.028,329.377,144.529Z" transform="translate(-290.718 -118.632)" fill="#dcedf9"/>
            <path id="Path_984" data-name="Path 984" d="M335.829,139.265a1.27,1.27,0,0,1-1,.181,1.207,1.207,0,0,1-.677-.43,1.085,1.085,0,0,1,.266-1.576c1.928-1.317,3.933-2.6,5.958-3.814a1.251,1.251,0,0,1,1.66.343,1.088,1.088,0,0,1-.367,1.558C339.682,136.718,337.719,137.974,335.829,139.265Z" transform="translate(-286.285 -121.808)" fill="#dcedf9"/>
            <path id="Path_985" data-name="Path 985" d="M323.646,150.49a1.25,1.25,0,0,1-1.223.374,1.213,1.213,0,0,1-.469-.224,1.081,1.081,0,0,1-.161-1.588c1.526-1.732,3.132-3.439,4.772-5.077a1.257,1.257,0,0,1,1.7-.049,1.079,1.079,0,0,1,.052,1.595C326.711,147.123,325.14,148.795,323.646,150.49Z" transform="translate(-294.657 -114.942)" fill="#dcedf9"/>
          </g>
        </g>
        <g id="Group_1225" data-name="Group 1225" transform="translate(85.702)">
          <g id="Group_1224" data-name="Group 1224">
            <path id="Path_986" data-name="Path 986" d="M359.076,129.683l-2.43-18.8,63.71,9.137Z" transform="translate(-356.646 -110.879)" fill="#008eff"/>
            <path id="Path_987" data-name="Path 987" d="M419.654,116.332,360.8,130.79l-.156.04-2.956,3.39.686-8.217Z" transform="translate(-355.943 -107.197)" fill="#0077eb"/>
            <path id="Path_988" data-name="Path 988" d="M357.687,128.377l5.289-.066-2.333-3.323Z" transform="translate(-355.943 -101.355)" fill="#0059d3"/>
            <path id="Path_989" data-name="Path 989" d="M366.858,129.009l-7.407,1.819L371.5,147.982l46.964-31.649Z" transform="translate(-354.753 -107.196)" fill="#008eff"/>
          </g>
        </g>
      </g>
    </g>
  </g>
</svg>
