<svg xmlns="http://www.w3.org/2000/svg" width="26.917" height="20.503" viewBox="0 0 26.917 20.503">
  <g id="mail" transform="translate(0 -61)">
    <g id="Group_25" data-name="Group 25" transform="translate(0 61)">
      <path id="Path_134" data-name="Path 134" d="M24.551,61H2.366A2.37,2.37,0,0,0,0,63.366V79.137A2.37,2.37,0,0,0,2.366,81.5H24.551a2.37,2.37,0,0,0,2.366-2.366V63.366A2.37,2.37,0,0,0,24.551,61Zm-.327,1.577L13.509,73.293,2.7,62.577ZM1.577,78.811V63.685l7.6,7.53Zm1.115,1.115,7.6-7.6,2.663,2.64a.789.789,0,0,0,1.113,0l2.6-2.6,7.559,7.559ZM25.34,78.811l-7.559-7.559,7.559-7.559Z" transform="translate(0 -61)" fill="#fff"/>
    </g>
  </g>
</svg>
