<svg xmlns="http://www.w3.org/2000/svg" width="23.831" height="23.816" viewBox="0 0 23.831 23.816">
  <g id="phone-2" transform="translate(-0.413 0.5)">
    <path id="Path_133" data-name="Path 133" d="M5.518,15.167a24.206,24.206,0,0,0,8.051,6.307,12.531,12.531,0,0,0,4.506,1.333c.109,0,.213.009.321.009a3.731,3.731,0,0,0,2.893-1.243.1.1,0,0,0,.019-.024,12.181,12.181,0,0,1,.912-.946c.222-.213.449-.435.667-.662a2.283,2.283,0,0,0-.009-3.4L20.037,13.7a2.3,2.3,0,0,0-1.664-.766,2.377,2.377,0,0,0-1.683.761L15,15.389c-.156-.09-.317-.17-.468-.246a5.846,5.846,0,0,1-.52-.284,17.913,17.913,0,0,1-4.279-3.9A10.315,10.315,0,0,1,8.284,8.657c.444-.4.86-.823,1.262-1.234.142-.147.288-.293.435-.44a2.424,2.424,0,0,0,.785-1.7,2.4,2.4,0,0,0-.785-1.7L8.572,2.17C8.406,2,8.25,1.844,8.09,1.678c-.312-.321-.638-.652-.96-.95A2.357,2.357,0,0,0,5.466,0,2.427,2.427,0,0,0,3.783.733L2.014,2.5A3.633,3.633,0,0,0,.932,4.827a8.75,8.75,0,0,0,.657,3.782A22,22,0,0,0,5.518,15.167ZM2.085,4.926a2.5,2.5,0,0,1,.752-1.607L4.6,1.56a1.273,1.273,0,0,1,.87-.4,1.208,1.208,0,0,1,.851.411c.317.293.615.6.936.927.161.165.326.331.492.5L9.153,4.406A1.284,1.284,0,0,1,9.6,5.29a1.284,1.284,0,0,1-.444.884c-.147.147-.293.3-.44.444-.44.444-.851.865-1.3,1.267l-.024.024a.924.924,0,0,0-.236,1.05c0,.014.009.024.014.038a11.127,11.127,0,0,0,1.659,2.7,18.906,18.906,0,0,0,4.558,4.151,6.767,6.767,0,0,0,.624.34,5.846,5.846,0,0,1,.52.284l.052.028a.988.988,0,0,0,.459.118,1,1,0,0,0,.7-.321l1.768-1.768a1.251,1.251,0,0,1,.865-.421,1.187,1.187,0,0,1,.837.421l2.851,2.846a1.14,1.14,0,0,1-.014,1.782c-.2.213-.407.416-.629.629a13.616,13.616,0,0,0-.988,1.026,2.6,2.6,0,0,1-2.028.86c-.08,0-.165,0-.246-.009a11.384,11.384,0,0,1-4.075-1.22,23,23,0,0,1-7.664-6A21.062,21.062,0,0,1,2.681,8.222,7.625,7.625,0,0,1,2.085,4.926Z" transform="translate(0)" fill="#fff" stroke="#fff" stroke-width="1"/>
  </g>
</svg>
