<svg xmlns="http://www.w3.org/2000/svg" xmlns:xlink="http://www.w3.org/1999/xlink" width="653.265" height="658.993" viewBox="0 0 653.265 658.993">
  <defs>
    <linearGradient id="linear-gradient" x1="1.191" y1="0.814" x2="0.346" y2="0.444" gradientUnits="objectBoundingBox">
      <stop offset="0" stop-color="#444b8c"/>
      <stop offset="0.996" stop-color="#26264f"/>
    </linearGradient>
    <linearGradient id="linear-gradient-2" x1="-1.488" y1="0.926" x2="1.662" y2="0.986" xlink:href="#linear-gradient"/>
    <linearGradient id="linear-gradient-3" x1="0.778" y1="0.288" x2="-0.35" y2="1.081" gradientUnits="objectBoundingBox">
      <stop offset="0" stop-color="#ffc444"/>
      <stop offset="0.996" stop-color="#f36f56"/>
    </linearGradient>
    <linearGradient id="linear-gradient-4" x1="-1.125" y1="-0.902" x2="2.221" y2="1.982" xlink:href="#linear-gradient-3"/>
    <linearGradient id="linear-gradient-5" x1="0.554" y1="1.227" x2="0.438" y2="-0.33" xlink:href="#linear-gradient-3"/>
    <linearGradient id="linear-gradient-6" x1="-0.282" y1="-0.059" x2="3.858" y2="2.9" gradientUnits="objectBoundingBox">
      <stop offset="0" stop-color="#aa80f9"/>
      <stop offset="0.996" stop-color="#6165d7"/>
    </linearGradient>
    <linearGradient id="linear-gradient-7" x1="-0.937" y1="-0.457" x2="3.254" y2="2.308" xlink:href="#linear-gradient-6"/>
    <linearGradient id="linear-gradient-8" x1="-0.283" y1="-0.058" x2="3.863" y2="2.896" xlink:href="#linear-gradient-6"/>
    <linearGradient id="linear-gradient-9" x1="-1.168" y1="-0.438" x2="3.856" y2="2.389" xlink:href="#linear-gradient-6"/>
    <linearGradient id="linear-gradient-10" x1="-1.107" y1="-2.08" x2="3.153" y2="4.908" xlink:href="#linear-gradient-3"/>
    <linearGradient id="linear-gradient-11" x1="-0.757" y1="-0.257" x2="2.773" y2="2.331" xlink:href="#linear-gradient-6"/>
    <linearGradient id="linear-gradient-12" x1="-4.162" y1="-20.699" x2="9.571" y2="41.777" xlink:href="#linear-gradient-6"/>
    <linearGradient id="linear-gradient-13" x1="-1.484" y1="-0.777" x2="3.54" y2="3.31" xlink:href="#linear-gradient-6"/>
    <linearGradient id="linear-gradient-14" x1="-1.125" y1="-0.902" x2="2.221" y2="1.982" gradientUnits="objectBoundingBox">
      <stop offset="0" stop-color="#ff9085"/>
      <stop offset="1" stop-color="#fb6fbb"/>
    </linearGradient>
    <linearGradient id="linear-gradient-15" x1="0.44" y1="0.099" x2="0.689" y2="1.769" xlink:href="#linear-gradient-14"/>
    <linearGradient id="linear-gradient-16" x1="0.578" y1="-0.55" x2="0.157" y2="5.671" xlink:href="#linear-gradient-14"/>
    <linearGradient id="linear-gradient-17" x1="1.059" y1="-0.211" x2="-0.271" y2="1.473" xlink:href="#linear-gradient-14"/>
    <linearGradient id="linear-gradient-18" x1="0.816" y1="-0.291" x2="0.065" y2="1.582" xlink:href="#linear-gradient-14"/>
    <linearGradient id="linear-gradient-19" x1="0.699" y1="-0.43" x2="0.226" y2="1.773" xlink:href="#linear-gradient-14"/>
    <linearGradient id="linear-gradient-20" x1="1.402" y1="-0.175" x2="-0.744" y2="1.426" xlink:href="#linear-gradient-14"/>
    <linearGradient id="linear-gradient-21" x1="1.314" y1="-0.181" x2="-0.622" y2="1.434" xlink:href="#linear-gradient-14"/>
    <linearGradient id="linear-gradient-22" x1="1.494" y1="-0.169" x2="-0.871" y2="1.42" xlink:href="#linear-gradient-14"/>
    <linearGradient id="linear-gradient-23" x1="1.24" y1="-0.187" x2="-0.52" y2="1.443" xlink:href="#linear-gradient-14"/>
    <linearGradient id="linear-gradient-24" x1="0.951" y1="-0.234" x2="-0.122" y2="1.505" xlink:href="#linear-gradient-14"/>
    <linearGradient id="linear-gradient-25" x1="-51.583" y1="0.5" x2="-50.583" y2="0.5" gradientUnits="objectBoundingBox">
      <stop offset="0" stop-color="#40447e"/>
      <stop offset="0.996" stop-color="#3c3b6b"/>
    </linearGradient>
    <linearGradient id="linear-gradient-26" x1="-68.061" y1="0.5" x2="-67.061" y2="0.5" xlink:href="#linear-gradient-25"/>
    <linearGradient id="linear-gradient-27" x1="-97.4" y1="1.086" x2="-96.713" y2="3.067" gradientUnits="objectBoundingBox">
      <stop offset="0" stop-color="#311944"/>
      <stop offset="1" stop-color="#a03976"/>
    </linearGradient>
    <linearGradient id="linear-gradient-28" x1="-126.617" y1="-2.415" x2="-128.19" y2="5.498" xlink:href="#linear-gradient-27"/>
    <linearGradient id="linear-gradient-29" x1="-15.048" y1="0.872" x2="-15.894" y2="0.479" gradientUnits="objectBoundingBox">
      <stop offset="0" stop-color="#ab316d"/>
      <stop offset="1" stop-color="#792d3d"/>
    </linearGradient>
    <linearGradient id="linear-gradient-31" x1="-11.439" y1="0.841" x2="-12.145" y2="0.335" xlink:href="#linear-gradient-29"/>
    <linearGradient id="linear-gradient-32" x1="-11.831" y1="-0.045" x2="-12.187" y2="0.875" xlink:href="#linear-gradient-6"/>
    <linearGradient id="linear-gradient-33" x1="-47.983" y1="1.234" x2="-48.524" y2="0.558" xlink:href="#linear-gradient-27"/>
    <linearGradient id="linear-gradient-34" x1="-8.538" y1="0.116" x2="-8.824" y2="1.45" xlink:href="#linear-gradient-6"/>
    <linearGradient id="linear-gradient-35" x1="-12.774" y1="-0.356" x2="-13.155" y2="0.833" xlink:href="#linear-gradient-6"/>
    <linearGradient id="linear-gradient-36" x1="-50.587" y1="1.51" x2="-49.458" y2="-0.984" xlink:href="#linear-gradient-27"/>
    <linearGradient id="linear-gradient-37" x1="-75.752" y1="2.049" x2="-74.062" y2="-0.19" xlink:href="#linear-gradient-27"/>
    <linearGradient id="linear-gradient-38" x1="-418.751" y1="6.893" x2="-409.451" y2="-3.202" xlink:href="#linear-gradient-27"/>
  </defs>
  <g id="Group_847" data-name="Group 847" transform="translate(-420.106 -342.738)">
    <path id="Path_560" data-name="Path 560" d="M1064.027,783.184c-46.6,52.879-124.383,47.664-124.21,72.591.19,27.525,95.018,32.165,96.787,58.072,2.4,35.1-166.5,102.618-342.827,74.974C633.029,979.3,575.514,970.1,525.9,925.268c-135.972-122.846-36.391-382.892-20.162-425.934,32.076-85.068,71.8-112.495,84.091-121.045,63.953-44.484,137.542-37.175,203.254-30.649,49.758,4.942,124.273,13.349,192.294,69.437a296.178,296.178,0,0,1,60.244,68.354C1101.641,573.04,1126.4,712.407,1064.027,783.184Z" transform="translate(-27.286 0)" fill="#f4f7fa"/>
    <g id="Group_824" data-name="Group 824" transform="translate(510.189 347.087)">
      <g id="Group_822" data-name="Group 822" transform="translate(0 0)">
        <g id="Group_821" data-name="Group 821">
          <path id="Path_561" data-name="Path 561" d="M1137.945,386.924V946.863c0,8.374-7.161,10.445-15.289,11.016L838.943,983.2l-4.376.309a14.962,14.962,0,0,1-16.361-14.916V377.513a15.658,15.658,0,0,1,16.361-15.546l5.938.191,284.68,21.718C1133.31,384.129,1137.945,378.55,1137.945,386.924Z" transform="translate(-818.206 -361.958)" fill="url(#linear-gradient)"/>
          <path id="Path_562" data-name="Path 562" d="M1177.432,386.91V946.543c0,8.369-6.625,15.684-14.743,16.257l-288.3,20.359a14.949,14.949,0,0,1-16.342-14.908V377.5a15.644,15.644,0,0,1,16.342-15.538l288.3,9.254C1170.807,371.481,1177.432,378.541,1177.432,386.91Z" transform="translate(-849.031 -361.958)" fill="url(#linear-gradient-2)"/>
          <path id="Path_563" data-name="Path 563" d="M1203.036,533.876v518.733c0,7.818-6.2,14.64-13.792,15.161l-271.082,18.589a13.941,13.941,0,0,1-15.194-13.914V526.659a14.652,14.652,0,0,1,15.194-14.553l271.082,7.189A14.5,14.5,0,0,1,1203.036,533.876Z" transform="translate(-883.788 -478.126)" fill="url(#linear-gradient-3)"/>
        </g>
        <path id="Path_564" data-name="Path 564" d="M1569.882,441.335a5.191,5.191,0,0,1-5.35,5.239,5.569,5.569,0,0,1-5.36-5.551,5.19,5.19,0,0,1,5.36-5.239A5.569,5.569,0,0,1,1569.882,441.335Z" transform="translate(-1391.504 -419.076)" fill="#de8bdf"/>
      </g>
      <path id="Path_565" data-name="Path 565" d="M1126.367,1946.4l-118.831,4.829V1844.781l118.831-2.973Z" transform="translate(-964.694 -1506.944)" fill="#fff" opacity="0.64"/>
      <path id="Path_566" data-name="Path 566" d="M1743.3,1929.252l-114.016,4.633V1829.639l114.016-2.852Z" transform="translate(-1445.748 -1495.322)" fill="#fff" opacity="0.64"/>
      <path id="Path_567" data-name="Path 567" d="M1126.367,2514.5l-118.831,7.111V2415.167l118.831-5.254Z" transform="translate(-964.694 -1946.497)" fill="#fff" opacity="0.64"/>
      <path id="Path_568" data-name="Path 568" d="M1743.3,2485.827l-114.016,6.823V2388.4l114.016-5.042Z" transform="translate(-1445.748 -1925.954)" fill="#fff" opacity="0.64"/>
      <g id="Group_823" data-name="Group 823" transform="translate(42.842 241.74)" opacity="0.64">
        <path id="Path_569" data-name="Path 569" d="M1084.527,1474.537c0,20.384-17.083,37.262-38.277,37.7-21.327.441-38.714-15.912-38.714-36.529s17.387-37.5,38.714-37.707C1067.444,1437.8,1084.527,1454.154,1084.527,1474.537Z" transform="translate(-1007.536 -1436.251)" fill="#fff"/>
        <path id="Path_570" data-name="Path 570" d="M1489.488,1470.137c0,20.111-16.629,36.759-37.258,37.186-20.757.43-37.678-15.708-37.678-36.046s16.921-36.99,37.678-37.192C1472.858,1433.885,1489.488,1450.026,1489.488,1470.137Z" transform="translate(-1322.452 -1433.221)" fill="#fff"/>
        <path id="Path_571" data-name="Path 571" d="M1883.673,1465.853a36.992,36.992,0,0,1-36.279,36.685,35.643,35.643,0,0,1-36.682-35.575,36.974,36.974,0,0,1,36.682-36.691A35.656,35.656,0,0,1,1883.673,1465.853Z" transform="translate(-1628.968 -1430.27)" fill="#fff"/>
      </g>
    </g>
    <g id="Group_829" data-name="Group 829" transform="translate(420.106 706.344)">
      <g id="Group_825" data-name="Group 825" transform="translate(386.51)">
        <path id="Path_572" data-name="Path 572" d="M2331.157,2135.315l4.271-9.409c1.6-3.527.651-7.762-2.127-9.469l-11.06-6.8a121.879,121.879,0,0,0,6.15-26.752l12.346-.865c3.182-.223,5.754-3.55,5.754-7.431v-10.321c0-3.881-2.572-6.88-5.754-6.7l-12.022.687a113.319,113.319,0,0,0-5.579-26.614l10.166-7.54a6.346,6.346,0,0,0,.9-.815l1.3,3.378,16.7-20.534-21.8-1.86a5.385,5.385,0,0,0-3.6-2.145,5.107,5.107,0,0,0-3.632,1l-10.042,7.3a92.014,92.014,0,0,0-16.574-19.863l.756-1.579,15.349,3.135,1.949-25.41-23.309-3.847c-2.681-1.033-5.712.275-7.187,3.317l-5.793,11.948c-7.444-3.7-1.275-7.6-9.736-8.726l8.85-13.032c0-4.061-25.921-6.767-29.423-6.767h-9.374c-3.548,0-6.433,3.337-6.433,7.454v13.955a83.131,83.131,0,0,0-25.133,8.158l16.01-11.763s-28.2-5.342-31.408-3.222l-8.582,5.67a8.24,8.24,0,0,0-2.483,10.47l6.491,12.561c-7.1,6.326-10.128,9.977-15.5,18.329l-15.078-3.4c-3.331-2.046-7.6-.658-9.541,3.113l-5.165,10.062c-1.949,3.8-.792,8.522,2.578,10.542l12.157,7.287a121.939,121.939,0,0,0-6.638,29.667l-14.584.834c-3.926.225-7.119,3.918-7.119,8.249v11.518c0,3.927,2.629,6.986,6.045,7.319v0l16.574,2.652a110.38,110.38,0,0,0,6.78,24.4l-13.212,9.6a8.679,8.679,0,0,0-2.578,10.87l5.165,9.406c1.936,3.524,32.654,5.668,32.654,5.668l-9.753-13.679a88.482,88.482,0,0,0,18.431,18.449l-7.7,15.879c-1.877,3.872-.763,8.423,2.483,10.154l8.582,4.577a5.544,5.544,0,0,0,1.687.571l-.034.161,26.771,3.3,2.619-20.2a76.18,76.18,0,0,0,9.488.854v17.285a6.506,6.506,0,0,0,3.9,6.354l-.117.5,26.523,3.312.531-32.773a87.779,87.779,0,0,0,14-6.812l7.071,13.683a5.337,5.337,0,0,0,3.889,2.96v.005l25.634,3.469-8.78-24.16-3.542,1.088-5.842-11.455a109.551,109.551,0,0,0,16.26-20.686l11.439,6.858C2325.967,2140.384,2329.545,2138.864,2331.157,2135.315Zm-87.834-8.853c-25.1,2.235-45.91-19.785-45.91-49.234s20.815-54.084,45.91-55c24.477-.9,43.881,21.214,43.881,49.362S2267.8,2124.281,2243.323,2126.462Zm107.182-56.548,17.365-8.219-17.365-2.107Zm-21.316,70.155,19.865,2.68,2.9-6.774-16.457-10Z" transform="translate(-2128.192 -1949.608)" opacity="0.3" fill="url(#linear-gradient-4)" style="mix-blend-mode: multiply;isolation: isolate"/>
        <path id="Path_573" data-name="Path 573" d="M2458.027,2075.634l-11.954.69a113.236,113.236,0,0,0-5.548-26.536l10.109-7.523a8.128,8.128,0,0,0,2.115-9.712l-4.247-8.838c-1.6-3.334-5.16-4.395-7.952-2.359l-9.984,7.281a91.64,91.64,0,0,0-16.479-19.8l5.745-12.034c1.648-3.453.67-7.824-2.189-9.774l-7.647-5.214c-2.891-1.971-6.6-.762-8.28,2.713l-5.76,11.917a75.712,75.712,0,0,0-23.841-7.322v-13.76c0-4.06-2.813-7.349-6.3-7.348l-9.32,0c-3.527,0-6.4,3.331-6.4,7.435v13.915a82.515,82.515,0,0,0-24.989,8.146l-6.226-12.242c-1.83-3.6-5.894-4.809-9.084-2.694l-8.532,5.657a8.234,8.234,0,0,0-2.469,10.441l6.454,12.521a107.327,107.327,0,0,0-18.728,22.086l-11.678-7.19c-3.311-2.039-7.561-.653-9.485,3.108l-5.136,10.035c-1.937,3.787-.787,8.5,2.563,10.51l12.086,7.261a121.889,121.889,0,0,0-6.6,29.583l-14.5.838c-3.9.226-7.078,3.91-7.078,8.228v11.484c0,4.319,3.175,7.6,7.078,7.319l14.885-1.053a111.028,111.028,0,0,0,7.264,28l-13.136,9.579a8.673,8.673,0,0,0-2.563,10.84l5.136,9.376a6.232,6.232,0,0,0,9.485,1.888l13.283-9.886a88.053,88.053,0,0,0,18.324,18.389l-7.655,15.836c-1.866,3.861-.758,8.4,2.469,10.124l8.532,4.561c3.19,1.705,7.254-.029,9.084-3.861l7.589-15.9a75.221,75.221,0,0,0,23.626,4.469v17.236c0,4.1,2.869,7.065,6.4,6.613l9.32-1.193c3.482-.446,6.3-4.1,6.3-8.156v-17.044a85.32,85.32,0,0,0,22.571-9.567l7.031,13.641a5.22,5.22,0,0,0,8.28,1.649l7.647-6.2a8.535,8.535,0,0,0,2.189-10.055l-6.823-13.414a109.261,109.261,0,0,0,16.167-20.633l11.374,6.833c2.792,1.677,6.35.159,7.952-3.38l4.247-9.384c1.592-3.518.648-7.74-2.115-9.441l-11-6.771a121.842,121.842,0,0,0,6.115-26.678l12.276-.868c3.164-.224,5.721-3.542,5.721-7.412v-10.292C2463.748,2078.441,2461.191,2075.451,2458.027,2075.634Zm-96.859,68.731c-24.952,2.239-45.647-19.709-45.647-49.073s20.7-53.937,45.647-54.864c24.337-.9,43.63,21.134,43.63,49.2S2385.505,2142.182,2361.168,2144.365Z" transform="translate(-2219.884 -1963.851)" fill="url(#linear-gradient-5)"/>
      </g>
      <g id="Group_826" data-name="Group 826" transform="translate(0 37.334)" opacity="0.3" style="mix-blend-mode: multiply;isolation: isolate">
        <path id="Path_574" data-name="Path 574" d="M567.167,2296.531q0-14.161-10.21-20.942c-6.858-4.551-19.3-9-37.519-13.374-18.5-4.441-33.357-9.132-44.419-14.053-30.682-13.694-46.316-34.037-46.316-60.769a60.555,60.555,0,0,1,12.594-37.474c8.323-10.991,20.179-19.61,35.461-25.85q22.635-9.238,50.07-9.465,27.152-.25,47.771,8.945,20.415,9.06,31.464,25.713c7.346,11.032-10.711,29.7-10.711,43.969l-28.016-4.02q0-16.66-10.722-25.583c-7.2-5.994-17.4-8.83-30.664-8.479-12.946.342-23.1,3.266-30.4,8.792q-11.02,8.342-11.037,21.473,0,12.257,12.926,19.929c8.539,5.07,21,9.557,37.26,13.448,29.361,6.99,50.294,16.313,63.232,28.006,12.794,11.563,19.138,26.534,19.138,45.01,0,20.542-7.759,37.466-23.434,50.9-15.9,13.627-37.644,22.117-65.576,25.39q-29.685,3.478-54.87-4.237c-17-5.244-30.133-13.664-39.259-25.273q-13.8-17.541-13.82-42.567l56.378-4.66,28.507,4.057s-6.142,35.442,23.064,32.519c12.432-1.243,22.043-4.639,28.9-10.172A26.034,26.034,0,0,0,567.167,2296.531Z" transform="translate(-420.106 -2114.597)" fill="url(#linear-gradient-6)"/>
        <path id="Path_575" data-name="Path 575" d="M1590.5,2210.607l-110.284,37.334v61.368l97.563-9.592,26.7,3.85-143.265,52.446-27.281-8.474V2118.618l143.572-1.528,26.476,3.845-123.762,35.427v54.6l83.684-4.453Z" transform="translate(-1204.52 -2116.526)" fill="url(#linear-gradient-7)"/>
      </g>
      <g id="Group_827" data-name="Group 827" transform="translate(28.705 41.553)">
        <path id="Path_576" data-name="Path 576" d="M693.138,2314.616q0-14.119-10.149-20.876c-6.817-4.535-19.189-8.964-37.3-13.319-18.39-4.42-33.156-9.092-44.153-13.993-30.5-13.64-46.037-33.916-46.037-60.567a60.514,60.514,0,0,1,12.518-37.366c8.273-10.962,20.058-19.56,35.248-25.788q22.5-9.221,49.77-9.459,26.99-.261,47.486,8.9,20.293,9.023,31.278,25.623,10.953,16.494,10.936,37.76l-49.433,2.088q0-16.61-10.659-25.5c-7.161-5.973-17.3-8.8-30.481-8.441-12.868.347-22.966,3.266-30.223,8.78q-10.954,8.321-10.97,21.413,0,12.22,12.849,19.864c8.488,5.052,20.875,9.52,37.037,13.392,29.185,6.957,49.994,16.244,62.856,27.9q19.077,17.284,19.024,44.869c0,20.481-7.713,37.357-23.295,50.761-15.8,13.593-37.42,22.066-65.185,25.339q-29.508,3.478-54.541-4.2c-16.9-5.222-29.951-13.611-39.023-25.182q-13.714-17.483-13.736-42.434L603,2309.5c0,27.74,17.335,39.864,51.262,36.446,12.357-1.245,21.912-4.634,28.729-10.153A26,26,0,0,0,693.138,2314.616Z" transform="translate(-546.96 -2133.241)" fill="url(#linear-gradient-8)"/>
        <path id="Path_577" data-name="Path 577" d="M1683.937,2259.822l-83.2,5.889V2326.9l96.993-9.6v36.12l-143.006,16.649V2136.789l142.731-1.588v36.425l-96.718,2.776v54.441l83.2-4.475Z" transform="translate(-1326.688 -2134.757)" fill="url(#linear-gradient-9)"/>
      </g>
      <g id="Group_828" data-name="Group 828" transform="translate(28.705 48.678)">
        <path id="Path_578" data-name="Path 578" d="M2347,2709.335a101.607,101.607,0,0,0-27.347,3.138c.295.777.589,1.555.9,2.321l-12.937,9.434a8.541,8.541,0,0,0-2.524,10.675l5.058,9.233a6.138,6.138,0,0,0,9.341,1.86l13.082-9.736a86.7,86.7,0,0,0,18.046,18.109l-7.539,15.6c-1.838,3.8-.747,8.271,2.431,9.969l8.4,4.492c3.141,1.679,7.144-.028,8.945-3.8l7.474-15.655a74.075,74.075,0,0,0,23.267,4.4v16.974c0,4.042,2.825,6.958,6.3,6.513l9.178-1.175c3.429-.439,6.2-4.035,6.2-8.032v-16.786a84.007,84.007,0,0,0,22.228-9.421l6.924,13.433a5.139,5.139,0,0,0,8.14,1.635C2410.127,2722.589,2374.032,2710.041,2347,2709.335Z" transform="translate(-1906.54 -2586.075)" opacity="0.3" fill="url(#linear-gradient-10)" style="mix-blend-mode: multiply;isolation: isolate"/>
        <path id="Path_579" data-name="Path 579" d="M603.27,2167.07c-15.19,6.227-26.975,14.825-35.248,25.788a60.514,60.514,0,0,0-12.518,37.366c0,26.651,15.54,46.927,46.037,60.567,11,4.9,25.763,9.573,44.153,13.993,18.106,4.355,30.478,8.784,37.3,13.319q10.164,6.766,10.149,20.876a26,26,0,0,1-10.149,21.176c-6.817,5.519-16.372,8.909-28.729,10.153C620.333,2373.724,603,2361.6,603,2333.861l-56.038,4.668q0,24.915,13.736,42.434c9.072,11.571,22.123,19.96,39.023,25.182q24.995,7.724,54.541,4.2c27.765-3.273,49.384-11.745,65.185-25.339,15.582-13.4,23.295-30.28,23.295-50.761q0-27.633-19.024-44.869c-12.862-11.653-33.671-20.94-62.856-27.9-16.161-3.872-28.549-8.341-37.037-13.392q-12.826-7.631-12.849-19.864,0-13.076,10.97-21.413a35.756,35.756,0,0,1,6.376-3.833c-7.611-8.2-14.628-20.19-18.822-38.252Q606.341,2165.817,603.27,2167.07Z" transform="translate(-546.96 -2164.728)" opacity="0.3" fill="url(#linear-gradient-11)" style="mix-blend-mode: multiply;isolation: isolate"/>
        <path id="Path_580" data-name="Path 580" d="M1189.753,2418.043a42.71,42.71,0,0,1,.895,8.931l49.433-2.087q0-3.8-.353-7.452C1222.593,2415.828,1205.736,2417.5,1189.753,2418.043Z" transform="translate(-1044.3 -2359.725)" fill="url(#linear-gradient-12)"/>
        <path id="Path_581" data-name="Path 581" d="M1571.908,2465.053a97.282,97.282,0,0,0-17.18-9.666V2617.8l143.006-16.649v-36.12l-96.993,9.6v-61.187l8.366-.592C1599.77,2499.007,1595.271,2481.454,1571.908,2465.053Z" transform="translate(-1326.688 -2389.616)" opacity="0.3" fill="url(#linear-gradient-13)" style="mix-blend-mode: multiply;isolation: isolate"/>
      </g>
    </g>
    <g id="Group_830" data-name="Group 830" transform="translate(929.958 579.548)">
      <path id="Path_582" data-name="Path 582" d="M2781.269,1488.075l2.273-5.007a4.031,4.031,0,0,0-1.131-5.038l-5.885-3.615a64.891,64.891,0,0,0,3.272-14.235l6.569-.461c1.693-.119,3.062-1.889,3.062-3.954v-5.492c0-2.065-1.368-3.661-3.062-3.564l-6.4.366a60.292,60.292,0,0,0-2.969-14.161l5.409-4.012a3.381,3.381,0,0,0,.476-.436l.692,1.8,8.885-10.926-11.6-.989a2.865,2.865,0,0,0-1.918-1.141,2.718,2.718,0,0,0-1.933.534l-5.343,3.883a48.964,48.964,0,0,0-8.819-10.569l.4-.841,8.167,1.668,1.037-13.521-12.4-2.047a3.056,3.056,0,0,0-3.824,1.765l-3.082,6.358c-3.962-1.969-.679-4.043-5.181-4.643l4.709-6.934c0-2.161-13.792-3.6-15.656-3.6h-4.988a3.727,3.727,0,0,0-3.423,3.966v7.425a44.237,44.237,0,0,0-13.373,4.341l8.519-6.259s-15.005-2.842-16.712-1.715l-4.566,3.017a4.384,4.384,0,0,0-1.321,5.571l3.454,6.683a39.165,39.165,0,0,0-8.25,9.753l-8.023-1.811a3.588,3.588,0,0,0-5.077,1.656l-2.748,5.354a4.292,4.292,0,0,0,1.372,5.609l6.468,3.878a64.877,64.877,0,0,0-3.532,15.786l-7.76.444a4.284,4.284,0,0,0-3.788,4.389v6.129a3.732,3.732,0,0,0,3.217,3.895v0l8.819,1.411a58.743,58.743,0,0,0,3.608,12.982l-7.03,5.109a4.619,4.619,0,0,0-1.372,5.784l2.748,5c1.03,1.875,17.375,3.016,17.375,3.016l-5.19-7.279a47.074,47.074,0,0,0,9.807,9.817l-4.1,8.449c-1,2.06-.406,4.482,1.321,5.4l4.566,2.436a2.951,2.951,0,0,0,.9.3l-.018.085,14.245,1.755,1.394-10.751a40.451,40.451,0,0,0,5.048.457v9.2a3.462,3.462,0,0,0,2.075,3.381l-.062.269,14.113,1.762.283-17.438a46.659,46.659,0,0,0,7.45-3.625l3.762,7.28a2.84,2.84,0,0,0,2.069,1.575v0l13.64,1.846-4.672-12.855-1.885.579-3.108-6.1a58.276,58.276,0,0,0,8.651-11.007l6.087,3.649C2778.508,1490.773,2780.412,1489.963,2781.269,1488.075Zm-46.736-4.711c-13.353,1.189-24.429-10.527-24.429-26.2s11.075-28.778,24.429-29.266c13.024-.476,23.349,11.288,23.349,26.265S2747.557,1482.2,2734.533,1483.364Zm57.031-30.089,9.24-4.374-9.24-1.121Zm-11.342,37.329,10.57,1.426,1.543-3.6-8.756-5.323Z" transform="translate(-2673.272 -1389.261)" opacity="0.3" fill="url(#linear-gradient-14)" style="mix-blend-mode: multiply;isolation: isolate"/>
      <path id="Path_583" data-name="Path 583" d="M2848.777,1456.32l-6.361.367a60.241,60.241,0,0,0-2.952-14.12l5.378-4a4.325,4.325,0,0,0,1.125-5.168l-2.26-4.7a2.77,2.77,0,0,0-4.231-1.255l-5.312,3.875a48.779,48.779,0,0,0-8.769-10.535l3.057-6.4a4.232,4.232,0,0,0-1.165-5.2l-4.069-2.775a2.976,2.976,0,0,0-4.406,1.444l-3.065,6.341a40.292,40.292,0,0,0-12.686-3.9v-7.322a3.659,3.659,0,0,0-3.35-3.91l-4.959,0a3.714,3.714,0,0,0-3.4,3.956v7.4a43.9,43.9,0,0,0-13.3,4.334l-3.313-6.514a3.3,3.3,0,0,0-4.833-1.433l-4.54,3.01a4.382,4.382,0,0,0-1.314,5.556l3.434,6.662a57.088,57.088,0,0,0-9.965,11.752l-6.214-3.826a3.563,3.563,0,0,0-5.047,1.654l-2.733,5.34a4.286,4.286,0,0,0,1.364,5.593l6.431,3.863a64.856,64.856,0,0,0-3.512,15.741l-7.715.446a4.27,4.27,0,0,0-3.766,4.378v6.111a3.659,3.659,0,0,0,3.766,3.894l7.92-.56a59.089,59.089,0,0,0,3.866,14.9l-6.99,5.1a4.614,4.614,0,0,0-1.364,5.768l2.733,4.989a3.316,3.316,0,0,0,5.047,1l7.068-5.26a46.832,46.832,0,0,0,9.75,9.785l-4.074,8.427c-.993,2.054-.4,4.469,1.314,5.386l4.54,2.427c1.7.907,3.86-.015,4.833-2.055l4.038-8.459a40.021,40.021,0,0,0,12.571,2.378v9.171c0,2.184,1.526,3.759,3.4,3.519l4.959-.635a4.28,4.28,0,0,0,3.35-4.34v-9.069a45.4,45.4,0,0,0,12.01-5.09l3.741,7.258a2.778,2.778,0,0,0,4.406.877l4.069-3.3a4.541,4.541,0,0,0,1.165-5.35l-3.63-7.137a58.137,58.137,0,0,0,8.6-10.979l6.052,3.636c1.485.893,3.379.085,4.231-1.8l2.26-4.993c.847-1.872.344-4.119-1.125-5.023l-5.851-3.6a64.888,64.888,0,0,0,3.253-14.2l6.532-.462c1.683-.119,3.044-1.884,3.044-3.944v-5.476C2851.821,1457.813,2850.46,1456.222,2848.777,1456.32Zm-51.539,36.572c-13.276,1.191-24.288-10.487-24.288-26.112s11.012-28.7,24.288-29.192c12.95-.481,23.216,11.245,23.216,26.18S2810.188,1491.729,2797.238,1492.891Z" transform="translate(-2722.062 -1396.84)" fill="url(#linear-gradient-15)"/>
    </g>
    <g id="Group_833" data-name="Group 833" transform="translate(557.937 393.668)">
      <g id="Group_831" data-name="Group 831" transform="translate(0 0)">
        <path id="Path_584" data-name="Path 584" d="M1029.216,651.5V802.928a8.682,8.682,0,0,0,8.7,8.915l272.041-5.879c4.016-.087,7.263-3.872,7.263-8.455V659.465Z" transform="translate(-1029.216 -632.56)" fill="#fff" opacity="0.64"/>
        <path id="Path_585" data-name="Path 585" d="M1309.952,576.948l-272.041-9.131a8.559,8.559,0,0,0-8.7,8.811v15.517l288,7.491V585.49C1317.216,580.907,1313.968,577.083,1309.952,576.948Z" transform="translate(-1029.216 -567.812)" fill="url(#linear-gradient-16)"/>
        <path id="Path_586" data-name="Path 586" d="M1090.961,608.657a3.8,3.8,0,0,1-3.834,3.913,4.08,4.08,0,0,1-3.843-4.142,3.8,3.8,0,0,1,3.843-3.912A4.082,4.082,0,0,1,1090.961,608.657Z" transform="translate(-1071.05 -596.209)" fill="#fff"/>
      </g>
      <g id="Group_832" data-name="Group 832" transform="translate(37.835 46.65)">
        <path id="Path_587" data-name="Path 587" d="M1218.047,885.973l-21.628.335V773.973l21.628.419Z" transform="translate(-1196.419 -773.973)" fill="#fff"/>
        <path id="Path_588" data-name="Path 588" d="M1218.047,1087.713l-21.628.335v-53.334l21.628.023Z" transform="translate(-1196.419 -975.713)" fill="url(#linear-gradient-17)"/>
        <path id="Path_589" data-name="Path 589" d="M1350.282,887.5l-21.228.329V776.543l21.228.411Z" transform="translate(-1299.041 -775.961)" fill="#fff"/>
        <path id="Path_590" data-name="Path 590" d="M1350.282,1177.171l-21.228.329v-26.419l21.228-.153Z" transform="translate(-1299.041 -1065.63)" fill="url(#linear-gradient-18)"/>
        <path id="Path_591" data-name="Path 591" d="M1480.078,889l-20.839.323V779.067l20.839.4Z" transform="translate(-1399.767 -777.914)" fill="#fff"/>
        <path id="Path_592" data-name="Path 592" d="M1480.078,1218.234l-20.839.323v-13.742l20.839-.233Z" transform="translate(-1399.767 -1107.143)" fill="url(#linear-gradient-19)"/>
        <path id="Path_593" data-name="Path 593" d="M1607.5,890.479l-20.461.317V781.544l20.461.4Z" transform="translate(-1498.65 -779.831)" fill="#fff"/>
        <path id="Path_594" data-name="Path 594" d="M1607.5,971.4l-20.461.317V886.13l20.461.242Z" transform="translate(-1498.65 -860.75)" fill="url(#linear-gradient-20)"/>
        <path id="Path_595" data-name="Path 595" d="M1732.619,891.926l-20.093.312V783.976l20.093.39Z" transform="translate(-1595.74 -781.712)" fill="#fff"/>
        <path id="Path_596" data-name="Path 596" d="M1732.619,1005.066l-20.093.311V930.2l20.093.175Z" transform="translate(-1595.74 -894.852)" fill="url(#linear-gradient-21)"/>
        <path id="Path_597" data-name="Path 597" d="M1855.49,893.348l-19.735.306V786.365l19.735.382Z" transform="translate(-1691.085 -783.561)" fill="#fff"/>
        <path id="Path_598" data-name="Path 598" d="M1855.49,946.688l-19.735.306V855.3l19.735.282Z" transform="translate(-1691.085 -836.901)" fill="url(#linear-gradient-22)"/>
        <path id="Path_599" data-name="Path 599" d="M1976.176,894.744l-19.386.3V788.711l19.386.376Z" transform="translate(-1784.732 -785.376)" fill="#fff"/>
        <path id="Path_600" data-name="Path 600" d="M1976.176,1035l-19.386.3V969.984l19.386.115Z" transform="translate(-1784.732 -925.63)" fill="url(#linear-gradient-23)"/>
        <path id="Path_601" data-name="Path 601" d="M2094.736,896.115l-19.046.3V791.016l19.046.369Z" transform="translate(-1876.726 -787.159)" fill="#fff"/>
        <path id="Path_602" data-name="Path 602" d="M2094.736,1131.152l-19.046.3v-36.591l19.046-.065Z" transform="translate(-1876.726 -1022.196)" fill="url(#linear-gradient-24)"/>
      </g>
    </g>
    <g id="Group_836" data-name="Group 836" transform="translate(668.742 496.48)">
      <path id="Path_603" data-name="Path 603" d="M2055.981,2079.786c2.342,2.364,3.292,4.9,2.441,6.388-.588,1.028-1.888,1.3-3.312,1.569-2.249.431-4.594.315-9.415-1.046-4.5-1.271-7.146-2.018-7.148-3.1,0-1.012,2.312-1.8,4.343-2.488a25.407,25.407,0,0,1,7.12-1.324Z" transform="translate(-1920.957 -1840.464)" fill="url(#linear-gradient-25)"/>
      <path id="Path_604" data-name="Path 604" d="M1770.443,1910.383a4.514,4.514,0,0,1,2.768,2.587c.569,2.1-1.671,4.26-5.254,7.635-2.688,2.532-6.319,5.953-7.583,5.09-.774-.528-.316-2.429.109-4.2a23.658,23.658,0,0,1,4.451-9.034Z" transform="translate(-1705.407 -1709.395)" fill="url(#linear-gradient-26)"/>
      <path id="Path_605" data-name="Path 605" d="M2074.6,2056.77l5.041,5.59a1.043,1.043,0,0,1-.486,1.7,7.747,7.747,0,0,1-4.056.158,1.951,1.951,0,0,1-.815-.5l-5.031-4.913Z" transform="translate(-1944.716 -1822.657)" fill="url(#linear-gradient-27)"/>
      <path id="Path_606" data-name="Path 606" d="M1779.607,1895.467l2.718,3.917a1.135,1.135,0,0,1-.391,1.643,9.605,9.605,0,0,1-1.344.62,2.047,2.047,0,0,1-2.232-.556l-2.948-3.319Z" transform="translate(-1717.363 -1697.854)" fill="url(#linear-gradient-28)"/>
      <path id="Path_607" data-name="Path 607" d="M1883.7,1499.408a95.07,95.07,0,0,0-7.587,22.935,102.778,102.778,0,0,0,3.479,49.611,106.042,106.042,0,0,0,28.423,44.715,19.229,19.229,0,0,1-11.712,4.543c-22.258-15.889-33.052-33.891-37.952-43.688-16.531-33.052-12.384-65.5-5.158-79.223,2.373-4.506,5.053-6.947,8.089-8.032C1871.03,1486.784,1882.328,1498.007,1883.7,1499.408Z" transform="translate(-1772.649 -1383.828)" fill="url(#linear-gradient-29)"/>
      <path id="Path_608" data-name="Path 608" d="M1853.2,1498.3c2.373-4.506,5.053-6.947,8.089-8.032,9.743-3.484,21.041,7.739,22.417,9.14a95.2,95.2,0,0,0-7.5,22.533c-6.807,1.6-16.317,5.4-20.951,14.369-7.5,14.516,3.282,31.913,5.518,35.523,4.923,7.946,7.9,7.2,15.175,18.624,5.492,8.628,5.911,12.384,10.691,16.554,5.62,4.9,12.639,6.34,18.306,6.652,1.112,1.13,2.148,2.133,3.077,3a19.229,19.229,0,0,1-11.712,4.543c-22.258-15.889-33.052-33.891-37.952-43.688C1841.824,1544.471,1845.971,1512.023,1853.2,1498.3Z" transform="translate(-1772.649 -1383.828)" opacity="0.3" fill="url(#linear-gradient-29)" style="mix-blend-mode: multiply;isolation: isolate"/>
      <path id="Path_609" data-name="Path 609" d="M1703.816,1479.658a38.487,38.487,0,0,1-6.725,9.656c-8.737,9.11-16.906,8.248-26.161,15.753-1.141.925-9.338,7.723-12.366,17.641-5.828,19.091,11.108,37.918,12.983,39.944a20.363,20.363,0,0,1-10.324,5.123c-24.282-22.187-36.146-49.072-28.066-66.543,4.407-9.529,14.842-16.458,22.548-21.575a100.566,100.566,0,0,1,32.456-14.023Z" transform="translate(-1605.35 -1365.285)" fill="url(#linear-gradient-31)"/>
      <path id="Path_610" data-name="Path 610" d="M1851.844,1183.875c-.366,10.736,2.123,16.3-1.363,25.066a34.35,34.35,0,0,1-9.8,13.313,41.783,41.783,0,0,0,37.608,22.551,84.18,84.18,0,0,0,30.424-26.162c6.724-9.537,14.106-20.008,12.153-33.357-2.481-16.958-18.195-26.017-22.65-28.586-2.932-1.69-23.184-13.366-35.562-4.784C1852.7,1158.816,1852.117,1175.844,1851.844,1183.875Z" transform="translate(-1767.862 -1120.143)" fill="url(#linear-gradient-32)"/>
      <path id="Path_611" data-name="Path 611" d="M1535.189,1328.178a7.4,7.4,0,0,0-2.274-3.708c-.823-.83-.991-.7-1.528-1.379-1.351-1.71-1.025-3.476-1.544-3.535-.452-.052-1.245,1.22-1.191,2.536.06,1.47,1.135,1.909.932,2.724-.285,1.146-2.832,1.979-5.087,1.552-2.615-.5-3.891-2.6-4.915-2.069-.743.388-.7,1.775-.69,1.9.114,2.6,3.591,5.334,6.984,5.691,1.953.205,2.684-.5,5,.086,1.537.39,2.074.92,2.845.6C1534.987,1332.057,1535.5,1329.836,1535.189,1328.178Z" transform="translate(-1518.891 -1252.26)" fill="url(#linear-gradient-33)"/>
      <path id="Path_612" data-name="Path 612" d="M1578.9,1196.112c20.909,1.448,33.4-3.991,40.926-9.2,17.078-11.811,20.43-30.588,40.236-35.638,3.612-.921,9.9-2.525,13.336.69,7.133,6.68-1.278,31.165-16.095,46.214a59.822,59.822,0,0,1-34.515,17.573c-24.936,3.364-42.823-10.708-45.909-13.219a3.947,3.947,0,0,1-.767-4A4.133,4.133,0,0,1,1578.9,1196.112Z" transform="translate(-1562.972 -1121.114)" fill="url(#linear-gradient-34)"/>
      <path id="Path_613" data-name="Path 613" d="M1905.773,1302.462c5.888-5.577,3.1-9.033,10.346-20.233,7.381-11.41,12.694-11.621,16.095-19.313,1.759-3.979,2.845-9.694.906-17.9a32.411,32.411,0,0,1,6.263,14.716c1.954,13.349-5.429,23.82-12.153,33.357a84.178,84.178,0,0,1-30.424,26.162,42.346,42.346,0,0,1-23.489-6.88,41.527,41.527,0,0,1-8.7-7.673,38.829,38.829,0,0,0,10.579,3.977C1877.157,1309.094,1894.983,1312.683,1905.773,1302.462Z" transform="translate(-1786.383 -1194.585)" opacity="0.3" fill="url(#linear-gradient-35)" style="mix-blend-mode: multiply;isolation: isolate"/>
      <path id="Path_614" data-name="Path 614" d="M2032.782,1128.071l1.7,5.755a9.232,9.232,0,0,0,3.162,4.65l4.52,3.539s-13.786-2.314-20.379-8.738l4.026-1.27a1.017,1.017,0,0,0,.711-.97v-4.231Z" transform="translate(-1907.992 -1103.127)" fill="url(#linear-gradient-36)"/>
      <g id="Group_835" data-name="Group 835" transform="translate(111.838)">
        <g id="Group_834" data-name="Group 834">
          <path id="Path_615" data-name="Path 615" d="M2022.553,1087.42c-.656-.146-5.415.633-6.768-1.654-1.837-3.1-.009-8.067.175-8.833.772-3.209,1.06-3.7,1.656-4.375l.842-.891s.052-.039.108-.077a12.076,12.076,0,0,1,3.244-1.081c1.508-.076,4.577,5.332,6.334,13.665q.214.446.424.9C2028.932,1085.866,2022.6,1087.723,2022.553,1087.42Z" transform="translate(-2014.556 -1059.569)" fill="url(#linear-gradient-37)"/>
          <path id="Path_616" data-name="Path 616" d="M2013.453,1032.716c.687,2.544,2.612,4.943,3.339,5.217a4.384,4.384,0,0,1,1.19.761,1.335,1.335,0,0,1,.225.262c.986,1.456-1.062,4.024-.378,4.611.5.426,2.044-.733,2.37-.338.307.372-.9,1.633-.544,2.081.269.339,1.062-.248,1.777.189.357.218.336.471.87,1.286a8.4,8.4,0,0,0,.946,1.21c1.279,1.26,3.916,1.142,4.236.416.089-.2-.063-.312-.076-.908a4.61,4.61,0,0,1,.189-1.248c.287-.994,1.368-1.938,2.383-3.177a8.533,8.533,0,0,0,2.192-4.423c.022-.19.029-.33.034-.432a9.793,9.793,0,0,0-1.924-6.265c-2.17-2.463-5-.265-8.358-2.383-3.876-2.443-3.266-7.359-5.031-7.413C2014.95,1022.1,2012.183,1028.012,2013.453,1032.716Z" transform="translate(-2013.131 -1022.163)" fill="#26264f"/>
          <path id="Path_617" data-name="Path 617" d="M2035.879,1111.14c.4-1.024,1.707-.51,2.008.6a2.093,2.093,0,0,1-1.566,2.607C2035.219,1114.4,2035.346,1112.518,2035.879,1111.14Z" transform="translate(-2030.424 -1090.578)" fill="url(#linear-gradient-38)"/>
        </g>
      </g>
    </g>
  </g>
</svg>
