<svg id="Component_21_1" data-name="Component 21 – 1" xmlns="http://www.w3.org/2000/svg" width="686.762" height="722.578" viewBox="0 0 686.762 722.578">
  <g id="Group_976" data-name="Group 976">
    <g id="Background_Complete" data-name="Background Complete" transform="translate(0 0)">
      <g id="Group_868" data-name="Group 868" transform="translate(87.532 55.011)">
        <path id="Path_619" data-name="Path 619" d="M157.531,168.821h0a55.484,55.484,0,0,1-55.484-55.484h0a55.484,55.484,0,0,1,55.484-55.484h0a55.485,55.485,0,0,1,55.486,55.484h0A55.485,55.485,0,0,1,157.531,168.821Z" transform="translate(-102.047 -57.853)" fill="#ebebeb"/>
        <g id="Group_867" data-name="Group 867" transform="translate(29.222 24.567)">
          <g id="Group_866" data-name="Group 866">
            <rect id="Rectangle_296" data-name="Rectangle 296" width="11.483" height="37.097" transform="translate(1.104 18.549)" fill="#fff"/>
            <path id="Path_620" data-name="Path 620" d="M126.881,86.714a6.846,6.846,0,1,0-6.791-6.847A6.819,6.819,0,0,0,126.881,86.714Z" transform="translate(-120.09 -73.022)" fill="#fff"/>
          </g>
          <path id="Path_621" data-name="Path 621" d="M143.41,102.532c0-5.215,2.4-8.323,7-8.323,4.222,0,6.251,2.983,6.251,8.323v19.473h11.429V98.517c0-9.938-5.633-14.741-13.5-14.741A12.934,12.934,0,0,0,143.41,89.9v-5H132.4v37.1H143.41Z" transform="translate(-112.466 -66.359)" fill="#fff"/>
        </g>
      </g>
      <path id="Path_622" data-name="Path 622" d="M190.441,23.886l7.6,13.892,13.892,7.6-13.892,7.6-7.6,13.892-7.6-13.892-13.892-7.6,13.892-7.6Z" transform="translate(26.935 -23.886)" fill="#f5f5f5"/>
      <path id="Path_623" data-name="Path 623" d="M384.036,256.273l5.7,10.419,10.419,5.7-10.419,5.7-5.7,10.419-5.7-10.419-10.419-5.7,10.419-5.7Z" transform="translate(150.205 120.089)" fill="#ebebeb"/>
      <path id="Path_624" data-name="Path 624" d="M390.6,224.508l2.571,4.7,4.7,2.571-4.7,2.571-2.571,4.7-2.571-4.7-4.7-2.571,4.7-2.571Z" transform="translate(159.754 100.409)" fill="#e0e0e0"/>
      <path id="Path_625" data-name="Path 625" d="M151.5,27.112l2.571,4.7,4.7,2.571-4.7,2.571-2.571,4.7-2.571-4.7-4.7-2.571,4.7-2.571Z" transform="translate(11.615 -21.887)" fill="#e0e0e0"/>
      <g id="Group_870" data-name="Group 870" transform="translate(0 409.593)">
        <g id="Group_869" data-name="Group 869">
          <path id="Path_626" data-name="Path 626" d="M82.226,309.128a16.8,16.8,0,0,0,9.808-15.667c-.083-9.278-7.2-16.741-15.9-16.668s-15.685,7.652-15.6,16.931a16.768,16.768,0,0,0,10.24,15.553c-24.193,3.966-22.753,30.3-22.753,30.3l57.324-.478S106.3,312.445,82.226,309.128Z" transform="translate(-48 -276.792)" fill="#e0e0e0"/>
        </g>
      </g>
      <g id="Group_871" data-name="Group 871" transform="translate(548.714 608.309)">
        <path id="Path_627" data-name="Path 627" d="M422.161,406.694a8.923,8.923,0,0,0-17.6.523,8.923,8.923,0,0,0-17.6-.369,12.045,12.045,0,0,0,2.162,8.691,35.859,35.859,0,0,0,6.292,6.65c3.2,2.85,6.164,5.531,9.367,8.381,3.178-2.878,5.881-5.584,9.058-8.462a35.69,35.69,0,0,0,6.234-6.707A12.043,12.043,0,0,0,422.161,406.694Z" transform="translate(-386.806 -399.49)" fill="#ebebeb"/>
      </g>
      <g id="Group_874" data-name="Group 874" transform="translate(603.149 239.179)">
        <g id="Group_872" data-name="Group 872" transform="translate(18.252)">
          <path id="Path_628" data-name="Path 628" d="M431.688,206.521l6.141-1.218,9.7-21.339L445.1,171.7s9.379-2.467,11.445,13.81,2.465,11.949,2.465,11.949,20.175-3.919,22.2-2.5c1.471,1.03,5.992,20.946,8.357,31.764,1.19,5.447-1.155,11.2-5.983,13.5a9.029,9.029,0,0,1-2.112.722c-5.029,1-31.529,2-31.529,2l-10.61,2.1Z" transform="translate(-431.688 -171.569)" fill="#e0e0e0"/>
        </g>
        <g id="Group_873" data-name="Group 873" transform="translate(0 33.084)">
          <path id="Path_629" data-name="Path 629" d="M420.418,193.987l12.109,41.262,10.52-2.086L434.883,192Z" transform="translate(-420.418 -191.997)" fill="#e0e0e0"/>
        </g>
      </g>
    </g>
    <g id="Icons" transform="translate(0.426 132.943)">
      <g id="Group_875" data-name="Group 875" transform="translate(464.421)">
        <path id="Path_630" data-name="Path 630" d="M429.621,230.965h0a65.8,65.8,0,0,1-87.954-30.394h0a65.8,65.8,0,0,1,30.394-87.956h0a65.8,65.8,0,0,1,87.956,30.394h0A65.8,65.8,0,0,1,429.621,230.965Z" transform="translate(-335.022 -105.973)" fill="#004080"/>
        <path id="Path_631" data-name="Path 631" d="M372.612,176.317a1.546,1.546,0,0,0,1.531-1.992c-.16-.8-.588-2.8-.753-3.641-.222-1.147-.5-1.448-1.675-1.966a12.963,12.963,0,0,1-6.514-6.624c-4.962-10.2-1.772-23.046,10.472-29,10.84-5.272,20.018-1.545,24.321,7.3,5.66,11.638,5.288,23.966-2.36,27.686-4.225,2.054-9.082.1-10.155-4.674-1.27-5.707-1.607-12.368-3.4-16.061-1.607-3.3-4.721-5.2-8.393-3.412-4.318,2.1-5.613,8.253-2.7,14.236a17.278,17.278,0,0,0,4.4,5.761s4.687,20.87,5.507,24.523c1.631,7.278,6.834,14.646,7.34,15.4a.6.6,0,0,0,1.072-.233c.146-.714,2.2-9.563.86-16.756-.376-2.036-2.554-12.477-2.554-12.477,2.7,1.994,7.949,2.353,12.307.235,12.979-6.313,16.029-22.424,8.326-38.26-5.824-11.975-21.388-18.194-36.8-10.7-19.18,9.329-22.164,27.783-16.586,39.251C360.221,171.86,365.855,176.759,372.612,176.317Z" transform="translate(-323.056 -95.791)" fill="#fff"/>
      </g>
      <g id="Group_877" data-name="Group 877" transform="translate(595.543 222.809)">
        <path id="Path_632" data-name="Path 632" d="M445.182,331.339h0a45.385,45.385,0,0,1-26.2-58.594h0a45.384,45.384,0,0,1,58.594-26.2h0a45.385,45.385,0,0,1,26.2,58.594v0A45.384,45.384,0,0,1,445.182,331.339Z" transform="translate(-415.985 -243.548)" fill="#004080"/>
        <g id="Group_876" data-name="Group 876" transform="translate(13.255 20.673)">
          <path id="Path_633" data-name="Path 633" d="M480,288.742a24.447,24.447,0,0,0-45.472-17.852c-.136.327-.274.654-.4.986a24.079,24.079,0,0,0-1.2,12.953l-8.76,10.58,14.181.813a24.473,24.473,0,0,0,41.443-6.9C479.865,289.13,479.94,288.938,480,288.742Zm-30.32,10.9a20.468,20.468,0,0,1-9.356-7.188l-8.273-.466,5.1-6.162a20.187,20.187,0,0,1,.614-12.566,18.924,18.924,0,0,1,.8-1.812,20.559,20.559,0,0,1,38.1,14.973c-.146.508-.311,1.007-.5,1.509A20.492,20.492,0,0,1,449.683,299.646Z" transform="translate(-424.169 -256.312)" fill="#fff" fill-rule="evenodd"/>
          <path id="Path_634" data-name="Path 634" d="M456.841,285.012c-.46-.494-2.693-2.891-3.137-3.268s-.781-.617-1.367-.2-2.144,1.25-2.6,1.492-.81.167-1.271-.327a16.246,16.246,0,0,1-3.446-4.476,17.8,17.8,0,0,1-1.644-5.027c-.108-.677.295-.867.679-1.038.355-.159.8-.439,1.216-.65.112-.068.209-.129.3-.191a6.534,6.534,0,0,0,.607-.528,1.072,1.072,0,0,0,.329-.988c-.032-.332-.11-3.5-.155-4.787s-.578-1.275-.91-1.4-.674-.317-1.048-.462a2.219,2.219,0,0,0-1.762.123,6.658,6.658,0,0,0-3.728,3.892,7.565,7.565,0,0,0-.436,2,13.478,13.478,0,0,0,.53,4.611c.138.47,1.516,7.634,6.349,12.041,4.852,4.391,5.134,3.652,6.2,3.948s3.825-.07,4.783-1.2a4.9,4.9,0,0,0,1.339-2.514C457.611,285.785,457.289,285.5,456.841,285.012Z" transform="translate(-415.332 -252.152)" fill="#fff" fill-rule="evenodd"/>
        </g>
      </g>
      <g id="Group_878" data-name="Group 878" transform="translate(0 31.632)">
        <path id="Path_635" data-name="Path 635" d="M82.87,194.719h0a34.607,34.607,0,0,1-34.607-34.608h0A34.607,34.607,0,0,1,82.87,125.5h0a34.607,34.607,0,0,1,34.608,34.606h0A34.608,34.608,0,0,1,82.87,194.719Z" transform="translate(-48.263 -125.504)" fill="#004080"/>
        <path id="Path_636" data-name="Path 636" d="M58.246,164.19a21.424,21.424,0,0,0,11.6,3.4c14.046,0,21.982-11.865,21.5-22.507a15.335,15.335,0,0,0,3.775-3.916,15.108,15.108,0,0,1-4.345,1.19,7.584,7.584,0,0,0,3.327-4.185,15.2,15.2,0,0,1-4.8,1.837,7.571,7.571,0,0,0-12.893,6.9A21.471,21.471,0,0,1,60.815,139a7.576,7.576,0,0,0,2.34,10.1,7.524,7.524,0,0,1-3.427-.947,7.572,7.572,0,0,0,6.068,7.515,7.573,7.573,0,0,1-3.416.13,7.568,7.568,0,0,0,7.066,5.254A15.2,15.2,0,0,1,58.246,164.19Z" transform="translate(-42.078 -117.998)" fill="#fff"/>
      </g>
      <g id="Group_880" data-name="Group 880" transform="translate(23.367 370.921)">
        <path id="Path_637" data-name="Path 637" d="M136.123,452.6h0a59.6,59.6,0,0,1-71.795-44.168h0a59.606,59.606,0,0,1,44.17-71.8h0a59.607,59.607,0,0,1,71.8,44.17h0A59.6,59.6,0,0,1,136.123,452.6Z" transform="translate(-62.691 -335)" fill="#e53e8e"/>
        <g id="Group_879" data-name="Group 879" transform="translate(24.343 24.344)">
          <path id="Path_638" data-name="Path 638" d="M106.788,359.241c8.49-2.021,9.5-2.228,12.89-2.875a18.115,18.115,0,0,1,6.166-.311,10.826,10.826,0,0,1,7.471,4.6,18.145,18.145,0,0,1,2.5,5.642c.951,3.317,1.224,4.314,3.246,12.8s2.228,9.5,2.875,12.892a18.12,18.12,0,0,1,.313,6.164,10.818,10.818,0,0,1-4.6,7.469,18.078,18.078,0,0,1-5.643,2.5c-3.317.951-4.313,1.223-12.8,3.246s-9.5,2.229-12.892,2.876a18.048,18.048,0,0,1-6.164.309,10.817,10.817,0,0,1-7.471-4.595,18.107,18.107,0,0,1-2.5-5.643c-.952-3.317-1.224-4.314-3.246-12.8s-2.23-9.5-2.876-12.892a18.105,18.105,0,0,1-.311-6.164,10.826,10.826,0,0,1,4.6-7.471,18.108,18.108,0,0,1,5.643-2.5c3.315-.952,4.314-1.224,12.8-3.247m-1.364-5.727c-8.635,2.057-9.709,2.352-13.063,3.314A23.962,23.962,0,0,0,85,360.145a16.7,16.7,0,0,0-7.082,11.513,23.946,23.946,0,0,0,.36,8.069c.653,3.427.875,4.519,2.931,13.152s2.352,9.709,3.314,13.063a23.959,23.959,0,0,0,3.317,7.364,16.707,16.707,0,0,0,11.512,7.084,24.047,24.047,0,0,0,8.07-.361c3.427-.653,4.519-.875,13.152-2.931s9.708-2.352,13.063-3.314A23.976,23.976,0,0,0,141,410.468a16.705,16.705,0,0,0,7.084-11.513,24.041,24.041,0,0,0-.361-8.069c-.653-3.427-.875-4.518-2.931-13.152s-2.352-9.709-3.314-13.063a23.977,23.977,0,0,0-3.317-7.364,16.706,16.706,0,0,0-11.513-7.084,24.039,24.039,0,0,0-8.069.361c-3.429.653-4.519.874-13.152,2.931" transform="translate(-77.722 -350.031)" fill="#fff"/>
          <path id="Path_639" data-name="Path 639" d="M102.036,361.908a16.782,16.782,0,1,0,20.214,12.437,16.781,16.781,0,0,0-20.214-12.437m6.413,26.922a10.893,10.893,0,1,1,8.072-13.122,10.893,10.893,0,0,1-8.072,13.122" transform="translate(-70.649 -342.958)" fill="#fff"/>
          <path id="Path_640" data-name="Path 640" d="M112.8,359.429a3.922,3.922,0,1,1-4.724-2.907,3.923,3.923,0,0,1,4.724,2.907" transform="translate(-60.783 -346.076)" fill="#fff"/>
        </g>
      </g>
      <g id="Group_881" data-name="Group 881" transform="translate(520.492 380.468)">
        <path id="Path_641" data-name="Path 641" d="M397.44,396.489h0a27.8,27.8,0,0,1-27.8-27.8h0a27.8,27.8,0,0,1,27.8-27.8h0a27.8,27.8,0,0,1,27.8,27.8h0A27.8,27.8,0,0,1,397.44,396.489Z" transform="translate(-369.644 -340.895)" fill="#e53e8e"/>
        <path id="Path_642" data-name="Path 642" d="M385.537,381.288H392.3V364.343h4.721l.5-5.673H392.3v-3.231c0-1.338.269-1.866,1.563-1.866h3.662v-5.889h-4.685c-5.035,0-7.306,2.219-7.306,6.462v4.523h-3.519v5.745h3.519Z" transform="translate(-361.978 -336.689)" fill="#fff"/>
      </g>
    </g>
    <g id="Device" transform="translate(181.981 65.302)">
      <g id="Group_947" data-name="Group 947">
        <g id="Group_946" data-name="Group 946">
          <g id="Group_941" data-name="Group 941">
            <g id="Group_889" data-name="Group 889">
              <g id="Group_888" data-name="Group 888">
                <g id="Group_884" data-name="Group 884">
                  <g id="Group_883" data-name="Group 883">
                    <g id="Group_882" data-name="Group 882">
                      <path id="Path_643" data-name="Path 643" d="M432.3,721.483l-223.315-.131A48.645,48.645,0,0,1,160.365,672.7l.11-559.854a48.646,48.646,0,0,1,48.672-48.637l223.316.133a48.645,48.645,0,0,1,48.616,48.654l-.11,559.855A48.641,48.641,0,0,1,432.3,721.483Z" transform="translate(-160.365 -64.207)" fill="#263238"/>
                    </g>
                  </g>
                </g>
                <g id="Group_887" data-name="Group 887" transform="translate(14.798 19.804)">
                  <g id="Group_886" data-name="Group 886">
                    <g id="Group_885" data-name="Group 885">
                      <path id="Path_644" data-name="Path 644" d="M426.565,76.565l-43.3-.024a10.755,10.755,0,0,0-10.514,10.984l0,7.855a10.755,10.755,0,0,1-10.514,10.984l-84.4-.05a10.764,10.764,0,0,1-10.511-11l0-7.853a10.765,10.765,0,0,0-10.512-11l-15.227-.01L203.7,76.435A34.067,34.067,0,0,0,169.609,110.5L169.5,656.954a34.069,34.069,0,0,0,34.048,34.077l222.869.13A34.067,34.067,0,0,0,460.506,657.1l.107-546.46A34.067,34.067,0,0,0,426.565,76.565Z" transform="translate(-169.502 -76.435)" fill="#fff"/>
                    </g>
                  </g>
                </g>
              </g>
            </g>
            <g id="Group_899" data-name="Group 899" transform="translate(249.968 64.147)">
              <g id="Group_892" data-name="Group 892">
                <g id="Group_891" data-name="Group 891">
                  <g id="Group_890" data-name="Group 890">
                    <path id="Path_645" data-name="Path 645" d="M339.862,104c0,.146-5.628.311-12.574.369s-12.577-.015-12.579-.162,5.628-.311,12.576-.369S339.862,103.849,339.862,104Z" transform="translate(-314.709 -103.815)" fill="#263238"/>
                  </g>
                </g>
              </g>
              <g id="Group_895" data-name="Group 895" transform="translate(0.053 6.436)">
                <g id="Group_894" data-name="Group 894">
                  <g id="Group_893" data-name="Group 893">
                    <path id="Path_646" data-name="Path 646" d="M339.9,107.97c0,.146-5.63.311-12.574.369s-12.577-.016-12.579-.162,5.628-.313,12.574-.369S339.894,107.823,339.9,107.97Z" transform="translate(-314.742 -107.789)" fill="#263238"/>
                  </g>
                </g>
              </g>
              <g id="Group_898" data-name="Group 898" transform="translate(0.107 12.871)">
                <g id="Group_897" data-name="Group 897">
                  <g id="Group_896" data-name="Group 896">
                    <path id="Path_647" data-name="Path 647" d="M339.928,111.943c0,.147-5.63.313-12.574.369s-12.579-.015-12.579-.16,5.628-.313,12.574-.369S339.927,111.8,339.928,111.943Z" transform="translate(-314.775 -111.763)" fill="#263238"/>
                  </g>
                </g>
              </g>
            </g>
            <g id="Group_902" data-name="Group 902" transform="translate(37.972 56.942)">
              <g id="Group_901" data-name="Group 901">
                <g id="Group_900" data-name="Group 900">
                  <path id="Path_648" data-name="Path 648" d="M184.148,125.9a5.163,5.163,0,0,1,.659-.044l1.833-.06,6.77-.162-.188.191q-.036-2.252-.079-4.909c.01-.912-.078-1.772.01-2.826a2.6,2.6,0,0,1,2.272-2.086c1.09-.021,2.05-.071,3.233-.016a2.629,2.629,0,0,1,2.22,2.614c.026,2.288.053,4.679.081,7.158l-.314-.308c2.742-.029,5.6-.057,8.538-.087l-.324.33c-.031-3.438-.063-6.995-.1-10.639q-.01-1.363-.023-2.709a2.759,2.759,0,0,0-1.2-2.018l-3.733-3.68q-1.834-1.807-3.6-3.553l-1.746-1.723c-.6-.578-1.071-1.176-1.765-1.318a2.3,2.3,0,0,0-1.96.374c-.517.437-1.067,1.056-1.589,1.563q-1.577,1.591-3.064,3.09c-1.927,2-3.934,3.83-5.393,5.56-.615.954-.385,2.123-.429,3.186q0,1.589-.006,3.009-.017,2.767-.031,4.847c-.015,1.237-.026,2.261-.034,3.1a10.987,10.987,0,0,1-.042,1.118,8.139,8.139,0,0,1-.058-1.027c-.023-.824-.052-1.832-.086-3.051q-.046-2.094-.11-4.885-.027-1.45-.057-3.069-.012-.819-.026-1.678a3.552,3.552,0,0,1,.471-1.788c1.579-1.935,3.464-3.649,5.406-5.709q1.475-1.509,3.04-3.114c.547-.538,1-1.072,1.649-1.633a2.9,2.9,0,0,1,2.475-.487,4.61,4.61,0,0,1,2.05,1.466l1.752,1.717q1.771,1.737,3.613,3.542t3.74,3.672a7.117,7.117,0,0,1,.954,1.033,2.8,2.8,0,0,1,.447,1.44q.012,1.353.024,2.722c.028,3.644.055,7.2.081,10.64l0,.327-.327,0-8.54.055-.313,0,0-.311c-.013-2.478-.024-4.87-.037-7.158a2.06,2.06,0,0,0-1.725-2.073c-.983-.052-2.141-.018-3.1-.01a2.1,2.1,0,0,0-1.841,1.66c-.083.858-.019,1.859-.037,2.729q0,2.653,0,4.909v.191h-.188c-2.823-.021-5.123-.037-6.881-.049-.695-.013-1.284-.023-1.791-.031A3.366,3.366,0,0,1,184.148,125.9Z" transform="translate(-183.811 -99.366)" fill="#263238"/>
                </g>
              </g>
            </g>
            <g id="Group_921" data-name="Group 921" transform="translate(32.569 490.644)">
              <g id="Group_907" data-name="Group 907" transform="translate(93.506 19.415)">
                <g id="Group_906" data-name="Group 906">
                  <g id="Group_903" data-name="Group 903">
                    <path id="Path_649" data-name="Path 649" d="M297.76,379.567a12.411,12.411,0,0,1-2.34.165c-1.667.034-3.809.079-6.381.134-5.388.076-12.832.123-21.053.123s-15.668-.047-21.054-.123c-2.572-.055-4.716-.1-6.381-.134a12.411,12.411,0,0,1-2.34-.165,12.517,12.517,0,0,1,2.34-.164l6.381-.134c5.387-.076,12.832-.123,21.054-.123s15.664.047,21.053.123l6.381.134A12.518,12.518,0,0,1,297.76,379.567Z" transform="translate(-238.211 -379.146)" fill="#455a64"/>
                  </g>
                  <g id="Group_904" data-name="Group 904" transform="translate(0 14.65)">
                    <path id="Path_650" data-name="Path 650" d="M391.356,388.613c0,.233-34.286.421-76.569.421s-76.576-.188-76.576-.421,34.278-.421,76.576-.421S391.356,388.38,391.356,388.613Z" transform="translate(-238.211 -388.192)" fill="#455a64"/>
                  </g>
                  <g id="Group_905" data-name="Group 905" transform="translate(0 28.431)">
                    <path id="Path_651" data-name="Path 651" d="M343.5,397.124c0,.232-23.571.421-52.64.421s-52.647-.19-52.647-.421,23.566-.423,52.647-.423S343.5,396.891,343.5,397.124Z" transform="translate(-238.211 -396.701)" fill="#455a64"/>
                  </g>
                </g>
              </g>
              <g id="Group_908" data-name="Group 908" transform="translate(240.39 61.18)">
                <path id="Path_652" data-name="Path 652" d="M338.193,418.849l-4.758-4.773-4.53,4.519.021-13.661,9.288.015Zm-4.757-5.367.149.149,4.188,4.2.019-12.466-8.448-.013-.019,12.226Z" transform="translate(-328.905 -404.934)" fill="#263238"/>
              </g>
              <g id="Group_909" data-name="Group 909" transform="translate(114.423 63.904)">
                <path id="Path_653" data-name="Path 653" d="M259.681,416.031,258,415.282a4.6,4.6,0,1,1,2.452-4.041,4.649,4.649,0,0,1-1.161,3.11Zm-3.924-9.1a4.345,4.345,0,0,0,.07,8.689,4.482,4.482,0,0,0,2.091-.659l.07-.04,1.239.554-.282-1.218L259,414.2a4.338,4.338,0,0,0-3.244-7.264Z" transform="translate(-251.126 -406.616)" fill="#263238"/>
              </g>
              <g id="Group_910" data-name="Group 910" transform="translate(128.239 64.542)">
                <path id="Path_654" data-name="Path 654" d="M265.191,415.066l-1.926-4.7-3.608-3.289,8.754-.07Zm-4.716-7.672,3.074,2.821,1.639,4,2.75-6.882Z" transform="translate(-259.657 -407.01)" fill="#263238"/>
              </g>
              <g id="Group_911" data-name="Group 911" transform="translate(132.045 64.541)">
                <rect id="Rectangle_297" data-name="Rectangle 297" width="5.694" height="0.32" transform="translate(0 3.106) rotate(-33.054)" fill="#263238"/>
              </g>
              <g id="Group_912" data-name="Group 912" transform="translate(98.478 63.418)">
                <path id="Path_655" data-name="Path 655" d="M252.007,408.491a2.708,2.708,0,0,0-5.34.178,2.708,2.708,0,0,0-5.341-.092,3.654,3.654,0,0,0,.666,2.635,10.871,10.871,0,0,0,1.916,2.01c.975.862,1.877,1.671,2.852,2.533.96-.876,1.778-1.7,2.739-2.578a10.768,10.768,0,0,0,1.885-2.041A3.663,3.663,0,0,0,252.007,408.491Z" transform="translate(-241.281 -406.316)" fill="#e8505b"/>
              </g>
              <g id="Group_913" data-name="Group 913">
                <path id="Path_656" data-name="Path 656" d="M439.906,454.338s-.019-.525-.029-1.524-.016-2.492-.029-4.431c-.016-3.908-.039-9.656-.068-17.1-.036-14.885-.087-36.54-.152-63.7l.278.279L180.912,368H180.9l.423-.423c0,30.151-.01,59.4-.015,86.759l-.408-.408c74.558.076,139.252.141,185.331.19l54.1.113,14.519.053,3.762.026c.849.008,1.3.026,1.3.026s-.411.016-1.244.026q-1.28.007-3.715.026l-14.43.052-54.009.115-185.612.189h-.408v-.408c0-27.361-.008-56.608-.013-86.759v-.421h.437l258.993.144h.279l0,.277c-.065,27.236-.117,48.948-.152,63.872-.029,7.418-.052,13.143-.068,17.036q-.019,2.876-.029,4.382C439.924,453.851,439.906,454.338,439.906,454.338Z" transform="translate(-180.475 -367.158)" fill="#263238"/>
              </g>
              <g id="Group_920" data-name="Group 920" transform="translate(10.438 14.537)">
                <g id="Group_917" data-name="Group 917">
                  <g id="Group_916" data-name="Group 916">
                    <g id="Group_915" data-name="Group 915">
                      <rect id="Rectangle_298" data-name="Rectangle 298" width="57.359" height="71.746" transform="matrix(0.006, -1, 1, 0.006, 0.429, 57.738)" fill="#ebebeb"/>
                      <g id="Group_914" data-name="Group 914">
                        <path id="Path_657" data-name="Path 657" d="M259.419,376.923a2.788,2.788,0,0,1-.36.02l-1.017.016-3.916.023-14.71.016-51.743-.105.379-.376c-.084,17.078-.18,36.646-.282,57.353.089.1-.785-.8-.407-.419l.019,0h.117l.157,0,.311,0,.62,0,1.242.006,2.473.015,4.91.029,9.667.058,18.614.12,33.6.243-.353.348c.173-17.222.317-31.512.418-41.543.068-4.988.12-8.916.157-11.645q.036-1.977.057-3.085c.018-.7.045-1.082.045-1.082s.024.33.032,1.007q.01,1.086.023,3.019c.007,2.709.015,6.613.026,11.567-.015,10.085-.034,24.45-.057,41.767v.35l-.353,0-33.6-.139-18.615-.091-9.667-.052q-2.441-.012-4.91-.028l-2.473-.013-1.242-.006-.62,0-.311,0h-.235l-.039,0h-.019c.369.379-.526-.513-.432-.429.134-20.708.261-40.275.371-57.351l0-.379.377,0,51.986.484,14.625.183,3.842.066.975.028A1.4,1.4,0,0,1,259.419,376.923Z" transform="translate(-186.92 -376.134)" fill="#263238"/>
                      </g>
                    </g>
                  </g>
                </g>
                <rect id="Rectangle_299" data-name="Rectangle 299" width="50.137" height="66.705" transform="matrix(0.006, -1, 1, 0.006, 2.923, 54.141)" fill="#e0e0e0"/>
                <path id="Path_658" data-name="Path 658" d="M188.725,421.435,212.2,390.4l14.321,19.58,9.848-10.368,19.06,22.2Z" transform="translate(-185.801 -367.293)" fill="#f5f5f5"/>
                <g id="Group_919" data-name="Group 919" transform="translate(36.474 14.127)">
                  <g id="Group_918" data-name="Group 918">
                    <path id="Path_659" data-name="Path 659" d="M219.945,390.138a5.252,5.252,0,1,1-5.223-5.281A5.255,5.255,0,0,1,219.945,390.138Z" transform="translate(-209.441 -384.857)" fill="#f5f5f5"/>
                  </g>
                </g>
              </g>
            </g>
            <g id="Group_936" data-name="Group 936" transform="translate(42.972 122.193)">
              <g id="Group_931" data-name="Group 931">
                <g id="Group_924" data-name="Group 924" transform="translate(46.366 11.266)">
                  <g id="Group_923" data-name="Group 923">
                    <g id="Group_922" data-name="Group 922">
                      <path id="Path_660" data-name="Path 660" d="M290.933,147.033a2.649,2.649,0,0,1-.766.086l-2.2.079-8.08.133c-6.823.078-16.249.125-26.659.125s-19.839-.047-26.663-.125l-8.078-.133-2.2-.079a2.649,2.649,0,0,1-.766-.086,2.7,2.7,0,0,1,.766-.084l2.2-.079,8.078-.134c6.823-.076,16.251-.123,26.663-.123s19.836.047,26.659.123l8.08.134,2.2.079A2.7,2.7,0,0,1,290.933,147.033Z" transform="translate(-215.527 -146.612)" fill="#263238"/>
                    </g>
                  </g>
                </g>
                <g id="Group_930" data-name="Group 930" transform="translate(0 307.139)">
                  <g id="Group_925" data-name="Group 925" transform="translate(213.96 0.946)">
                    <path id="Path_661" data-name="Path 661" d="M332.812,350.563l-7.069-7.092-6.734,6.715.032-20.3,13.8.021Zm-7.068-7.975.22.219,6.226,6.247.029-18.524-12.555-.019-.029,18.17Z" transform="translate(-319.009 -329.885)" fill="#263238"/>
                  </g>
                  <g id="Group_926" data-name="Group 926" transform="translate(31.385 0.957)">
                    <path id="Path_662" data-name="Path 662" d="M223.116,348.423l-3.305-1.474A9.053,9.053,0,1,1,224.638,339a9.149,9.149,0,0,1-2.285,6.122Zm-7.727-17.9a8.551,8.551,0,1,0,.138,17.1,8.813,8.813,0,0,0,4.118-1.3l.136-.076,2.436,1.087-.551-2.394.11-.121a8.542,8.542,0,0,0-6.387-14.3Z" transform="translate(-206.277 -329.892)" fill="#263238"/>
                  </g>
                  <g id="Group_927" data-name="Group 927" transform="translate(58.581 2.214)">
                    <path id="Path_663" data-name="Path 663" d="M233.961,346.525l-3.788-9.246-7.1-6.473,17.229-.138Zm-9.283-15.1,6.051,5.553,3.226,7.876,5.413-13.548Z" transform="translate(-223.069 -330.668)" fill="#263238"/>
                  </g>
                  <g id="Group_928" data-name="Group 928" transform="translate(66.071 2.213)">
                    <rect id="Rectangle_300" data-name="Rectangle 300" width="11.208" height="0.629" transform="matrix(0.838, -0.545, 0.545, 0.838, 0, 6.112)" fill="#263238"/>
                  </g>
                  <g id="Group_929" data-name="Group 929">
                    <path id="Path_664" data-name="Path 664" d="M208.009,333.583a5.329,5.329,0,0,0-10.509.351,5.329,5.329,0,0,0-10.513-.181,7.191,7.191,0,0,0,1.31,5.184,21.283,21.283,0,0,0,3.772,3.958c1.919,1.7,3.693,3.291,5.612,4.987,1.892-1.726,3.5-3.348,5.393-5.074a21.364,21.364,0,0,0,3.709-4.018A7.193,7.193,0,0,0,208.009,333.583Z" transform="translate(-186.898 -329.301)" fill="#e8505b"/>
                  </g>
                </g>
                <circle id="Ellipse_68" data-name="Ellipse 68" cx="11.687" cy="11.687" r="11.687" transform="translate(7.853)" fill="#ebebeb"/>
              </g>
              <g id="Group_935" data-name="Group 935" transform="translate(4.446 243.067)">
                <g id="Group_932" data-name="Group 932" transform="translate(0 18.228)">
                  <path id="Path_665" data-name="Path 665" d="M408.548,301.417c0,.233-49.008.421-109.448.421-60.461,0-109.457-.188-109.457-.421s49-.423,109.457-.423C359.54,300.994,408.548,301.184,408.548,301.417Z" transform="translate(-189.643 -300.994)" fill="#455a64"/>
                </g>
                <g id="Group_933" data-name="Group 933">
                  <path id="Path_666" data-name="Path 666" d="M408.548,290.16c0,.233-49.008.423-109.448.423-60.461,0-109.457-.189-109.457-.423s49-.421,109.457-.421C359.54,289.739,408.548,289.927,408.548,290.16Z" transform="translate(-189.643 -289.739)" fill="#455a64"/>
                </g>
                <g id="Group_934" data-name="Group 934" transform="translate(0 36.701)">
                  <path id="Path_667" data-name="Path 667" d="M308.795,312.821c0,.233-26.676.423-59.573.423s-59.578-.189-59.578-.423,26.669-.421,59.578-.421S308.795,312.59,308.795,312.821Z" transform="translate(-189.643 -312.4)" fill="#455a64"/>
                </g>
              </g>
            </g>
            <g id="Group_940" data-name="Group 940" transform="translate(142.564 596.247)">
              <g id="Group_937" data-name="Group 937" transform="translate(0 0)">
                <path id="Path_668" data-name="Path 668" d="M257.693,437.1a4.651,4.651,0,1,1-4.63-4.74A4.683,4.683,0,0,1,257.693,437.1Z" transform="translate(-248.392 -432.363)" fill="#263238"/>
              </g>
              <g id="Group_938" data-name="Group 938" transform="translate(14.411 0.066)">
                <path id="Path_669" data-name="Path 669" d="M266.591,437.144a4.651,4.651,0,1,1-4.63-4.74A4.682,4.682,0,0,1,266.591,437.144Z" transform="translate(-257.29 -432.404)" fill="#263238"/>
              </g>
              <g id="Group_939" data-name="Group 939" transform="translate(28.821 0.133)">
                <path id="Path_670" data-name="Path 670" d="M275.489,437.185a4.651,4.651,0,1,1-4.63-4.74A4.68,4.68,0,0,1,275.489,437.185Z" transform="translate(-266.188 -432.445)" fill="#263238"/>
              </g>
            </g>
          </g>
          <g id="Group_944" data-name="Group 944" transform="translate(34.543 157.01)">
            <rect id="Rectangle_301" data-name="Rectangle 301" width="259.01" height="158.398" fill="#e0e0e0"/>
            <path id="Path_671" data-name="Path 671" d="M196.457,296.977l74.22-99.34,46.012,62.125,31.186-33.228,61.164,70.381Z" transform="translate(-172.547 -138.551)" fill="#f5f5f5"/>
            <g id="Group_943" data-name="Group 943" transform="translate(130.169 30.168)">
              <g id="Group_942" data-name="Group 942">
                <path id="Path_672" data-name="Path 672" d="M295.545,196.514A16.739,16.739,0,1,1,278.8,179.781,16.738,16.738,0,0,1,295.545,196.514Z" transform="translate(-262.067 -179.781)" fill="#f5f5f5"/>
              </g>
            </g>
          </g>
          <g id="Group_945" data-name="Group 945" transform="translate(33.424 103.888)">
            <path id="Path_673" data-name="Path 673" d="M440.434,487.083c0-3.388-.157-146.48-.382-358.309l.382.384-258.979.039h-.029l.421-.423c-.029,134-.057,258.012-.079,358.309l-.342-.343,259.008.343c-2.824,0-101.941.136-259.008.343h-.343v-.343c-.023-100.3-.05-224.309-.079-358.309v-.421h.452l258.979.039h.382v.382c-.078,106.019-.142,195.635-.19,258.76-.044,31.516-.078,56.417-.1,73.45-.019,8.493-.036,15.023-.045,19.439q-.015,3.289-.023,4.987C440.448,486.528,440.434,487.083,440.434,487.083Z" transform="translate(-181.003 -128.353)" fill="#263238"/>
          </g>
        </g>
      </g>
    </g>
    <g id="Megaphone" transform="translate(76.13 160.611)">
      <g id="Group_974" data-name="Group 974">
        <g id="Group_968" data-name="Group 968">
          <g id="Group_966" data-name="Group 966">
            <g id="Group_948" data-name="Group 948" transform="translate(172.069 323.833)">
              <path id="Path_674" data-name="Path 674" d="M306.184,410.931l5.73-19.252c1-4.175,2.327-9.1,4.114-14.72,1.607-5.051,5.727-10.359,9.484-14.181,5.85-5.949,8.631-5.989,12.563-9.146.358-.23.756-.557,1.095-.74a6.2,6.2,0,0,0,1.911-1.654c3.388-3.665.134-9.337-6.745-8.8-5.181.406-13.628,1.888-27.364,16.059-.172.215-.351.4-.52.615-7.21,9.371-13.98-17.381-15.2-27.338-.792-6.46-7.782-10.431-14.1-8.095l-33.462,15.651c-2.763-.973-6.044-.808-9.767.33a9.945,9.945,0,0,0-6.375,11.8l13.572,54.175-39.862,132.63h85.915Z" transform="translate(-201.252 -323.009)" fill="#ffbe9d"/>
            </g>
            <g id="Group_964" data-name="Group 964">
              <g id="Group_956" data-name="Group 956">
                <g id="Group_950" data-name="Group 950" transform="translate(192.22 271.219)">
                  <g id="Group_949" data-name="Group 949">
                    <path id="Path_675" data-name="Path 675" d="M364.477,309.247l-26.559,52.041L324.639,357.6l-66.75,54.3a13.521,13.521,0,0,1-18.782-1.67L213.694,380.7s51.244-22.076,60.722-40.348-1.474-22.418-1.474-22.418l24.118-27.408Z" transform="translate(-213.694 -290.522)" fill="#004080"/>
                  </g>
                </g>
                <g id="Group_951" data-name="Group 951">
                  <path id="Path_676" data-name="Path 676" d="M403.564,306.692s-38.876-8.6-93.582-61.206S229.571,123.02,222.874,123.36s-35.935-13.233-91.543,107.732-33.7,149.057-22.64,148.83,86.2-21.166,133.135-15.831S349.08,393.887,349.08,393.887Z" transform="translate(-95.007 -123.056)" fill="#004080"/>
                </g>
                <g id="Group_952" data-name="Group 952" transform="translate(245.715 160.84)">
                  <path id="Path_677" data-name="Path 677" d="M392.152,311.1,378.89,336.315l-5.942,11.295a32.91,32.91,0,0,1-42.9,14.574l-83.324-29.032,48.527-110.784L378.5,266.732A32.913,32.913,0,0,1,392.152,311.1Z" transform="translate(-246.725 -222.368)" fill="#e8505b"/>
                </g>
                <g id="Group_953" data-name="Group 953" transform="translate(245.715 160.84)" opacity="0.4">
                  <path id="Path_678" data-name="Path 678" d="M392.152,311.1,378.89,336.315l-5.942,11.295a32.91,32.91,0,0,1-42.9,14.574l-83.324-29.032,48.527-110.784L378.5,266.732A32.913,32.913,0,0,1,392.152,311.1Z" transform="translate(-246.725 -222.368)"/>
                </g>
                <g id="Group_954" data-name="Group 954" transform="translate(7.282 2.774)">
                  <path id="Path_679" data-name="Path 679" d="M133.037,232.234c-29.594,65.527-41.914,123.92-27.516,130.424s50.062-41.349,79.658-106.876,41.914-123.92,27.516-130.422S162.635,166.706,133.037,232.234Z" transform="translate(-99.503 -124.769)" fill="#e8505b"/>
                </g>
                <g id="Group_955" data-name="Group 955" transform="translate(7.282 2.774)" opacity="0.5">
                  <path id="Path_680" data-name="Path 680" d="M133.037,232.234c-29.594,65.527-41.914,123.92-27.516,130.424s50.062-41.349,79.658-106.876,41.914-123.92,27.516-130.422S162.635,166.706,133.037,232.234Z" transform="translate(-99.503 -124.769)" fill="#fff"/>
                </g>
              </g>
              <g id="Group_957" data-name="Group 957" transform="translate(375.709 252.339)">
                <path id="Path_681" data-name="Path 681" d="M349.575,312.531l-22.585-7.093,13.976-26.574L357.9,289.394Z" transform="translate(-326.991 -278.865)" fill="#004080"/>
              </g>
              <g id="Group_958" data-name="Group 958" transform="translate(375.709 252.339)" opacity="0.6">
                <path id="Path_682" data-name="Path 682" d="M340.966,278.865l-13.976,26.574,4.641,1.459,11.363-26.772Z" transform="translate(-326.991 -278.865)"/>
              </g>
              <g id="Group_959" data-name="Group 959" transform="translate(324.962 236.175)">
                <path id="Path_683" data-name="Path 683" d="M344.819,291.179c-.332.73-11.6-3.65-25.173-9.785s-24.314-11.7-23.982-12.43,11.6,3.652,25.174,9.787S345.146,290.45,344.819,291.179Z" transform="translate(-295.656 -268.884)" fill="#004080"/>
              </g>
              <g id="Group_960" data-name="Group 960" transform="translate(336.778 220.757)">
                <path id="Path_684" data-name="Path 684" d="M347.243,281.251c-.356.721-10.555-3.579-22.782-9.6s-21.856-11.488-21.5-12.208,10.548,3.582,22.781,9.605S347.6,280.532,347.243,281.251Z" transform="translate(-302.952 -259.364)" fill="#004080"/>
              </g>
              <g id="Group_961" data-name="Group 961" transform="translate(320.546 255.067)">
                <path id="Path_685" data-name="Path 685" d="M337.747,300.552c-.12.385-2.8-.235-7.082-1.556-2.138-.661-4.671-1.5-7.474-2.467-2.784-1.009-5.675-2.471-8.773-3.874-12.355-5.736-21.789-11.351-21.48-12.017.364-.785,10.449,3.7,22.69,9.38,3.071,1.391,5.919,2.923,8.6,4.046,2.695,1.09,5.113,2.107,7.131,3C335.4,298.861,337.863,300.168,337.747,300.552Z" transform="translate(-292.929 -280.549)" fill="#004080"/>
              </g>
              <g id="Group_962" data-name="Group 962" transform="translate(43.55 90.867)">
                <path id="Path_686" data-name="Path 686" d="M179.5,183.962s-33.789-20.952-52.276,24.7,17.064,53.157,17.064,53.157C158.837,239.258,170.655,213.4,179.5,183.962Z" transform="translate(-121.897 -179.163)" fill="#004080"/>
              </g>
              <g id="Group_963" data-name="Group 963" transform="translate(40.279 41.261)" opacity="0.5">
                <path id="Path_687" data-name="Path 687" d="M216.687,148.533c.2.034-.282,3.134-1.323,8.721-1.069,5.579-2.58,13.677-4.747,23.618-1.428,4.9-2.99,10.244-4.664,15.975q-1.271,4.31-2.625,8.9-.68,2.3-1.378,4.651c-.505,1.56-1.163,3.09-1.751,4.666-2.434,6.281-4.987,12.869-7.633,19.7q-1,2.563-2.011,5.166c-.658,1.744-1.587,3.385-2.376,5.1q-2.478,5.109-5.021,10.355t-5.038,10.352c-.862,1.683-1.581,3.429-2.543,5.025l-2.818,4.776-10.767,18.181c-.878,1.437-1.671,2.9-2.586,4.259q-1.421,2.011-2.808,3.968-2.772,3.9-5.38,7.578c-3.476,4.862-6.718,9.4-9.687,13.556-6.46,7.829-11.879,14-15.6,18.291-3.744,4.267-5.889,6.566-6.043,6.438s1.7-2.669,5.171-7.157l14.885-18.873,9.324-13.663q2.522-3.675,5.212-7.589l2.729-3.963c.889-1.362,1.665-2.828,2.518-4.264l10.55-18.144,2.776-4.755c.951-1.587,1.657-3.323,2.51-5q2.458-5.075,4.987-10.286l5-10.276c.789-1.7,1.718-3.331,2.376-5.059q1.018-2.58,2.021-5.119c2.682-6.76,5.272-13.284,7.738-19.5.6-1.56,1.273-3.071,1.794-4.612q.724-2.335,1.43-4.6,1.414-4.536,2.747-8.8c1.786-5.665,3.451-10.95,4.98-15.789,2.348-9.74,4.259-17.669,5.621-23.318C215.634,151.531,216.491,148.5,216.687,148.533Z" transform="translate(-119.877 -148.533)"/>
              </g>
            </g>
            <g id="Group_965" data-name="Group 965" transform="translate(200.316 311.483)" opacity="0.4">
              <path id="Path_688" data-name="Path 688" d="M218.693,361.666c3.082,5.6,6.227,11.278,10.789,15.75s10.825,7.639,17.18,7,12.378-5.919,12.446-12.307c3.051,2.293,7.727,1.051,10.253-1.809s3.348-6.833,3.65-10.636c4.143,2.444,9.905.505,12.67-3.43s2.936-9.238,1.6-13.859-4.015-8.718-6.651-12.739c3.189.258,6.569.479,9.423-.967s4.783-5.221,3.116-7.955c-.977-1.6-2.852-2.4-4.645-2.962-5-1.564-8.507-2.818-13.711-2.214-1.21.013,2.083,13.727-30.584,32.487C224.943,359.1,218.693,361.666,218.693,361.666Z" transform="translate(-218.693 -315.383)"/>
            </g>
          </g>
          <g id="Group_967" data-name="Group 967" transform="translate(240.693 376.81)">
            <path id="Path_689" data-name="Path 689" d="M276.807,356.493c-.021.151-2.2-.267-5.72-.172a32.339,32.339,0,0,0-24.008,11.51c-2.28,2.688-3.317,4.645-3.448,4.567a5,5,0,0,1,.64-1.417,25.865,25.865,0,0,1,2.347-3.527,30.6,30.6,0,0,1,24.465-11.729,26.081,26.081,0,0,1,4.221.377A4.984,4.984,0,0,1,276.807,356.493Z" transform="translate(-243.624 -355.72)" fill="#eb996e"/>
          </g>
          <path id="Path_690" data-name="Path 690" d="M220.008,349.588c5.262,5.055,8.861,10.636,14.38,15.726,2.507,2.313,6.4,6.7,9.766,7.278s5.515.136,6.846-3.006c1.077-2.544-.858-6.021-2.194-8.119-3.516-5.515-6.878-9.827-9.512-14.116-1.234-2.008.363-2.423.946-1.493,2.533,2.625,6.31,4.9,8.579,7.759,3.106,3.914,3.67,9.1,11.8,7.458a7.326,7.326,0,0,0,3.017-1.254c3.059-2.342,3.187-6.413,1.9-9.675a26.483,26.483,0,0,0-4.525-6.846c3.459,3.906,7.236,8.02,12.738,8.464a7.578,7.578,0,0,0,7.7-4.169c1.628-3.7-.706-7.268-3.048-10.158a105.8,105.8,0,0,0-13.813-14.111,10.509,10.509,0,0,0-6.715-2.489c-2.844-.019-6.405.517-8.164,2.991-3.192,4.493-2.209,8.465-2.209,8.465s-7.136-3.618-12.869.165a18.184,18.184,0,0,0-7.152,10.287Z" transform="translate(-17.562 -0.521)" fill="#ffbe9d"/>
          <path id="Path_691" data-name="Path 691" d="M244.23,325.769c-2.207-2.224-2.722-6.292-1.009-9.653,1.213-2.378,2.745-4.689,4.3-5.213,6.788-2.29,36.443,2.841,36.173,9.424-.277,6.758-2.436,9.732-18.531,7.408-2.831-.408-7.273-.967-7.273-.967L254,332.6Z" transform="translate(-3.813 -7.019)" fill="#ffbe9d"/>
        </g>
        <g id="Group_969" data-name="Group 969" transform="translate(229.383 331.478)">
          <path id="Path_692" data-name="Path 692" d="M252.984,342.561c-.235.144-2.492-4.462-7.1-8.588-4.561-4.183-9.363-5.979-9.243-6.227a9.479,9.479,0,0,1,3.139,1.106,28.166,28.166,0,0,1,11.8,10.692A9.477,9.477,0,0,1,252.984,342.561Z" transform="translate(-236.641 -327.729)" fill="#eb996e"/>
        </g>
        <g id="Group_970" data-name="Group 970" transform="translate(240.939 320.298)">
          <path id="Path_693" data-name="Path 693" d="M253.555,326.613c-.149.138-2.105-1.459-4.776-3.093a33.567,33.567,0,0,0-3.48-1.919c-.917-.431-1.524-.549-1.522-.675,0-.107.7-.194,1.728.117a15.947,15.947,0,0,1,3.719,1.76C251.96,324.475,253.752,326.434,253.555,326.613Z" transform="translate(-243.776 -320.826)" fill="#eb996e"/>
        </g>
        <g id="Group_971" data-name="Group 971" transform="translate(245.244 316.058)">
          <path id="Path_694" data-name="Path 694" d="M256.887,322.116c-.019.178-2.6.253-5.712-.643a10.44,10.44,0,0,1-3.655-1.916c-.815-.693-1.153-1.271-1.074-1.341.157-.144,2,1.608,4.978,2.45C254.365,321.52,256.93,321.837,256.887,322.116Z" transform="translate(-246.434 -318.208)" fill="#eb996e"/>
        </g>
        <g id="Group_972" data-name="Group 972" transform="translate(203.31 339.684)">
          <path id="Path_695" data-name="Path 695" d="M244.1,347.57a20.653,20.653,0,0,1-2.7-3.514c-1.592-2.193-3.618-5.463-6.924-7.868a13.954,13.954,0,0,0-9.8-2.6,17.828,17.828,0,0,0-4.13,1.313c-.029-.037.282-.338.946-.748A9.23,9.23,0,0,1,224.578,333a13.777,13.777,0,0,1,10.393,2.5c3.492,2.552,5.459,5.953,6.928,8.224A26.349,26.349,0,0,1,244.1,347.57Z" transform="translate(-220.542 -332.796)" fill="#eb996e"/>
        </g>
        <g id="Group_973" data-name="Group 973" transform="translate(225.226 419.984)">
          <path id="Path_696" data-name="Path 696" d="M258.409,382.443c.024.232-5.4,1.012-12.122,1.743s-12.187,1.135-12.213.9,5.4-1.012,12.122-1.743S258.383,382.211,258.409,382.443Z" transform="translate(-234.074 -382.378)" fill="#eb996e"/>
        </g>
      </g>
    </g>
    <g id="Stars" transform="translate(1.151 42.039)">
      <g id="Group_975" data-name="Group 975">
        <path id="Path_697" data-name="Path 697" d="M408.61,49.844l1.828,3.343,3.343,1.828-3.343,1.828-1.828,3.343-1.828-3.343-3.343-1.828,3.343-1.828Z" transform="translate(171.061 -49.844)" fill="#004080"/>
        <path id="Path_698" data-name="Path 698" d="M432.215,101.014l1.828,3.343,3.343,1.828-3.343,1.828-1.828,3.343-1.828-3.343-3.343-1.828,3.343-1.828Z" transform="translate(185.685 -18.141)" fill="#004080"/>
        <path id="Path_699" data-name="Path 699" d="M53.881,237.533l1.828,3.343,3.343,1.828-3.343,1.828-1.828,3.343-1.828-3.343L48.711,242.7l3.343-1.828Z" transform="translate(-48.711 66.439)" fill="#004080"/>
        <path id="Path_700" data-name="Path 700" d="M380.23,62.562l4.222,7.719,7.719,4.222-7.719,4.222-4.222,7.72-4.222-7.72L368.289,74.5l7.719-4.222Z" transform="translate(149.283 -41.964)" fill="#004080"/>
        <path id="Path_701" data-name="Path 701" d="M77.619,205.1l4.213,7.7,7.7,4.213-7.7,4.213-4.213,7.7-4.212-7.7-7.7-4.213,7.7-4.213Z" transform="translate(-38.182 46.343)" fill="#004080"/>
        <path id="Path_702" data-name="Path 702" d="M441.216,318.565l4.213,7.7,7.7,4.213-7.7,4.213-4.213,7.7-4.213-7.7-7.7-4.213,7.7-4.213Z" transform="translate(187.083 116.643)" fill="#004080"/>
      </g>
    </g>
  </g>
</svg>
